<ttFont>
    <TTGlyph name=".notdef" xMin="50" yMin="0" xMax="450" yMax="696">
      <contour>
        <pt x="50" y="696" on="1"/>
        <pt x="450" y="696" on="1"/>
        <pt x="450" y="0" on="1"/>
        <pt x="50" y="0" on="1"/>
      </contour>
      <contour>
        <pt x="399" y="46" on="1"/>
        <pt x="399" y="650" on="1"/>
        <pt x="101" y="650" on="1"/>
        <pt x="101" y="46" on="1"/>
      </contour>
    </TTGlyph>
    <TTGlyph name="A" xMin="-9" yMin="0" xMax="595" yMax="692">
      <contour>
        <pt x="400" y="155" on="1"/>
        <pt x="183" y="155" on="1"/>
        <pt x="144" y="0" on="1"/>
        <pt x="-9" y="0" on="1"/>
        <pt x="204" y="692" on="1"/>
        <pt x="383" y="692" on="1"/>
        <pt x="595" y="0" on="1"/>
        <pt x="439" y="0" on="1"/>
      </contour>
      <contour>
        <pt x="372" y="264" on="1"/>
        <pt x="291" y="583" on="1"/>
        <pt x="210" y="264" on="1"/>
      </contour>
    </TTGlyph>
    <TTGlyph name="AE" xMin="-20" yMin="0" xMax="800" yMax="692">
      <contour>
        <pt x="800" y="108" on="1"/>
        <pt x="800" y="0" on="1"/>
        <pt x="448" y="0" on="1"/>
        <pt x="418" y="155" on="1"/>
        <pt x="190" y="155" on="1"/>
        <pt x="136" y="0" on="1"/>
        <pt x="-20" y="0" on="1"/>
        <pt x="252" y="692" on="1"/>
        <pt x="762" y="692" on="1"/>
        <pt x="746" y="585" on="1"/>
        <pt x="467" y="585" on="1"/>
        <pt x="506" y="403" on="1"/>
        <pt x="753" y="403" on="1"/>
        <pt x="753" y="297" on="1"/>
        <pt x="529" y="297" on="1"/>
        <pt x="570" y="108" on="1"/>
      </contour>
      <contour>
        <pt x="398" y="264" on="1"/>
        <pt x="338" y="583" on="1"/>
        <pt x="227" y="264" on="1"/>
      </contour>
    </TTGlyph>
    <TTGlyph name="AEacute" xMin="-20" yMin="0" xMax="800" yMax="945">
      <component glyphName="AE" x="0" y="0" flags="0x0"/>
      <component glyphName="acutecomb.case" x="649" y="0" flags="0x0"/>
    </TTGlyph>
    <TTGlyph name="Aacute" xMin="-9" yMin="0" xMax="595" yMax="945">
      <component glyphName="A" x="0" y="0" flags="0x0"/>
      <component glyphName="acutecomb.case" x="462" y="0" flags="0x0"/>
    </TTGlyph>
    <TTGlyph name="Abreve" xMin="-9" yMin="0" xMax="595" yMax="920">
      <component glyphName="A" x="0" y="0" flags="0x0"/>
      <component glyphName="uni0306.case" x="490" y="0" flags="0x0"/>
    </TTGlyph>
    <TTGlyph name="Acircumflex" xMin="-9" yMin="0" xMax="595" yMax="940">
      <component glyphName="A" x="0" y="0" flags="0x0"/>
      <component glyphName="uni0302.case" x="507" y="0" flags="0x0"/>
    </TTGlyph>
    <TTGlyph name="Adieresis" xMin="-9" yMin="0" xMax="595" yMax="918">
      <component glyphName="A" x="0" y="0" flags="0x0"/>
      <component glyphName="uni0308.case" x="513" y="0" flags="0x0"/>
    </TTGlyph>
    <TTGlyph name="Agrave" xMin="-9" yMin="0" xMax="595" yMax="945">
      <component glyphName="A" x="0" y="0" flags="0x0"/>
      <component glyphName="gravecomb.case" x="456" y="0" flags="0x0"/>
    </TTGlyph>
    <TTGlyph name="Alpha" xMin="-9" yMin="0" xMax="595" yMax="692">
      <contour>
        <pt x="400" y="155" on="1"/>
        <pt x="183" y="155" on="1"/>
        <pt x="144" y="0" on="1"/>
        <pt x="-9" y="0" on="1"/>
        <pt x="204" y="692" on="1"/>
        <pt x="383" y="692" on="1"/>
        <pt x="595" y="0" on="1"/>
        <pt x="439" y="0" on="1"/>
      </contour>
      <contour>
        <pt x="372" y="264" on="1"/>
        <pt x="291" y="583" on="1"/>
        <pt x="210" y="264" on="1"/>
      </contour>
    </TTGlyph>
    <TTGlyph name="Alphatonos" xMin="44" yMin="0" xMax="691" yMax="720">
      <component glyphName="tonos.case" x="0" y="0" flags="0x0"/>
      <component glyphName="A" x="96" y="0" flags="0x0"/>
    </TTGlyph>
    <TTGlyph name="Amacron" xMin="-9" yMin="0" xMax="595" yMax="884">
      <component glyphName="A" x="0" y="0" flags="0x0"/>
      <component glyphName="uni0304.case" x="472" y="0" flags="0x0"/>
    </TTGlyph>
    <TTGlyph name="Aogonek" xMin="-9" yMin="-242" xMax="595" yMax="692">
      <contour>
        <pt x="454" y="-26" on="0"/>
        <pt x="403" y="-78" on="0"/>
        <pt x="403" y="-105" on="1"/>
        <pt x="403" y="-151" on="0"/>
        <pt x="456" y="-151" on="1"/>
        <pt x="485" y="-151" on="0"/>
        <pt x="517" y="-144" on="1"/>
        <pt x="507" y="-235" on="1"/>
        <pt x="470" y="-242" on="0"/>
        <pt x="439" y="-242" on="1"/>
        <pt x="376" y="-242" on="0"/>
        <pt x="297" y="-181" on="0"/>
        <pt x="297" y="-130" on="1"/>
        <pt x="297" y="-78" on="0"/>
        <pt x="367" y="-3" on="0"/>
        <pt x="433" y="24" on="1"/>
        <pt x="400" y="155" on="1"/>
        <pt x="183" y="155" on="1"/>
        <pt x="144" y="0" on="1"/>
        <pt x="-9" y="0" on="1"/>
        <pt x="204" y="692" on="1"/>
        <pt x="383" y="692" on="1"/>
        <pt x="595" y="0" on="1"/>
        <pt x="522" y="0" on="1"/>
      </contour>
      <contour>
        <pt x="372" y="264" on="1"/>
        <pt x="291" y="583" on="1"/>
        <pt x="210" y="264" on="1"/>
      </contour>
    </TTGlyph>
    <TTGlyph name="Aring" xMin="-9" yMin="0" xMax="595" yMax="986">
      <component glyphName="A" x="0" y="0" flags="0x0"/>
      <component glyphName="uni030A.case" x="457" y="0" flags="0x0"/>
    </TTGlyph>
    <TTGlyph name="Aringacute" xMin="-9" yMin="0" xMax="595" yMax="1170">
      <contour>
        <pt x="196" y="977" on="1"/>
        <pt x="160" y="1050" on="1"/>
        <pt x="375" y="1170" on="1"/>
        <pt x="430" y="1062" on="1"/>
      </contour>
      <contour>
        <pt x="234" y="722" on="0"/>
        <pt x="160" y="795" on="0"/>
        <pt x="160" y="848" on="1"/>
        <pt x="160" y="900" on="0"/>
        <pt x="234" y="973" on="0"/>
        <pt x="293" y="973" on="1"/>
        <pt x="352" y="973" on="0"/>
        <pt x="426" y="900" on="0"/>
        <pt x="426" y="848" on="1"/>
        <pt x="426" y="795" on="0"/>
        <pt x="352" y="722" on="0"/>
        <pt x="293" y="722" on="1"/>
      </contour>
      <contour>
        <pt x="272" y="899" on="0"/>
        <pt x="246" y="872" on="0"/>
        <pt x="246" y="848" on="1"/>
        <pt x="246" y="823" on="0"/>
        <pt x="271" y="796" on="0"/>
        <pt x="293" y="796" on="1"/>
        <pt x="315" y="796" on="0"/>
        <pt x="340" y="823" on="0"/>
        <pt x="340" y="848" on="1"/>
        <pt x="340" y="872" on="0"/>
        <pt x="314" y="899" on="0"/>
        <pt x="293" y="899" on="1"/>
      </contour>
      <contour>
        <pt x="400" y="155" on="1"/>
        <pt x="183" y="155" on="1"/>
        <pt x="144" y="0" on="1"/>
        <pt x="-9" y="0" on="1"/>
        <pt x="204" y="692" on="1"/>
        <pt x="383" y="692" on="1"/>
        <pt x="595" y="0" on="1"/>
        <pt x="439" y="0" on="1"/>
      </contour>
      <contour>
        <pt x="372" y="264" on="1"/>
        <pt x="291" y="583" on="1"/>
        <pt x="210" y="264" on="1"/>
      </contour>
    </TTGlyph>
    <TTGlyph name="Atilde" xMin="-9" yMin="0" xMax="595" yMax="914">
      <component glyphName="A" x="0" y="0" flags="0x0"/>
      <component glyphName="tildecomb.case" x="505" y="0" flags="0x0"/>
    </TTGlyph>
    <TTGlyph name="B" xMin="73" yMin="0" xMax="584" yMax="692">
      <contour>
        <pt x="497" y="353" on="0"/>
        <pt x="584" y="278" on="0"/>
        <pt x="584" y="201" on="1"/>
        <pt x="584" y="92" on="0"/>
        <pt x="428" y="0" on="0"/>
        <pt x="289" y="0" on="1"/>
        <pt x="73" y="0" on="1"/>
        <pt x="73" y="692" on="1"/>
        <pt x="262" y="692" on="1"/>
        <pt x="404" y="692" on="0"/>
        <pt x="554" y="608" on="0"/>
        <pt x="554" y="515" on="1"/>
        <pt x="554" y="454" on="0"/>
        <pt x="481" y="379" on="0"/>
        <pt x="427" y="366" on="1"/>
      </contour>
      <contour>
        <pt x="220" y="586" on="1"/>
        <pt x="220" y="411" on="1"/>
        <pt x="292" y="411" on="1"/>
        <pt x="346" y="411" on="0"/>
        <pt x="404" y="456" on="0"/>
        <pt x="404" y="502" on="1"/>
        <pt x="404" y="548" on="0"/>
        <pt x="342" y="586" on="0"/>
        <pt x="276" y="586" on="1"/>
      </contour>
      <contour>
        <pt x="359" y="109" on="0"/>
        <pt x="431" y="150" on="0"/>
        <pt x="431" y="207" on="1"/>
        <pt x="431" y="311" on="0"/>
        <pt x="303" y="311" on="1"/>
        <pt x="220" y="311" on="1"/>
        <pt x="220" y="109" on="1"/>
        <pt x="290" y="109" on="1"/>
      </contour>
    </TTGlyph>
    <TTGlyph name="Beta" xMin="73" yMin="0" xMax="584" yMax="692">
      <component glyphName="B" x="0" y="0" flags="0x0"/>
    </TTGlyph>
    <TTGlyph name="C" xMin="38" yMin="-16" xMax="561" yMax="708">
      <contour>
        <pt x="410" y="708" on="0"/>
        <pt x="508" y="671" on="0"/>
        <pt x="553" y="633" on="1"/>
        <pt x="479" y="547" on="1"/>
        <pt x="421" y="597" on="0"/>
        <pt x="353" y="597" on="1"/>
        <pt x="279" y="597" on="0"/>
        <pt x="193" y="476" on="0"/>
        <pt x="193" y="347" on="1"/>
        <pt x="193" y="222" on="0"/>
        <pt x="280" y="100" on="0"/>
        <pt x="355" y="100" on="1"/>
        <pt x="394" y="100" on="0"/>
        <pt x="456" y="130" on="0"/>
        <pt x="493" y="158" on="1"/>
        <pt x="561" y="71" on="1"/>
        <pt x="524" y="33" on="0"/>
        <pt x="415" y="-16" on="0"/>
        <pt x="348" y="-16" on="1"/>
        <pt x="255" y="-16" on="0"/>
        <pt x="115" y="68" on="0"/>
        <pt x="38" y="231" on="0"/>
        <pt x="38" y="347" on="1"/>
        <pt x="38" y="460" on="0"/>
        <pt x="118" y="623" on="0"/>
        <pt x="256" y="708" on="0"/>
        <pt x="344" y="708" on="1"/>
      </contour>
    </TTGlyph>
    <TTGlyph name="Cacute" xMin="38" yMin="-16" xMax="561" yMax="945">
      <component glyphName="C" x="0" y="0" flags="0x0"/>
      <component glyphName="acutecomb.case" x="520" y="0" flags="0x0"/>
    </TTGlyph>
    <TTGlyph name="Cacute.loclPLK" xMin="38" yMin="-16" xMax="561" yMax="955">
      <component glyphName="C" x="0" y="0" flags="0x0"/>
      <component glyphName="acute.case.loclPLK" x="187" y="0" flags="0x0"/>
    </TTGlyph>
    <TTGlyph name="Ccaron" xMin="38" yMin="-16" xMax="561" yMax="935">
      <component glyphName="C" x="0" y="0" flags="0x0"/>
      <component glyphName="uni030C.case" x="566" y="0" flags="0x0"/>
    </TTGlyph>
    <TTGlyph name="Ccedilla" xMin="38" yMin="-257" xMax="561" yMax="708">
      <contour>
        <pt x="529" y="38" on="0"/>
        <pt x="438" y="-8" on="0"/>
        <pt x="382" y="-14" on="1"/>
        <pt x="382" y="-50" on="1"/>
        <pt x="433" y="-55" on="0"/>
        <pt x="483" y="-106" on="0"/>
        <pt x="483" y="-146" on="1"/>
        <pt x="483" y="-196" on="0"/>
        <pt x="404" y="-257" on="0"/>
        <pt x="340" y="-257" on="1"/>
        <pt x="307" y="-257" on="0"/>
        <pt x="252" y="-241" on="0"/>
        <pt x="233" y="-228" on="1"/>
        <pt x="266" y="-160" on="1"/>
        <pt x="297" y="-177" on="0"/>
        <pt x="330" y="-177" on="1"/>
        <pt x="378" y="-177" on="0"/>
        <pt x="378" y="-145" on="1"/>
        <pt x="378" y="-126" on="0"/>
        <pt x="335" y="-109" on="0"/>
        <pt x="286" y="-109" on="1"/>
        <pt x="298" y="-12" on="1"/>
        <pt x="178" y="4" on="0"/>
        <pt x="38" y="190" on="0"/>
        <pt x="38" y="347" on="1"/>
        <pt x="38" y="460" on="0"/>
        <pt x="118" y="623" on="0"/>
        <pt x="256" y="708" on="0"/>
        <pt x="344" y="708" on="1"/>
        <pt x="410" y="708" on="0"/>
        <pt x="508" y="671" on="0"/>
        <pt x="553" y="633" on="1"/>
        <pt x="479" y="547" on="1"/>
        <pt x="421" y="597" on="0"/>
        <pt x="353" y="597" on="1"/>
        <pt x="279" y="597" on="0"/>
        <pt x="193" y="476" on="0"/>
        <pt x="193" y="347" on="1"/>
        <pt x="193" y="222" on="0"/>
        <pt x="280" y="100" on="0"/>
        <pt x="355" y="100" on="1"/>
        <pt x="394" y="100" on="0"/>
        <pt x="456" y="130" on="0"/>
        <pt x="493" y="158" on="1"/>
        <pt x="561" y="71" on="1"/>
      </contour>
    </TTGlyph>
    <TTGlyph name="Ccircumflex" xMin="38" yMin="-16" xMax="561" yMax="940">
      <component glyphName="C" x="0" y="0" flags="0x0"/>
      <component glyphName="uni0302.case" x="566" y="0" flags="0x0"/>
    </TTGlyph>
    <TTGlyph name="Cdotaccent" xMin="38" yMin="-16" xMax="561" yMax="929">
      <component glyphName="C" x="0" y="0" flags="0x0"/>
      <component glyphName="uni0307.case" x="467" y="0" flags="0x0"/>
    </TTGlyph>
    <TTGlyph name="Chi" xMin="-2" yMin="0" xMax="573" yMax="692">
      <component glyphName="X" x="0" y="0" flags="0x0"/>
    </TTGlyph>
    <TTGlyph name="D" xMin="73" yMin="0" xMax="611" yMax="692">
      <contour>
        <pt x="416" y="692" on="0"/>
        <pt x="611" y="545" on="0"/>
        <pt x="611" y="349" on="1"/>
        <pt x="611" y="157" on="0"/>
        <pt x="420" y="0" on="0"/>
        <pt x="271" y="0" on="1"/>
        <pt x="73" y="0" on="1"/>
        <pt x="73" y="692" on="1"/>
        <pt x="254" y="692" on="1"/>
      </contour>
      <contour>
        <pt x="220" y="584" on="1"/>
        <pt x="220" y="108" on="1"/>
        <pt x="280" y="108" on="1"/>
        <pt x="365" y="108" on="0"/>
        <pt x="458" y="213" on="0"/>
        <pt x="458" y="349" on="1"/>
        <pt x="458" y="443" on="0"/>
        <pt x="411" y="547" on="0"/>
        <pt x="333" y="584" on="0"/>
        <pt x="277" y="584" on="1"/>
      </contour>
    </TTGlyph>
    <TTGlyph name="Dcaron" xMin="73" yMin="0" xMax="611" yMax="935">
      <component glyphName="D" x="0" y="0" flags="0x0"/>
      <component glyphName="uni030C.case" x="511" y="0" flags="0x0"/>
    </TTGlyph>
    <TTGlyph name="Dcroat" xMin="15" yMin="0" xMax="625" yMax="692">
      <component glyphName="Eth" x="0" y="0" flags="0x0"/>
    </TTGlyph>
    <TTGlyph name="Delta" xMin="-9" yMin="0" xMax="604" yMax="692">
      <contour>
        <pt x="604" y="0" on="1"/>
        <pt x="-9" y="0" on="1"/>
        <pt x="208" y="692" on="1"/>
        <pt x="388" y="692" on="1"/>
      </contour>
      <contour>
        <pt x="170" y="110" on="1"/>
        <pt x="421" y="110" on="1"/>
        <pt x="296" y="581" on="1"/>
      </contour>
    </TTGlyph>
    <TTGlyph name="E" xMin="73" yMin="0" xMax="488" yMax="692">
      <contour>
        <pt x="470" y="585" on="1"/>
        <pt x="220" y="585" on="1"/>
        <pt x="220" y="405" on="1"/>
        <pt x="438" y="405" on="1"/>
        <pt x="438" y="299" on="1"/>
        <pt x="220" y="299" on="1"/>
        <pt x="220" y="108" on="1"/>
        <pt x="488" y="108" on="1"/>
        <pt x="488" y="0" on="1"/>
        <pt x="73" y="0" on="1"/>
        <pt x="73" y="692" on="1"/>
        <pt x="486" y="692" on="1"/>
      </contour>
    </TTGlyph>
    <TTGlyph name="Eacute" xMin="73" yMin="0" xMax="488" yMax="945">
      <component glyphName="E" x="0" y="0" flags="0x0"/>
      <component glyphName="acutecomb.case" x="449" y="0" flags="0x0"/>
    </TTGlyph>
    <TTGlyph name="Ebreve" xMin="73" yMin="0" xMax="488" yMax="920">
      <component glyphName="E" x="0" y="0" flags="0x0"/>
      <component glyphName="uni0306.case" x="478" y="0" flags="0x0"/>
    </TTGlyph>
    <TTGlyph name="Ecaron" xMin="73" yMin="0" xMax="488" yMax="935">
      <component glyphName="E" x="0" y="0" flags="0x0"/>
      <component glyphName="uni030C.case" x="496" y="0" flags="0x0"/>
    </TTGlyph>
    <TTGlyph name="Ecircumflex" xMin="73" yMin="0" xMax="488" yMax="940">
      <component glyphName="E" x="0" y="0" flags="0x0"/>
      <component glyphName="uni0302.case" x="495" y="0" flags="0x0"/>
    </TTGlyph>
    <TTGlyph name="Edieresis" xMin="73" yMin="0" xMax="488" yMax="918">
      <component glyphName="E" x="0" y="0" flags="0x0"/>
      <component glyphName="uni0308.case" x="501" y="0" flags="0x0"/>
    </TTGlyph>
    <TTGlyph name="Edotaccent" xMin="73" yMin="0" xMax="488" yMax="929">
      <component glyphName="E" x="0" y="0" flags="0x0"/>
      <component glyphName="uni0307.case" x="397" y="0" flags="0x0"/>
    </TTGlyph>
    <TTGlyph name="Egrave" xMin="73" yMin="0" xMax="488" yMax="945">
      <component glyphName="E" x="0" y="0" flags="0x0"/>
      <component glyphName="gravecomb.case" x="444" y="0" flags="0x0"/>
    </TTGlyph>
    <TTGlyph name="Emacron" xMin="73" yMin="0" xMax="488" yMax="884">
      <component glyphName="E" x="0" y="0" flags="0x0"/>
      <component glyphName="uni0304.case" x="460" y="0" flags="0x0"/>
    </TTGlyph>
    <TTGlyph name="Eng" xMin="73" yMin="-220" xMax="595" yMax="692">
      <contour>
        <pt x="595" y="-127" on="0"/>
        <pt x="494" y="-220" on="0"/>
        <pt x="406" y="-220" on="1"/>
        <pt x="326" y="-220" on="0"/>
        <pt x="271" y="-178" on="1"/>
        <pt x="320" y="-89" on="1"/>
        <pt x="340" y="-101" on="0"/>
        <pt x="370" y="-111" on="0"/>
        <pt x="392" y="-111" on="1"/>
        <pt x="419" y="-111" on="0"/>
        <pt x="447" y="-79" on="0"/>
        <pt x="447" y="-47" on="1"/>
        <pt x="447" y="0" on="1"/>
        <pt x="406" y="0" on="1"/>
        <pt x="186" y="549" on="1"/>
        <pt x="195" y="478" on="0"/>
        <pt x="206" y="353" on="0"/>
        <pt x="206" y="269" on="1"/>
        <pt x="206" y="0" on="1"/>
        <pt x="73" y="0" on="1"/>
        <pt x="73" y="692" on="1"/>
        <pt x="258" y="692" on="1"/>
        <pt x="482" y="142" on="1"/>
        <pt x="462" y="276" on="0"/>
        <pt x="462" y="388" on="1"/>
        <pt x="462" y="692" on="1"/>
        <pt x="595" y="692" on="1"/>
        <pt x="595" y="-38" on="1"/>
      </contour>
    </TTGlyph>
    <TTGlyph name="Eng.ss01" xMin="73" yMin="-220" xMax="591" yMax="708">
      <contour>
        <pt x="591" y="-38" on="1"/>
        <pt x="591" y="-127" on="0"/>
        <pt x="490" y="-220" on="0"/>
        <pt x="403" y="-220" on="1"/>
        <pt x="323" y="-220" on="0"/>
        <pt x="268" y="-178" on="1"/>
        <pt x="317" y="-89" on="1"/>
        <pt x="336" y="-101" on="0"/>
        <pt x="366" y="-111" on="0"/>
        <pt x="388" y="-111" on="1"/>
        <pt x="415" y="-111" on="0"/>
        <pt x="444" y="-79" on="0"/>
        <pt x="444" y="-47" on="1"/>
        <pt x="444" y="496" on="1"/>
        <pt x="444" y="547" on="0"/>
        <pt x="405" y="597" on="0"/>
        <pt x="362" y="597" on="1"/>
        <pt x="320" y="597" on="0"/>
        <pt x="257" y="561" on="0"/>
        <pt x="220" y="522" on="1"/>
        <pt x="220" y="0" on="1"/>
        <pt x="73" y="0" on="1"/>
        <pt x="73" y="692" on="1"/>
        <pt x="202" y="692" on="1"/>
        <pt x="213" y="622" on="1"/>
        <pt x="257" y="666" on="0"/>
        <pt x="349" y="708" on="0"/>
        <pt x="410" y="708" on="1"/>
        <pt x="499" y="708" on="0"/>
        <pt x="591" y="605" on="0"/>
        <pt x="591" y="521" on="1"/>
      </contour>
    </TTGlyph>
    <TTGlyph name="Eogonek" xMin="73" yMin="-242" xMax="488" yMax="692">
      <contour>
        <pt x="488" y="108" on="1"/>
        <pt x="488" y="0" on="1"/>
        <pt x="448" y="0" on="1"/>
        <pt x="380" y="-26" on="0"/>
        <pt x="329" y="-78" on="0"/>
        <pt x="329" y="-105" on="1"/>
        <pt x="329" y="-151" on="0"/>
        <pt x="382" y="-151" on="1"/>
        <pt x="411" y="-151" on="0"/>
        <pt x="443" y="-144" on="1"/>
        <pt x="433" y="-235" on="1"/>
        <pt x="396" y="-242" on="0"/>
        <pt x="365" y="-242" on="1"/>
        <pt x="302" y="-242" on="0"/>
        <pt x="223" y="-181" on="0"/>
        <pt x="223" y="-130" on="1"/>
        <pt x="223" y="-51" on="0"/>
        <pt x="310" y="0" on="1"/>
        <pt x="73" y="0" on="1"/>
        <pt x="73" y="692" on="1"/>
        <pt x="486" y="692" on="1"/>
        <pt x="470" y="585" on="1"/>
        <pt x="220" y="585" on="1"/>
        <pt x="220" y="405" on="1"/>
        <pt x="438" y="405" on="1"/>
        <pt x="438" y="299" on="1"/>
        <pt x="220" y="299" on="1"/>
        <pt x="220" y="108" on="1"/>
      </contour>
    </TTGlyph>
    <TTGlyph name="Epsilon" xMin="73" yMin="0" xMax="488" yMax="692">
      <contour>
        <pt x="470" y="585" on="1"/>
        <pt x="220" y="585" on="1"/>
        <pt x="220" y="405" on="1"/>
        <pt x="438" y="405" on="1"/>
        <pt x="438" y="299" on="1"/>
        <pt x="220" y="299" on="1"/>
        <pt x="220" y="108" on="1"/>
        <pt x="488" y="108" on="1"/>
        <pt x="488" y="0" on="1"/>
        <pt x="73" y="0" on="1"/>
        <pt x="73" y="692" on="1"/>
        <pt x="486" y="692" on="1"/>
      </contour>
    </TTGlyph>
    <TTGlyph name="Epsilontonos" xMin="44" yMin="0" xMax="663" yMax="720">
      <component glyphName="tonos.case" x="0" y="0" flags="0x0"/>
      <component glyphName="E" x="175" y="0" flags="0x0"/>
    </TTGlyph>
    <TTGlyph name="Eta" xMin="73" yMin="0" xMax="596" yMax="692">
      <contour>
        <pt x="449" y="303" on="1"/>
        <pt x="220" y="303" on="1"/>
        <pt x="220" y="0" on="1"/>
        <pt x="73" y="0" on="1"/>
        <pt x="73" y="692" on="1"/>
        <pt x="220" y="692" on="1"/>
        <pt x="220" y="419" on="1"/>
        <pt x="449" y="419" on="1"/>
        <pt x="449" y="692" on="1"/>
        <pt x="596" y="692" on="1"/>
        <pt x="596" y="0" on="1"/>
        <pt x="449" y="0" on="1"/>
      </contour>
    </TTGlyph>
    <TTGlyph name="Etatonos" xMin="44" yMin="0" xMax="771" yMax="720">
      <component glyphName="tonos.case" x="0" y="0" flags="0x0"/>
      <component glyphName="H" x="175" y="0" flags="0x0"/>
    </TTGlyph>
    <TTGlyph name="Eth" xMin="15" yMin="0" xMax="625" yMax="692">
      <contour>
        <pt x="430" y="692" on="0"/>
        <pt x="625" y="545" on="0"/>
        <pt x="625" y="349" on="1"/>
        <pt x="625" y="157" on="0"/>
        <pt x="434" y="0" on="0"/>
        <pt x="285" y="0" on="1"/>
        <pt x="87" y="0" on="1"/>
        <pt x="87" y="307" on="1"/>
        <pt x="15" y="307" on="1"/>
        <pt x="15" y="399" on="1"/>
        <pt x="87" y="399" on="1"/>
        <pt x="87" y="692" on="1"/>
        <pt x="268" y="692" on="1"/>
      </contour>
      <contour>
        <pt x="378" y="108" on="0"/>
        <pt x="471" y="213" on="0"/>
        <pt x="471" y="349" on="1"/>
        <pt x="471" y="443" on="0"/>
        <pt x="424" y="547" on="0"/>
        <pt x="346" y="584" on="0"/>
        <pt x="291" y="584" on="1"/>
        <pt x="234" y="584" on="1"/>
        <pt x="234" y="399" on="1"/>
        <pt x="374" y="399" on="1"/>
        <pt x="374" y="307" on="1"/>
        <pt x="234" y="307" on="1"/>
        <pt x="234" y="108" on="1"/>
        <pt x="294" y="108" on="1"/>
      </contour>
    </TTGlyph>
    <TTGlyph name="Euro" xMin="11" yMin="-16" xMax="563" yMax="708">
      <contour>
        <pt x="255" y="157" on="0"/>
        <pt x="324" y="90" on="0"/>
        <pt x="387" y="90" on="1"/>
        <pt x="425" y="90" on="0"/>
        <pt x="493" y="112" on="0"/>
        <pt x="529" y="132" on="1"/>
        <pt x="529" y="22" on="1"/>
        <pt x="488" y="3" on="0"/>
        <pt x="414" y="-16" on="0"/>
        <pt x="370" y="-16" on="1"/>
        <pt x="260" y="-16" on="0"/>
        <pt x="119" y="112" on="0"/>
        <pt x="97" y="233" on="1"/>
        <pt x="11" y="233" on="1"/>
        <pt x="31" y="310" on="1"/>
        <pt x="94" y="310" on="1"/>
        <pt x="94" y="385" on="1"/>
        <pt x="11" y="385" on="1"/>
        <pt x="31" y="463" on="1"/>
        <pt x="99" y="463" on="1"/>
        <pt x="126" y="580" on="0"/>
        <pt x="273" y="708" on="0"/>
        <pt x="375" y="708" on="1"/>
        <pt x="477" y="708" on="0"/>
        <pt x="563" y="651" on="1"/>
        <pt x="516" y="563" on="1"/>
        <pt x="482" y="584" on="0"/>
        <pt x="419" y="603" on="0"/>
        <pt x="382" y="603" on="1"/>
        <pt x="328" y="603" on="0"/>
        <pt x="260" y="536" on="0"/>
        <pt x="244" y="463" on="1"/>
        <pt x="490" y="463" on="1"/>
        <pt x="470" y="385" on="1"/>
        <pt x="238" y="385" on="1"/>
        <pt x="238" y="310" on="1"/>
        <pt x="454" y="310" on="1"/>
        <pt x="435" y="233" on="1"/>
        <pt x="242" y="233" on="1"/>
      </contour>
    </TTGlyph>
    <TTGlyph name="Euro.lf" xMin="13" yMin="-16" xMax="574" yMax="687">
      <contour>
        <pt x="258" y="154" on="0"/>
        <pt x="333" y="90" on="0"/>
        <pt x="396" y="90" on="1"/>
        <pt x="463" y="90" on="0"/>
        <pt x="540" y="132" on="1"/>
        <pt x="540" y="22" on="1"/>
        <pt x="499" y="3" on="0"/>
        <pt x="425" y="-16" on="0"/>
        <pt x="381" y="-16" on="1"/>
        <pt x="268" y="-16" on="0"/>
        <pt x="123" y="109" on="0"/>
        <pt x="100" y="223" on="1"/>
        <pt x="13" y="223" on="1"/>
        <pt x="33" y="300" on="1"/>
        <pt x="96" y="300" on="1"/>
        <pt x="96" y="375" on="1"/>
        <pt x="13" y="375" on="1"/>
        <pt x="33" y="453" on="1"/>
        <pt x="101" y="453" on="1"/>
        <pt x="129" y="562" on="0"/>
        <pt x="282" y="687" on="0"/>
        <pt x="386" y="687" on="1"/>
        <pt x="490" y="687" on="0"/>
        <pt x="574" y="630" on="1"/>
        <pt x="523" y="542" on="1"/>
        <pt x="491" y="563" on="0"/>
        <pt x="429" y="582" on="0"/>
        <pt x="391" y="582" on="1"/>
        <pt x="339" y="582" on="0"/>
        <pt x="265" y="518" on="0"/>
        <pt x="247" y="453" on="1"/>
        <pt x="492" y="453" on="1"/>
        <pt x="472" y="375" on="1"/>
        <pt x="240" y="375" on="1"/>
        <pt x="240" y="300" on="1"/>
        <pt x="456" y="300" on="1"/>
        <pt x="437" y="223" on="1"/>
        <pt x="244" y="223" on="1"/>
      </contour>
    </TTGlyph>
    <TTGlyph name="Euro.osf" xMin="13" yMin="-16" xMax="574" yMax="687">
      <component glyphName="Euro.lf" x="0" y="0" flags="0x0"/>
    </TTGlyph>
    <TTGlyph name="Euro.tosf" xMin="29" yMin="-16" xMax="576" yMax="687">
      <contour>
        <pt x="274" y="154" on="0"/>
        <pt x="345" y="90" on="0"/>
        <pt x="405" y="90" on="1"/>
        <pt x="440" y="90" on="0"/>
        <pt x="506" y="112" on="0"/>
        <pt x="542" y="132" on="1"/>
        <pt x="542" y="22" on="1"/>
        <pt x="501" y="3" on="0"/>
        <pt x="431" y="-16" on="0"/>
        <pt x="390" y="-16" on="1"/>
        <pt x="280" y="-16" on="0"/>
        <pt x="139" y="108" on="0"/>
        <pt x="116" y="223" on="1"/>
        <pt x="29" y="223" on="1"/>
        <pt x="49" y="300" on="1"/>
        <pt x="112" y="300" on="1"/>
        <pt x="112" y="375" on="1"/>
        <pt x="29" y="375" on="1"/>
        <pt x="49" y="453" on="1"/>
        <pt x="117" y="453" on="1"/>
        <pt x="145" y="563" on="0"/>
        <pt x="293" y="687" on="0"/>
        <pt x="395" y="687" on="1"/>
        <pt x="448" y="687" on="0"/>
        <pt x="536" y="658" on="0"/>
        <pt x="576" y="630" on="1"/>
        <pt x="525" y="542" on="1"/>
        <pt x="493" y="563" on="0"/>
        <pt x="434" y="582" on="0"/>
        <pt x="400" y="582" on="1"/>
        <pt x="350" y="582" on="0"/>
        <pt x="280" y="518" on="0"/>
        <pt x="263" y="453" on="1"/>
        <pt x="495" y="453" on="1"/>
        <pt x="475" y="375" on="1"/>
        <pt x="256" y="375" on="1"/>
        <pt x="256" y="300" on="1"/>
        <pt x="459" y="300" on="1"/>
        <pt x="440" y="223" on="1"/>
        <pt x="260" y="223" on="1"/>
      </contour>
    </TTGlyph>
    <TTGlyph name="F" xMin="73" yMin="0" xMax="475" yMax="692">
      <contour>
        <pt x="459" y="585" on="1"/>
        <pt x="220" y="585" on="1"/>
        <pt x="220" y="389" on="1"/>
        <pt x="428" y="389" on="1"/>
        <pt x="428" y="282" on="1"/>
        <pt x="220" y="282" on="1"/>
        <pt x="220" y="0" on="1"/>
        <pt x="73" y="0" on="1"/>
        <pt x="73" y="692" on="1"/>
        <pt x="475" y="692" on="1"/>
      </contour>
    </TTGlyph>
    <TTGlyph name="G" xMin="38" yMin="-16" xMax="592" yMax="708">
      <contour>
        <pt x="432" y="708" on="0"/>
        <pt x="541" y="665" on="0"/>
        <pt x="588" y="625" on="1"/>
        <pt x="509" y="544" on="1"/>
        <pt x="474" y="573" on="0"/>
        <pt x="409" y="599" on="0"/>
        <pt x="368" y="599" on="1"/>
        <pt x="289" y="599" on="0"/>
        <pt x="192" y="474" on="0"/>
        <pt x="192" y="346" on="1"/>
        <pt x="192" y="211" on="0"/>
        <pt x="267" y="94" on="0"/>
        <pt x="346" y="94" on="1"/>
        <pt x="403" y="94" on="0"/>
        <pt x="449" y="119" on="1"/>
        <pt x="449" y="288" on="1"/>
        <pt x="352" y="288" on="1"/>
        <pt x="337" y="395" on="1"/>
        <pt x="592" y="395" on="1"/>
        <pt x="592" y="54" on="1"/>
        <pt x="539" y="21" on="0"/>
        <pt x="413" y="-16" on="0"/>
        <pt x="345" y="-16" on="1"/>
        <pt x="195" y="-16" on="0"/>
        <pt x="38" y="169" on="0"/>
        <pt x="38" y="347" on="1"/>
        <pt x="38" y="460" on="0"/>
        <pt x="124" y="624" on="0"/>
        <pt x="271" y="708" on="0"/>
        <pt x="361" y="708" on="1"/>
      </contour>
    </TTGlyph>
    <TTGlyph name="Gamma" xMin="73" yMin="0" xMax="506" yMax="692">
      <component glyphName="uni0413" x="0" y="0" flags="0x0"/>
    </TTGlyph>
    <TTGlyph name="Gbreve" xMin="38" yMin="-16" xMax="592" yMax="920">
      <component glyphName="G" x="0" y="0" flags="0x0"/>
      <component glyphName="uni0306.case" x="549" y="0" flags="0x0"/>
    </TTGlyph>
    <TTGlyph name="Gcaron" xMin="38" yMin="-16" xMax="592" yMax="935">
      <component glyphName="G" x="0" y="0" flags="0x0"/>
      <component glyphName="uni030C.case" x="567" y="0" flags="0x0"/>
    </TTGlyph>
    <TTGlyph name="Gcircumflex" xMin="38" yMin="-16" xMax="592" yMax="940">
      <component glyphName="G" x="0" y="0" flags="0x0"/>
      <component glyphName="uni0302.case" x="566" y="0" flags="0x0"/>
    </TTGlyph>
    <TTGlyph name="Gcommaaccent" xMin="38" yMin="-318" xMax="592" yMax="708">
      <component glyphName="G" x="0" y="0" flags="0x0"/>
      <component glyphName="uni0326.case" x="451" y="0" flags="0x0"/>
    </TTGlyph>
    <TTGlyph name="Gdotaccent" xMin="38" yMin="-16" xMax="592" yMax="929">
      <component glyphName="G" x="0" y="0" flags="0x0"/>
      <component glyphName="uni0307.case" x="468" y="0" flags="0x0"/>
    </TTGlyph>
    <TTGlyph name="H" xMin="73" yMin="0" xMax="596" yMax="692">
      <contour>
        <pt x="449" y="303" on="1"/>
        <pt x="220" y="303" on="1"/>
        <pt x="220" y="0" on="1"/>
        <pt x="73" y="0" on="1"/>
        <pt x="73" y="692" on="1"/>
        <pt x="220" y="692" on="1"/>
        <pt x="220" y="419" on="1"/>
        <pt x="449" y="419" on="1"/>
        <pt x="449" y="692" on="1"/>
        <pt x="596" y="692" on="1"/>
        <pt x="596" y="0" on="1"/>
        <pt x="449" y="0" on="1"/>
      </contour>
    </TTGlyph>
    <TTGlyph name="Hbar" xMin="18" yMin="0" xMax="661" yMax="692">
      <contour>
        <pt x="661" y="502" on="1"/>
        <pt x="601" y="502" on="1"/>
        <pt x="601" y="0" on="1"/>
        <pt x="454" y="0" on="1"/>
        <pt x="454" y="303" on="1"/>
        <pt x="226" y="303" on="1"/>
        <pt x="226" y="0" on="1"/>
        <pt x="79" y="0" on="1"/>
        <pt x="79" y="502" on="1"/>
        <pt x="18" y="502" on="1"/>
        <pt x="18" y="588" on="1"/>
        <pt x="79" y="588" on="1"/>
        <pt x="79" y="692" on="1"/>
        <pt x="226" y="692" on="1"/>
        <pt x="226" y="588" on="1"/>
        <pt x="454" y="588" on="1"/>
        <pt x="454" y="692" on="1"/>
        <pt x="601" y="692" on="1"/>
        <pt x="601" y="588" on="1"/>
        <pt x="661" y="588" on="1"/>
      </contour>
      <contour>
        <pt x="454" y="502" on="1"/>
        <pt x="226" y="502" on="1"/>
        <pt x="226" y="419" on="1"/>
        <pt x="454" y="419" on="1"/>
      </contour>
    </TTGlyph>
    <TTGlyph name="Hcircumflex" xMin="73" yMin="0" xMax="596" yMax="940">
      <component glyphName="H" x="0" y="0" flags="0x0"/>
      <component glyphName="uni0302.case" x="548" y="0" flags="0x0"/>
    </TTGlyph>
    <TTGlyph name="I" xMin="73" yMin="0" xMax="220" yMax="692">
      <contour>
        <pt x="220" y="0" on="1"/>
        <pt x="73" y="0" on="1"/>
        <pt x="73" y="692" on="1"/>
        <pt x="220" y="692" on="1"/>
      </contour>
    </TTGlyph>
    <TTGlyph name="IJ" xMin="73" yMin="-162" xMax="539" yMax="692">
      <component glyphName="I" x="0" y="0" flags="0x0"/>
      <component glyphName="J" x="294" y="0" flags="0x0"/>
    </TTGlyph>
    <TTGlyph name="Iacute" xMin="11" yMin="0" xMax="281" yMax="945">
      <component glyphName="I" x="0" y="0" flags="0x0"/>
      <component glyphName="acutecomb.case" x="314" y="0" flags="0x0"/>
    </TTGlyph>
    <TTGlyph name="Ibreve" xMin="-21" yMin="0" xMax="314" yMax="920">
      <component glyphName="I" x="0" y="0" flags="0x0"/>
      <component glyphName="uni0306.case" x="343" y="0" flags="0x0"/>
    </TTGlyph>
    <TTGlyph name="Icircumflex" xMin="-38" yMin="0" xMax="330" yMax="940">
      <component glyphName="I" x="0" y="0" flags="0x0"/>
      <component glyphName="uni0302.case" x="360" y="0" flags="0x0"/>
    </TTGlyph>
    <TTGlyph name="Idieresis" xMin="-42" yMin="0" xMax="335" yMax="918">
      <component glyphName="I" x="0" y="0" flags="0x0"/>
      <component glyphName="uni0308.case" x="366" y="0" flags="0x0"/>
    </TTGlyph>
    <TTGlyph name="Idotaccent" xMin="60" yMin="0" xMax="233" yMax="929">
      <component glyphName="I" x="0" y="0" flags="0x0"/>
      <component glyphName="uni0307.case" x="262" y="0" flags="0x0"/>
    </TTGlyph>
    <TTGlyph name="Igrave" xMin="6" yMin="0" xMax="276" yMax="945">
      <component glyphName="I" x="0" y="0" flags="0x0"/>
      <component glyphName="gravecomb.case" x="309" y="0" flags="0x0"/>
    </TTGlyph>
    <TTGlyph name="Imacron" xMin="-3" yMin="0" xMax="295" yMax="884">
      <component glyphName="I" x="0" y="0" flags="0x0"/>
      <component glyphName="uni0304.case" x="325" y="0" flags="0x0"/>
    </TTGlyph>
    <TTGlyph name="Iogonek" xMin="-26" yMin="-242" xMax="220" yMax="692">
      <contour>
        <pt x="220" y="692" on="1"/>
        <pt x="220" y="0" on="1"/>
        <pt x="199" y="0" on="1"/>
        <pt x="131" y="-26" on="0"/>
        <pt x="80" y="-78" on="0"/>
        <pt x="80" y="-105" on="1"/>
        <pt x="80" y="-151" on="0"/>
        <pt x="133" y="-151" on="1"/>
        <pt x="162" y="-151" on="0"/>
        <pt x="194" y="-144" on="1"/>
        <pt x="184" y="-235" on="1"/>
        <pt x="147" y="-242" on="0"/>
        <pt x="116" y="-242" on="1"/>
        <pt x="53" y="-242" on="0"/>
        <pt x="-26" y="-181" on="0"/>
        <pt x="-26" y="-130" on="1"/>
        <pt x="-26" y="-86" on="0"/>
        <pt x="24" y="-19" on="0"/>
        <pt x="73" y="7" on="1"/>
        <pt x="73" y="692" on="1"/>
      </contour>
    </TTGlyph>
    <TTGlyph name="Iota" xMin="73" yMin="0" xMax="220" yMax="692">
      <contour>
        <pt x="220" y="0" on="1"/>
        <pt x="73" y="0" on="1"/>
        <pt x="73" y="692" on="1"/>
        <pt x="220" y="692" on="1"/>
      </contour>
    </TTGlyph>
    <TTGlyph name="Iotadieresis" xMin="-42" yMin="0" xMax="335" yMax="918">
      <component glyphName="I" x="0" y="0" flags="0x0"/>
      <component glyphName="uni0308.case" x="366" y="0" flags="0x0"/>
    </TTGlyph>
    <TTGlyph name="Iotatonos" xMin="44" yMin="0" xMax="395" yMax="720">
      <component glyphName="tonos.case" x="0" y="0" flags="0x0"/>
      <component glyphName="I" x="175" y="0" flags="0x0"/>
    </TTGlyph>
    <TTGlyph name="Itilde" xMin="-37" yMin="0" xMax="329" yMax="914">
      <component glyphName="I" x="0" y="0" flags="0x0"/>
      <component glyphName="tildecomb.case" x="357" y="0" flags="0x0"/>
    </TTGlyph>
    <TTGlyph name="J" xMin="-7" yMin="-162" xMax="245" yMax="692">
      <contour>
        <pt x="245" y="103" on="1"/>
        <pt x="245" y="23" on="0"/>
        <pt x="190" y="-81" on="0"/>
        <pt x="98" y="-140" on="0"/>
        <pt x="32" y="-162" on="1"/>
        <pt x="-7" y="-57" on="1"/>
        <pt x="37" y="-40" on="0"/>
        <pt x="82" y="4" on="0"/>
        <pt x="98" y="62" on="0"/>
        <pt x="98" y="108" on="1"/>
        <pt x="98" y="692" on="1"/>
        <pt x="245" y="692" on="1"/>
      </contour>
    </TTGlyph>
    <TTGlyph name="Jcircumflex" xMin="-13" yMin="-162" xMax="355" yMax="940">
      <component glyphName="J" x="0" y="0" flags="0x0"/>
      <component glyphName="uni0302.case" x="385" y="0" flags="0x0"/>
    </TTGlyph>
    <TTGlyph name="K" xMin="73" yMin="0" xMax="631" yMax="692">
      <contour>
        <pt x="220" y="0" on="1"/>
        <pt x="73" y="0" on="1"/>
        <pt x="73" y="692" on="1"/>
        <pt x="220" y="692" on="1"/>
      </contour>
      <contour>
        <pt x="382" y="380" on="1"/>
        <pt x="631" y="0" on="1"/>
        <pt x="459" y="0" on="1"/>
        <pt x="226" y="369" on="1"/>
        <pt x="456" y="692" on="1"/>
        <pt x="613" y="692" on="1"/>
      </contour>
    </TTGlyph>
    <TTGlyph name="Kappa" xMin="73" yMin="0" xMax="631" yMax="692">
      <component glyphName="K" x="0" y="0" flags="0x0"/>
    </TTGlyph>
    <TTGlyph name="Kcommaaccent" xMin="73" yMin="-318" xMax="631" yMax="692">
      <component glyphName="K" x="0" y="0" flags="0x0"/>
      <component glyphName="uni0326.case" x="427" y="0" flags="0x0"/>
    </TTGlyph>
    <TTGlyph name="L" xMin="73" yMin="0" xMax="494" yMax="692">
      <contour>
        <pt x="220" y="118" on="1"/>
        <pt x="494" y="118" on="1"/>
        <pt x="478" y="0" on="1"/>
        <pt x="73" y="0" on="1"/>
        <pt x="73" y="692" on="1"/>
        <pt x="220" y="692" on="1"/>
      </contour>
    </TTGlyph>
    <TTGlyph name="Lacute" xMin="12" yMin="0" xMax="494" yMax="945">
      <component glyphName="L" x="0" y="0" flags="0x0"/>
      <component glyphName="acutecomb.case" x="315" y="0" flags="0x0"/>
    </TTGlyph>
    <TTGlyph name="Lambda" xMin="-9" yMin="0" xMax="595" yMax="692">
      <contour>
        <pt x="595" y="0" on="1"/>
        <pt x="439" y="0" on="1"/>
        <pt x="292" y="583" on="1"/>
        <pt x="144" y="0" on="1"/>
        <pt x="-9" y="0" on="1"/>
        <pt x="204" y="692" on="1"/>
        <pt x="383" y="692" on="1"/>
      </contour>
    </TTGlyph>
    <TTGlyph name="Lcaron" xMin="73" yMin="0" xMax="494" yMax="707">
      <component glyphName="L" x="0" y="0" flags="0x0"/>
      <component glyphName="caron.alt" x="201" y="0" flags="0x0"/>
    </TTGlyph>
    <TTGlyph name="Lcommaaccent" xMin="73" yMin="-318" xMax="494" yMax="692">
      <component glyphName="L" x="0" y="0" flags="0x0"/>
      <component glyphName="uni0326.case" x="381" y="0" flags="0x0"/>
    </TTGlyph>
    <TTGlyph name="Ldot" xMin="73" yMin="0" xMax="494" yMax="692">
      <component glyphName="L" x="0" y="0" flags="0x0"/>
      <component glyphName="uni0307" x="514" y="-323" flags="0x0"/>
    </TTGlyph>
    <TTGlyph name="Lslash" xMin="12" yMin="0" xMax="528" yMax="692">
      <contour>
        <pt x="528" y="118" on="1"/>
        <pt x="512" y="0" on="1"/>
        <pt x="107" y="0" on="1"/>
        <pt x="107" y="232" on="1"/>
        <pt x="61" y="204" on="1"/>
        <pt x="12" y="284" on="1"/>
        <pt x="107" y="343" on="1"/>
        <pt x="107" y="692" on="1"/>
        <pt x="254" y="692" on="1"/>
        <pt x="254" y="434" on="1"/>
        <pt x="390" y="518" on="1"/>
        <pt x="440" y="438" on="1"/>
        <pt x="254" y="323" on="1"/>
        <pt x="254" y="118" on="1"/>
      </contour>
    </TTGlyph>
    <TTGlyph name="M" xMin="40" yMin="0" xMax="744" yMax="692">
      <contour>
        <pt x="744" y="0" on="1"/>
        <pt x="600" y="0" on="1"/>
        <pt x="585" y="281" on="1"/>
        <pt x="578" y="407" on="0"/>
        <pt x="578" y="495" on="1"/>
        <pt x="578" y="542" on="0"/>
        <pt x="579" y="563" on="1"/>
        <pt x="462" y="74" on="1"/>
        <pt x="323" y="74" on="1"/>
        <pt x="198" y="564" on="1"/>
        <pt x="202" y="503" on="0"/>
        <pt x="202" y="427" on="1"/>
        <pt x="202" y="346" on="0"/>
        <pt x="198" y="278" on="1"/>
        <pt x="183" y="0" on="1"/>
        <pt x="40" y="0" on="1"/>
        <pt x="94" y="692" on="1"/>
        <pt x="281" y="692" on="1"/>
        <pt x="395" y="215" on="1"/>
        <pt x="502" y="692" on="1"/>
        <pt x="691" y="692" on="1"/>
      </contour>
    </TTGlyph>
    <TTGlyph name="Mu" xMin="40" yMin="0" xMax="744" yMax="692">
      <component glyphName="M" x="0" y="0" flags="0x0"/>
    </TTGlyph>
    <TTGlyph name="N" xMin="73" yMin="0" xMax="595" yMax="692">
      <contour>
        <pt x="595" y="0" on="1"/>
        <pt x="406" y="0" on="1"/>
        <pt x="186" y="549" on="1"/>
        <pt x="195" y="478" on="0"/>
        <pt x="206" y="353" on="0"/>
        <pt x="206" y="269" on="1"/>
        <pt x="206" y="0" on="1"/>
        <pt x="73" y="0" on="1"/>
        <pt x="73" y="692" on="1"/>
        <pt x="258" y="692" on="1"/>
        <pt x="482" y="142" on="1"/>
        <pt x="462" y="276" on="0"/>
        <pt x="462" y="388" on="1"/>
        <pt x="462" y="692" on="1"/>
        <pt x="595" y="692" on="1"/>
      </contour>
    </TTGlyph>
    <TTGlyph name="Nacute" xMin="73" yMin="0" xMax="595" yMax="945">
      <component glyphName="N" x="0" y="0" flags="0x0"/>
      <component glyphName="acutecomb.case" x="508" y="0" flags="0x0"/>
    </TTGlyph>
    <TTGlyph name="Nacute.loclPLK" xMin="73" yMin="0" xMax="595" yMax="955">
      <component glyphName="N" x="0" y="0" flags="0x0"/>
      <component glyphName="acute.case.loclPLK" x="175" y="0" flags="0x0"/>
    </TTGlyph>
    <TTGlyph name="Ncaron" xMin="73" yMin="0" xMax="595" yMax="935">
      <component glyphName="N" x="0" y="0" flags="0x0"/>
      <component glyphName="uni030C.case" x="554" y="0" flags="0x0"/>
    </TTGlyph>
    <TTGlyph name="Ncommaaccent" xMin="73" yMin="-318" xMax="595" yMax="692">
      <component glyphName="N" x="0" y="0" flags="0x0"/>
      <component glyphName="uni0326.case" x="440" y="0" flags="0x0"/>
    </TTGlyph>
    <TTGlyph name="Ntilde" xMin="73" yMin="0" xMax="595" yMax="914">
      <component glyphName="N" x="0" y="0" flags="0x0"/>
      <component glyphName="tildecomb.case" x="551" y="0" flags="0x0"/>
    </TTGlyph>
    <TTGlyph name="Nu" xMin="73" yMin="0" xMax="595" yMax="692">
      <component glyphName="N" x="0" y="0" flags="0x0"/>
    </TTGlyph>
    <TTGlyph name="O" xMin="38" yMin="-16" xMax="653" yMax="708">
      <contour>
        <pt x="441" y="708" on="0"/>
        <pt x="579" y="623" on="0"/>
        <pt x="653" y="461" on="0"/>
        <pt x="653" y="346" on="1"/>
        <pt x="653" y="233" on="0"/>
        <pt x="579" y="70" on="0"/>
        <pt x="441" y="-16" on="0"/>
        <pt x="346" y="-16" on="1"/>
        <pt x="251" y="-16" on="0"/>
        <pt x="112" y="69" on="0"/>
        <pt x="38" y="232" on="0"/>
        <pt x="38" y="346" on="1"/>
        <pt x="38" y="458" on="0"/>
        <pt x="113" y="621" on="0"/>
        <pt x="252" y="708" on="0"/>
        <pt x="346" y="708" on="1"/>
      </contour>
      <contour>
        <pt x="270" y="598" on="0"/>
        <pt x="193" y="478" on="0"/>
        <pt x="193" y="346" on="1"/>
        <pt x="193" y="214" on="0"/>
        <pt x="271" y="94" on="0"/>
        <pt x="346" y="94" on="1"/>
        <pt x="422" y="94" on="0"/>
        <pt x="498" y="213" on="0"/>
        <pt x="498" y="346" on="1"/>
        <pt x="498" y="479" on="0"/>
        <pt x="422" y="598" on="0"/>
        <pt x="346" y="598" on="1"/>
      </contour>
    </TTGlyph>
    <TTGlyph name="OE" xMin="38" yMin="-16" xMax="863" yMax="708">
      <contour>
        <pt x="863" y="0" on="1"/>
        <pt x="419" y="0" on="1"/>
        <pt x="380" y="-16" on="0"/>
        <pt x="330" y="-16" on="1"/>
        <pt x="243" y="-16" on="0"/>
        <pt x="111" y="69" on="0"/>
        <pt x="38" y="232" on="0"/>
        <pt x="38" y="346" on="1"/>
        <pt x="38" y="457" on="0"/>
        <pt x="111" y="621" on="0"/>
        <pt x="243" y="708" on="0"/>
        <pt x="330" y="708" on="1"/>
        <pt x="382" y="708" on="0"/>
        <pt x="423" y="692" on="1"/>
        <pt x="861" y="692" on="1"/>
        <pt x="845" y="585" on="1"/>
        <pt x="560" y="585" on="1"/>
        <pt x="617" y="514" on="0"/>
        <pt x="629" y="405" on="1"/>
        <pt x="814" y="405" on="1"/>
        <pt x="814" y="299" on="1"/>
        <pt x="630" y="299" on="1"/>
        <pt x="619" y="183" on="0"/>
        <pt x="556" y="108" on="1"/>
        <pt x="863" y="108" on="1"/>
      </contour>
      <contour>
        <pt x="193" y="216" on="0"/>
        <pt x="268" y="94" on="0"/>
        <pt x="336" y="94" on="1"/>
        <pt x="405" y="94" on="0"/>
        <pt x="478" y="214" on="0"/>
        <pt x="478" y="346" on="1"/>
        <pt x="478" y="478" on="0"/>
        <pt x="405" y="598" on="0"/>
        <pt x="336" y="598" on="1"/>
        <pt x="193" y="598" on="0"/>
        <pt x="193" y="346" on="1"/>
      </contour>
    </TTGlyph>
    <TTGlyph name="Oacute" xMin="38" yMin="-16" xMax="653" yMax="945">
      <component glyphName="O" x="0" y="0" flags="0x0"/>
      <component glyphName="acutecomb.case" x="513" y="0" flags="0x0"/>
    </TTGlyph>
    <TTGlyph name="Oacute.loclPLK" xMin="38" yMin="-16" xMax="653" yMax="955">
      <component glyphName="O" x="0" y="0" flags="0x0"/>
      <component glyphName="acute.case.loclPLK" x="181" y="0" flags="0x0"/>
    </TTGlyph>
    <TTGlyph name="Obreve" xMin="38" yMin="-16" xMax="653" yMax="920">
      <component glyphName="O" x="0" y="0" flags="0x0"/>
      <component glyphName="uni0306.case" x="542" y="0" flags="0x0"/>
    </TTGlyph>
    <TTGlyph name="Ocircumflex" xMin="38" yMin="-16" xMax="653" yMax="940">
      <component glyphName="O" x="0" y="0" flags="0x0"/>
      <component glyphName="uni0302.case" x="559" y="0" flags="0x0"/>
    </TTGlyph>
    <TTGlyph name="Odieresis" xMin="38" yMin="-16" xMax="653" yMax="918">
      <component glyphName="O" x="0" y="0" flags="0x0"/>
      <component glyphName="uni0308.case" x="565" y="0" flags="0x0"/>
    </TTGlyph>
    <TTGlyph name="Ograve" xMin="38" yMin="-16" xMax="653" yMax="945">
      <component glyphName="O" x="0" y="0" flags="0x0"/>
      <component glyphName="gravecomb.case" x="508" y="0" flags="0x0"/>
    </TTGlyph>
    <TTGlyph name="Ohorn" xMin="38" yMin="-16" xMax="701" yMax="773">
      <contour>
        <pt x="701" y="640" on="0"/>
        <pt x="649" y="578" on="0"/>
        <pt x="602" y="568" on="1"/>
        <pt x="653" y="480" on="0"/>
        <pt x="653" y="346" on="1"/>
        <pt x="653" y="233" on="0"/>
        <pt x="579" y="70" on="0"/>
        <pt x="441" y="-16" on="0"/>
        <pt x="346" y="-16" on="1"/>
        <pt x="251" y="-16" on="0"/>
        <pt x="112" y="69" on="0"/>
        <pt x="38" y="232" on="0"/>
        <pt x="38" y="346" on="1"/>
        <pt x="38" y="458" on="0"/>
        <pt x="113" y="621" on="0"/>
        <pt x="252" y="708" on="0"/>
        <pt x="346" y="708" on="1"/>
        <pt x="472" y="708" on="0"/>
        <pt x="551" y="634" on="1"/>
        <pt x="577" y="638" on="0"/>
        <pt x="600" y="665" on="0"/>
        <pt x="600" y="689" on="1"/>
        <pt x="600" y="710" on="0"/>
        <pt x="593" y="740" on="0"/>
        <pt x="586" y="758" on="1"/>
        <pt x="682" y="773" on="1"/>
        <pt x="701" y="737" on="0"/>
        <pt x="701" y="686" on="1"/>
      </contour>
      <contour>
        <pt x="422" y="94" on="0"/>
        <pt x="498" y="213" on="0"/>
        <pt x="498" y="346" on="1"/>
        <pt x="498" y="479" on="0"/>
        <pt x="422" y="598" on="0"/>
        <pt x="346" y="598" on="1"/>
        <pt x="270" y="598" on="0"/>
        <pt x="193" y="478" on="0"/>
        <pt x="193" y="346" on="1"/>
        <pt x="193" y="214" on="0"/>
        <pt x="271" y="94" on="0"/>
        <pt x="346" y="94" on="1"/>
      </contour>
    </TTGlyph>
    <TTGlyph name="Ohungarumlaut" xMin="38" yMin="-16" xMax="653" yMax="979">
      <component glyphName="O" x="0" y="0" flags="0x0"/>
      <component glyphName="uni030B.case" x="619" y="0" flags="0x0"/>
    </TTGlyph>
    <TTGlyph name="Omacron" xMin="38" yMin="-16" xMax="653" yMax="884">
      <component glyphName="O" x="0" y="0" flags="0x0"/>
      <component glyphName="uni0304.case" x="524" y="0" flags="0x0"/>
    </TTGlyph>
    <TTGlyph name="Omega" xMin="38" yMin="0" xMax="653" yMax="708">
      <contour>
        <pt x="440" y="708" on="0"/>
        <pt x="579" y="624" on="0"/>
        <pt x="653" y="471" on="0"/>
        <pt x="653" y="372" on="1"/>
        <pt x="653" y="276" on="0"/>
        <pt x="589" y="149" on="0"/>
        <pt x="519" y="109" on="1"/>
        <pt x="631" y="109" on="1"/>
        <pt x="631" y="0" on="1"/>
        <pt x="387" y="0" on="1"/>
        <pt x="387" y="105" on="1"/>
        <pt x="451" y="130" on="0"/>
        <pt x="498" y="253" on="0"/>
        <pt x="498" y="372" on="1"/>
        <pt x="498" y="598" on="0"/>
        <pt x="346" y="598" on="1"/>
        <pt x="271" y="598" on="0"/>
        <pt x="193" y="485" on="0"/>
        <pt x="193" y="371" on="1"/>
        <pt x="193" y="290" on="0"/>
        <pt x="214" y="187" on="0"/>
        <pt x="261" y="123" on="0"/>
        <pt x="303" y="105" on="1"/>
        <pt x="303" y="0" on="1"/>
        <pt x="59" y="0" on="1"/>
        <pt x="59" y="109" on="1"/>
        <pt x="169" y="109" on="1"/>
        <pt x="103" y="146" on="0"/>
        <pt x="38" y="274" on="0"/>
        <pt x="38" y="371" on="1"/>
        <pt x="38" y="469" on="0"/>
        <pt x="113" y="622" on="0"/>
        <pt x="253" y="708" on="0"/>
        <pt x="346" y="708" on="1"/>
      </contour>
    </TTGlyph>
    <TTGlyph name="Omegatonos" xMin="44" yMin="0" xMax="809" yMax="720">
      <component glyphName="tonos.case" x="0" y="0" flags="0x0"/>
      <component glyphName="Omega" x="156" y="0" flags="0x0"/>
    </TTGlyph>
    <TTGlyph name="Omicron" xMin="38" yMin="-16" xMax="653" yMax="708">
      <contour>
        <pt x="441" y="708" on="0"/>
        <pt x="579" y="623" on="0"/>
        <pt x="653" y="461" on="0"/>
        <pt x="653" y="346" on="1"/>
        <pt x="653" y="233" on="0"/>
        <pt x="579" y="70" on="0"/>
        <pt x="441" y="-16" on="0"/>
        <pt x="346" y="-16" on="1"/>
        <pt x="251" y="-16" on="0"/>
        <pt x="112" y="69" on="0"/>
        <pt x="38" y="232" on="0"/>
        <pt x="38" y="346" on="1"/>
        <pt x="38" y="458" on="0"/>
        <pt x="113" y="621" on="0"/>
        <pt x="252" y="708" on="0"/>
        <pt x="346" y="708" on="1"/>
      </contour>
      <contour>
        <pt x="270" y="598" on="0"/>
        <pt x="193" y="478" on="0"/>
        <pt x="193" y="346" on="1"/>
        <pt x="193" y="214" on="0"/>
        <pt x="271" y="94" on="0"/>
        <pt x="346" y="94" on="1"/>
        <pt x="422" y="94" on="0"/>
        <pt x="498" y="213" on="0"/>
        <pt x="498" y="346" on="1"/>
        <pt x="498" y="479" on="0"/>
        <pt x="422" y="598" on="0"/>
        <pt x="346" y="598" on="1"/>
      </contour>
    </TTGlyph>
    <TTGlyph name="Omicrontonos" xMin="44" yMin="-16" xMax="809" yMax="720">
      <component glyphName="tonos.case" x="0" y="0" flags="0x0"/>
      <component glyphName="O" x="156" y="0" flags="0x0"/>
    </TTGlyph>
    <TTGlyph name="Oslash" xMin="38" yMin="-133" xMax="653" yMax="826">
      <contour>
        <pt x="578" y="625" on="0"/>
        <pt x="653" y="462" on="0"/>
        <pt x="653" y="346" on="1"/>
        <pt x="653" y="233" on="0"/>
        <pt x="579" y="70" on="0"/>
        <pt x="441" y="-16" on="0"/>
        <pt x="346" y="-16" on="1"/>
        <pt x="315" y="-16" on="0"/>
        <pt x="292" y="-12" on="1"/>
        <pt x="256" y="-133" on="1"/>
        <pt x="143" y="-103" on="1"/>
        <pt x="183" y="26" on="1"/>
        <pt x="113" y="68" on="0"/>
        <pt x="38" y="231" on="0"/>
        <pt x="38" y="346" on="1"/>
        <pt x="38" y="458" on="0"/>
        <pt x="113" y="621" on="0"/>
        <pt x="252" y="708" on="0"/>
        <pt x="346" y="708" on="1"/>
        <pt x="376" y="708" on="0"/>
        <pt x="399" y="704" on="1"/>
        <pt x="436" y="826" on="1"/>
        <pt x="548" y="796" on="1"/>
        <pt x="507" y="667" on="1"/>
      </contour>
      <contour>
        <pt x="270" y="598" on="0"/>
        <pt x="193" y="478" on="0"/>
        <pt x="193" y="346" on="1"/>
        <pt x="193" y="191" on="0"/>
        <pt x="241" y="134" on="1"/>
        <pt x="380" y="595" on="1"/>
        <pt x="364" y="598" on="0"/>
        <pt x="346" y="598" on="1"/>
      </contour>
      <contour>
        <pt x="422" y="94" on="0"/>
        <pt x="498" y="213" on="0"/>
        <pt x="498" y="346" on="1"/>
        <pt x="498" y="429" on="0"/>
        <pt x="474" y="533" on="0"/>
        <pt x="449" y="560" on="1"/>
        <pt x="311" y="97" on="1"/>
        <pt x="328" y="94" on="0"/>
        <pt x="346" y="94" on="1"/>
      </contour>
    </TTGlyph>
    <TTGlyph name="Oslashacute" xMin="38" yMin="-133" xMax="653" yMax="974">
      <component glyphName="Oslash" x="0" y="0" flags="0x0"/>
      <component glyphName="acutecomb.case" x="511" y="29" flags="0x0"/>
    </TTGlyph>
    <TTGlyph name="Otilde" xMin="38" yMin="-16" xMax="653" yMax="914">
      <component glyphName="O" x="0" y="0" flags="0x0"/>
      <component glyphName="tildecomb.case" x="556" y="0" flags="0x0"/>
    </TTGlyph>
    <TTGlyph name="P" xMin="73" yMin="0" xMax="571" yMax="692">
      <contour>
        <pt x="422" y="692" on="0"/>
        <pt x="571" y="580" on="0"/>
        <pt x="571" y="469" on="1"/>
        <pt x="571" y="353" on="0"/>
        <pt x="423" y="236" on="0"/>
        <pt x="299" y="236" on="1"/>
        <pt x="220" y="236" on="1"/>
        <pt x="220" y="0" on="1"/>
        <pt x="73" y="0" on="1"/>
        <pt x="73" y="692" on="1"/>
        <pt x="287" y="692" on="1"/>
      </contour>
      <contour>
        <pt x="351" y="344" on="0"/>
        <pt x="419" y="402" on="0"/>
        <pt x="419" y="469" on="1"/>
        <pt x="419" y="586" on="0"/>
        <pt x="285" y="586" on="1"/>
        <pt x="220" y="586" on="1"/>
        <pt x="220" y="344" on="1"/>
        <pt x="287" y="344" on="1"/>
      </contour>
    </TTGlyph>
    <TTGlyph name="Phi" xMin="21" yMin="0" xMax="814" yMax="692">
      <contour>
        <pt x="814" y="221" on="0"/>
        <pt x="639" y="79" on="0"/>
        <pt x="489" y="74" on="1"/>
        <pt x="489" y="0" on="1"/>
        <pt x="346" y="0" on="1"/>
        <pt x="346" y="74" on="1"/>
        <pt x="193" y="82" on="0"/>
        <pt x="21" y="222" on="0"/>
        <pt x="21" y="345" on="1"/>
        <pt x="21" y="471" on="0"/>
        <pt x="196" y="612" on="0"/>
        <pt x="346" y="617" on="1"/>
        <pt x="346" y="692" on="1"/>
        <pt x="489" y="692" on="1"/>
        <pt x="489" y="617" on="1"/>
        <pt x="641" y="609" on="0"/>
        <pt x="814" y="470" on="0"/>
        <pt x="814" y="349" on="1"/>
      </contour>
      <contour>
        <pt x="171" y="263" on="0"/>
        <pt x="261" y="171" on="0"/>
        <pt x="352" y="165" on="1"/>
        <pt x="352" y="526" on="1"/>
        <pt x="171" y="513" on="0"/>
        <pt x="171" y="345" on="1"/>
      </contour>
      <contour>
        <pt x="664" y="178" on="0"/>
        <pt x="664" y="349" on="1"/>
        <pt x="664" y="429" on="0"/>
        <pt x="574" y="520" on="0"/>
        <pt x="483" y="526" on="1"/>
        <pt x="483" y="165" on="1"/>
      </contour>
    </TTGlyph>
    <TTGlyph name="Pi" xMin="73" yMin="0" xMax="593" yMax="692">
      <component glyphName="uni041F" x="0" y="0" flags="0x0"/>
    </TTGlyph>
    <TTGlyph name="Psi" xMin="23" yMin="0" xMax="696" yMax="692">
      <contour>
        <pt x="696" y="692" on="1"/>
        <pt x="696" y="430" on="1"/>
        <pt x="696" y="324" on="0"/>
        <pt x="561" y="199" on="0"/>
        <pt x="433" y="185" on="1"/>
        <pt x="433" y="0" on="1"/>
        <pt x="286" y="0" on="1"/>
        <pt x="286" y="185" on="1"/>
        <pt x="155" y="199" on="0"/>
        <pt x="23" y="323" on="0"/>
        <pt x="23" y="428" on="1"/>
        <pt x="23" y="692" on="1"/>
        <pt x="165" y="692" on="1"/>
        <pt x="165" y="428" on="1"/>
        <pt x="165" y="365" on="0"/>
        <pt x="225" y="298" on="0"/>
        <pt x="292" y="289" on="1"/>
        <pt x="292" y="692" on="1"/>
        <pt x="427" y="692" on="1"/>
        <pt x="427" y="289" on="1"/>
        <pt x="493" y="299" on="0"/>
        <pt x="554" y="366" on="0"/>
        <pt x="554" y="428" on="1"/>
        <pt x="554" y="692" on="1"/>
      </contour>
    </TTGlyph>
    <TTGlyph name="Q" xMin="38" yMin="-136" xMax="691" yMax="708">
      <contour>
        <pt x="553" y="43" on="0"/>
        <pt x="649" y="11" on="0"/>
        <pt x="691" y="-19" on="1"/>
        <pt x="602" y="-136" on="1"/>
        <pt x="543" y="-75" on="0"/>
        <pt x="426" y="-13" on="0"/>
        <pt x="337" y="-13" on="1"/>
        <pt x="246" y="-13" on="0"/>
        <pt x="111" y="71" on="0"/>
        <pt x="38" y="232" on="0"/>
        <pt x="38" y="346" on="1"/>
        <pt x="38" y="458" on="0"/>
        <pt x="113" y="621" on="0"/>
        <pt x="252" y="708" on="0"/>
        <pt x="346" y="708" on="1"/>
        <pt x="441" y="708" on="0"/>
        <pt x="579" y="623" on="0"/>
        <pt x="653" y="461" on="0"/>
        <pt x="653" y="346" on="1"/>
        <pt x="653" y="229" on="0"/>
        <pt x="565" y="84" on="0"/>
        <pt x="491" y="43" on="1"/>
      </contour>
      <contour>
        <pt x="193" y="214" on="0"/>
        <pt x="271" y="94" on="0"/>
        <pt x="346" y="94" on="1"/>
        <pt x="422" y="94" on="0"/>
        <pt x="498" y="213" on="0"/>
        <pt x="498" y="346" on="1"/>
        <pt x="498" y="479" on="0"/>
        <pt x="422" y="598" on="0"/>
        <pt x="346" y="598" on="1"/>
        <pt x="270" y="598" on="0"/>
        <pt x="193" y="478" on="0"/>
        <pt x="193" y="346" on="1"/>
      </contour>
    </TTGlyph>
    <TTGlyph name="R" xMin="73" yMin="0" xMax="610" yMax="692">
      <contour>
        <pt x="295" y="271" on="1"/>
        <pt x="220" y="271" on="1"/>
        <pt x="220" y="0" on="1"/>
        <pt x="73" y="0" on="1"/>
        <pt x="73" y="692" on="1"/>
        <pt x="289" y="692" on="1"/>
        <pt x="428" y="692" on="0"/>
        <pt x="568" y="589" on="0"/>
        <pt x="568" y="485" on="1"/>
        <pt x="568" y="416" on="0"/>
        <pt x="502" y="328" on="0"/>
        <pt x="432" y="298" on="1"/>
        <pt x="610" y="0" on="1"/>
        <pt x="443" y="0" on="1"/>
      </contour>
      <contour>
        <pt x="220" y="375" on="1"/>
        <pt x="297" y="375" on="1"/>
        <pt x="356" y="375" on="0"/>
        <pt x="416" y="428" on="0"/>
        <pt x="416" y="485" on="1"/>
        <pt x="416" y="538" on="0"/>
        <pt x="353" y="587" on="0"/>
        <pt x="286" y="587" on="1"/>
        <pt x="220" y="587" on="1"/>
      </contour>
    </TTGlyph>
    <TTGlyph name="Racute" xMin="73" yMin="0" xMax="610" yMax="945">
      <component glyphName="R" x="0" y="0" flags="0x0"/>
      <component glyphName="acutecomb.case" x="473" y="0" flags="0x0"/>
    </TTGlyph>
    <TTGlyph name="Rcaron" xMin="73" yMin="0" xMax="610" yMax="935">
      <component glyphName="R" x="0" y="0" flags="0x0"/>
      <component glyphName="uni030C.case" x="519" y="0" flags="0x0"/>
    </TTGlyph>
    <TTGlyph name="Rcommaaccent" xMin="73" yMin="-318" xMax="610" yMax="692">
      <component glyphName="R" x="0" y="0" flags="0x0"/>
      <component glyphName="uni0326.case" x="415" y="0" flags="0x0"/>
    </TTGlyph>
    <TTGlyph name="Rho" xMin="73" yMin="0" xMax="571" yMax="692">
      <contour>
        <pt x="422" y="692" on="0"/>
        <pt x="571" y="580" on="0"/>
        <pt x="571" y="469" on="1"/>
        <pt x="571" y="353" on="0"/>
        <pt x="423" y="236" on="0"/>
        <pt x="299" y="236" on="1"/>
        <pt x="220" y="236" on="1"/>
        <pt x="220" y="0" on="1"/>
        <pt x="73" y="0" on="1"/>
        <pt x="73" y="692" on="1"/>
        <pt x="287" y="692" on="1"/>
      </contour>
      <contour>
        <pt x="351" y="344" on="0"/>
        <pt x="419" y="402" on="0"/>
        <pt x="419" y="469" on="1"/>
        <pt x="419" y="586" on="0"/>
        <pt x="285" y="586" on="1"/>
        <pt x="220" y="586" on="1"/>
        <pt x="220" y="344" on="1"/>
        <pt x="287" y="344" on="1"/>
      </contour>
    </TTGlyph>
    <TTGlyph name="S" xMin="13" yMin="-16" xMax="537" yMax="708">
      <contour>
        <pt x="359" y="708" on="0"/>
        <pt x="470" y="665" on="0"/>
        <pt x="517" y="621" on="1"/>
        <pt x="447" y="540" on="1"/>
        <pt x="410" y="570" on="0"/>
        <pt x="336" y="598" on="0"/>
        <pt x="294" y="598" on="1"/>
        <pt x="248" y="598" on="0"/>
        <pt x="193" y="559" on="0"/>
        <pt x="193" y="523" on="1"/>
        <pt x="193" y="498" on="0"/>
        <pt x="216" y="466" on="0"/>
        <pt x="274" y="438" on="0"/>
        <pt x="332" y="420" on="1"/>
        <pt x="435" y="387" on="0"/>
        <pt x="537" y="290" on="0"/>
        <pt x="537" y="200" on="1"/>
        <pt x="537" y="136" on="0"/>
        <pt x="473" y="39" on="0"/>
        <pt x="351" y="-16" on="0"/>
        <pt x="269" y="-16" on="1"/>
        <pt x="187" y="-16" on="0"/>
        <pt x="59" y="36" on="0"/>
        <pt x="13" y="81" on="1"/>
        <pt x="89" y="164" on="1"/>
        <pt x="128" y="130" on="0"/>
        <pt x="214" y="95" on="0"/>
        <pt x="265" y="95" on="1"/>
        <pt x="319" y="95" on="0"/>
        <pt x="384" y="145" on="0"/>
        <pt x="384" y="190" on="1"/>
        <pt x="384" y="218" on="0"/>
        <pt x="361" y="255" on="0"/>
        <pt x="305" y="285" on="0"/>
        <pt x="252" y="301" on="1"/>
        <pt x="139" y="336" on="0"/>
        <pt x="42" y="434" on="0"/>
        <pt x="42" y="513" on="1"/>
        <pt x="42" y="571" on="0"/>
        <pt x="104" y="660" on="0"/>
        <pt x="214" y="708" on="0"/>
        <pt x="284" y="708" on="1"/>
      </contour>
    </TTGlyph>
    <TTGlyph name="Sacute" xMin="13" yMin="-16" xMax="537" yMax="945">
      <component glyphName="S" x="0" y="0" flags="0x0"/>
      <component glyphName="acutecomb.case" x="459" y="0" flags="0x0"/>
    </TTGlyph>
    <TTGlyph name="Sacute.loclPLK" xMin="13" yMin="-16" xMax="537" yMax="955">
      <component glyphName="S" x="0" y="0" flags="0x0"/>
      <component glyphName="acute.case.loclPLK" x="126" y="0" flags="0x0"/>
    </TTGlyph>
    <TTGlyph name="Scaron" xMin="13" yMin="-16" xMax="537" yMax="935">
      <component glyphName="S" x="0" y="0" flags="0x0"/>
      <component glyphName="uni030C.case" x="505" y="0" flags="0x0"/>
    </TTGlyph>
    <TTGlyph name="Scedilla" xMin="13" yMin="-257" xMax="537" yMax="708">
      <contour>
        <pt x="537" y="114" on="0"/>
        <pt x="421" y="-1" on="0"/>
        <pt x="318" y="-13" on="1"/>
        <pt x="318" y="-50" on="1"/>
        <pt x="369" y="-55" on="0"/>
        <pt x="419" y="-106" on="0"/>
        <pt x="419" y="-146" on="1"/>
        <pt x="419" y="-196" on="0"/>
        <pt x="340" y="-257" on="0"/>
        <pt x="276" y="-257" on="1"/>
        <pt x="243" y="-257" on="0"/>
        <pt x="188" y="-241" on="0"/>
        <pt x="169" y="-228" on="1"/>
        <pt x="202" y="-160" on="1"/>
        <pt x="233" y="-177" on="0"/>
        <pt x="266" y="-177" on="1"/>
        <pt x="314" y="-177" on="0"/>
        <pt x="314" y="-145" on="1"/>
        <pt x="314" y="-126" on="0"/>
        <pt x="271" y="-109" on="0"/>
        <pt x="222" y="-109" on="1"/>
        <pt x="234" y="-14" on="1"/>
        <pt x="100" y="-4" on="0"/>
        <pt x="13" y="81" on="1"/>
        <pt x="89" y="164" on="1"/>
        <pt x="128" y="130" on="0"/>
        <pt x="214" y="95" on="0"/>
        <pt x="265" y="95" on="1"/>
        <pt x="319" y="95" on="0"/>
        <pt x="384" y="145" on="0"/>
        <pt x="384" y="190" on="1"/>
        <pt x="384" y="218" on="0"/>
        <pt x="361" y="255" on="0"/>
        <pt x="305" y="285" on="0"/>
        <pt x="252" y="301" on="1"/>
        <pt x="139" y="336" on="0"/>
        <pt x="42" y="434" on="0"/>
        <pt x="42" y="513" on="1"/>
        <pt x="42" y="571" on="0"/>
        <pt x="104" y="660" on="0"/>
        <pt x="214" y="708" on="0"/>
        <pt x="284" y="708" on="1"/>
        <pt x="359" y="708" on="0"/>
        <pt x="470" y="665" on="0"/>
        <pt x="517" y="621" on="1"/>
        <pt x="447" y="540" on="1"/>
        <pt x="410" y="570" on="0"/>
        <pt x="336" y="598" on="0"/>
        <pt x="294" y="598" on="1"/>
        <pt x="248" y="598" on="0"/>
        <pt x="193" y="559" on="0"/>
        <pt x="193" y="523" on="1"/>
        <pt x="193" y="498" on="0"/>
        <pt x="216" y="466" on="0"/>
        <pt x="274" y="438" on="0"/>
        <pt x="332" y="420" on="1"/>
        <pt x="435" y="387" on="0"/>
        <pt x="537" y="290" on="0"/>
        <pt x="537" y="200" on="1"/>
      </contour>
    </TTGlyph>
    <TTGlyph name="Scircumflex" xMin="13" yMin="-16" xMax="537" yMax="940">
      <component glyphName="S" x="0" y="0" flags="0x0"/>
      <component glyphName="uni0302.case" x="504" y="0" flags="0x0"/>
    </TTGlyph>
    <TTGlyph name="Scommaaccent" xMin="13" yMin="-318" xMax="537" yMax="708">
      <component glyphName="S" x="0" y="0" flags="0x0"/>
      <component glyphName="uni0326.case" x="384" y="0" flags="0x0"/>
    </TTGlyph>
    <TTGlyph name="Sigma" xMin="26" yMin="0" xMax="477" yMax="692">
      <contour>
        <pt x="477" y="583" on="1"/>
        <pt x="189" y="583" on="1"/>
        <pt x="364" y="374" on="1"/>
        <pt x="364" y="309" on="1"/>
        <pt x="188" y="111" on="1"/>
        <pt x="477" y="111" on="1"/>
        <pt x="477" y="0" on="1"/>
        <pt x="26" y="0" on="1"/>
        <pt x="26" y="109" on="1"/>
        <pt x="225" y="339" on="1"/>
        <pt x="26" y="583" on="1"/>
        <pt x="26" y="692" on="1"/>
        <pt x="477" y="692" on="1"/>
      </contour>
    </TTGlyph>
    <TTGlyph name="T" xMin="10" yMin="0" xMax="532" yMax="692">
      <contour>
        <pt x="516" y="577" on="1"/>
        <pt x="341" y="577" on="1"/>
        <pt x="341" y="0" on="1"/>
        <pt x="194" y="0" on="1"/>
        <pt x="194" y="577" on="1"/>
        <pt x="10" y="577" on="1"/>
        <pt x="10" y="692" on="1"/>
        <pt x="532" y="692" on="1"/>
      </contour>
    </TTGlyph>
    <TTGlyph name="Tau" xMin="10" yMin="0" xMax="532" yMax="692">
      <component glyphName="T" x="0" y="0" flags="0x0"/>
    </TTGlyph>
    <TTGlyph name="Tbar" xMin="10" yMin="-1" xMax="532" yMax="691">
      <contour>
        <pt x="341" y="576" on="1"/>
        <pt x="341" y="389" on="1"/>
        <pt x="458" y="389" on="1"/>
        <pt x="458" y="302" on="1"/>
        <pt x="341" y="302" on="1"/>
        <pt x="341" y="-1" on="1"/>
        <pt x="194" y="-1" on="1"/>
        <pt x="194" y="302" on="1"/>
        <pt x="77" y="302" on="1"/>
        <pt x="77" y="389" on="1"/>
        <pt x="194" y="389" on="1"/>
        <pt x="194" y="576" on="1"/>
        <pt x="10" y="576" on="1"/>
        <pt x="10" y="691" on="1"/>
        <pt x="532" y="691" on="1"/>
        <pt x="516" y="576" on="1"/>
      </contour>
    </TTGlyph>
    <TTGlyph name="Tcaron" xMin="10" yMin="0" xMax="532" yMax="935">
      <component glyphName="T" x="0" y="0" flags="0x0"/>
      <component glyphName="uni030C.case" x="482" y="0" flags="0x0"/>
    </TTGlyph>
    <TTGlyph name="Theta" xMin="38" yMin="-16" xMax="653" yMax="708">
      <contour>
        <pt x="441" y="708" on="0"/>
        <pt x="579" y="623" on="0"/>
        <pt x="653" y="461" on="0"/>
        <pt x="653" y="346" on="1"/>
        <pt x="653" y="233" on="0"/>
        <pt x="579" y="70" on="0"/>
        <pt x="441" y="-16" on="0"/>
        <pt x="346" y="-16" on="1"/>
        <pt x="251" y="-16" on="0"/>
        <pt x="112" y="69" on="0"/>
        <pt x="38" y="232" on="0"/>
        <pt x="38" y="346" on="1"/>
        <pt x="38" y="458" on="0"/>
        <pt x="113" y="621" on="0"/>
        <pt x="252" y="708" on="0"/>
        <pt x="346" y="708" on="1"/>
      </contour>
      <contour>
        <pt x="266" y="598" on="0"/>
        <pt x="186" y="478" on="0"/>
        <pt x="186" y="346" on="1"/>
        <pt x="186" y="214" on="0"/>
        <pt x="268" y="94" on="0"/>
        <pt x="346" y="94" on="1"/>
        <pt x="425" y="94" on="0"/>
        <pt x="505" y="214" on="0"/>
        <pt x="505" y="346" on="1"/>
        <pt x="505" y="478" on="0"/>
        <pt x="425" y="598" on="0"/>
        <pt x="346" y="598" on="1"/>
      </contour>
      <contour>
        <pt x="451" y="307" on="1"/>
        <pt x="240" y="307" on="1"/>
        <pt x="240" y="397" on="1"/>
        <pt x="451" y="397" on="1"/>
      </contour>
    </TTGlyph>
    <TTGlyph name="Thorn" xMin="73" yMin="0" xMax="571" yMax="692">
      <contour>
        <pt x="422" y="581" on="0"/>
        <pt x="571" y="468" on="0"/>
        <pt x="571" y="356" on="1"/>
        <pt x="571" y="236" on="0"/>
        <pt x="423" y="117" on="0"/>
        <pt x="299" y="117" on="1"/>
        <pt x="220" y="117" on="1"/>
        <pt x="220" y="0" on="1"/>
        <pt x="73" y="0" on="1"/>
        <pt x="73" y="692" on="1"/>
        <pt x="220" y="692" on="1"/>
        <pt x="220" y="581" on="1"/>
        <pt x="287" y="581" on="1"/>
      </contour>
      <contour>
        <pt x="352" y="225" on="0"/>
        <pt x="419" y="284" on="0"/>
        <pt x="419" y="355" on="1"/>
        <pt x="419" y="475" on="0"/>
        <pt x="285" y="475" on="1"/>
        <pt x="220" y="475" on="1"/>
        <pt x="220" y="225" on="1"/>
        <pt x="287" y="225" on="1"/>
      </contour>
    </TTGlyph>
    <TTGlyph name="U" xMin="63" yMin="-16" xMax="590" yMax="692">
      <contour>
        <pt x="590" y="228" on="1"/>
        <pt x="590" y="157" on="0"/>
        <pt x="530" y="47" on="0"/>
        <pt x="411" y="-16" on="0"/>
        <pt x="326" y="-16" on="1"/>
        <pt x="198" y="-16" on="0"/>
        <pt x="63" y="117" on="0"/>
        <pt x="63" y="228" on="1"/>
        <pt x="63" y="692" on="1"/>
        <pt x="210" y="692" on="1"/>
        <pt x="210" y="235" on="1"/>
        <pt x="210" y="165" on="0"/>
        <pt x="266" y="96" on="0"/>
        <pt x="326" y="96" on="1"/>
        <pt x="386" y="96" on="0"/>
        <pt x="443" y="165" on="0"/>
        <pt x="443" y="235" on="1"/>
        <pt x="443" y="692" on="1"/>
        <pt x="590" y="692" on="1"/>
      </contour>
    </TTGlyph>
    <TTGlyph name="Uacute" xMin="63" yMin="-16" xMax="590" yMax="945">
      <component glyphName="U" x="0" y="0" flags="0x0"/>
      <component glyphName="acutecomb.case" x="495" y="0" flags="0x0"/>
    </TTGlyph>
    <TTGlyph name="Ubreve" xMin="63" yMin="-16" xMax="590" yMax="920">
      <component glyphName="U" x="0" y="0" flags="0x0"/>
      <component glyphName="uni0306.case" x="523" y="0" flags="0x0"/>
    </TTGlyph>
    <TTGlyph name="Ucircumflex" xMin="63" yMin="-16" xMax="590" yMax="940">
      <component glyphName="U" x="0" y="0" flags="0x0"/>
      <component glyphName="uni0302.case" x="540" y="0" flags="0x0"/>
    </TTGlyph>
    <TTGlyph name="Udieresis" xMin="63" yMin="-16" xMax="590" yMax="918">
      <component glyphName="U" x="0" y="0" flags="0x0"/>
      <component glyphName="uni0308.case" x="546" y="0" flags="0x0"/>
    </TTGlyph>
    <TTGlyph name="Ugrave" xMin="63" yMin="-16" xMax="590" yMax="945">
      <component glyphName="U" x="0" y="0" flags="0x0"/>
      <component glyphName="gravecomb.case" x="489" y="0" flags="0x0"/>
    </TTGlyph>
    <TTGlyph name="Uhorn" xMin="63" yMin="-16" xMax="733" yMax="773">
      <component glyphName="U" x="0" y="0" flags="0x0"/>
      <component glyphName="uni031B.case" x="763" y="0" flags="0x0"/>
    </TTGlyph>
    <TTGlyph name="Uhungarumlaut" xMin="63" yMin="-16" xMax="590" yMax="979">
      <component glyphName="U" x="0" y="0" flags="0x0"/>
      <component glyphName="uni030B.case" x="601" y="0" flags="0x0"/>
    </TTGlyph>
    <TTGlyph name="Umacron" xMin="63" yMin="-16" xMax="590" yMax="884">
      <component glyphName="U" x="0" y="0" flags="0x0"/>
      <component glyphName="uni0304.case" x="505" y="0" flags="0x0"/>
    </TTGlyph>
    <TTGlyph name="Uogonek" xMin="63" yMin="-242" xMax="590" yMax="692">
      <contour>
        <pt x="590" y="692" on="1"/>
        <pt x="590" y="228" on="1"/>
        <pt x="590" y="145" on="0"/>
        <pt x="509" y="25" on="0"/>
        <pt x="432" y="0" on="1"/>
        <pt x="365" y="-26" on="0"/>
        <pt x="314" y="-78" on="0"/>
        <pt x="314" y="-105" on="1"/>
        <pt x="314" y="-151" on="0"/>
        <pt x="367" y="-151" on="1"/>
        <pt x="396" y="-151" on="0"/>
        <pt x="428" y="-144" on="1"/>
        <pt x="418" y="-235" on="1"/>
        <pt x="381" y="-242" on="0"/>
        <pt x="350" y="-242" on="1"/>
        <pt x="287" y="-242" on="0"/>
        <pt x="208" y="-181" on="0"/>
        <pt x="208" y="-130" on="1"/>
        <pt x="208" y="-54" on="0"/>
        <pt x="296" y="-15" on="1"/>
        <pt x="183" y="-7" on="0"/>
        <pt x="63" y="124" on="0"/>
        <pt x="63" y="228" on="1"/>
        <pt x="63" y="692" on="1"/>
        <pt x="210" y="692" on="1"/>
        <pt x="210" y="235" on="1"/>
        <pt x="210" y="165" on="0"/>
        <pt x="266" y="96" on="0"/>
        <pt x="326" y="96" on="1"/>
        <pt x="386" y="96" on="0"/>
        <pt x="443" y="165" on="0"/>
        <pt x="443" y="235" on="1"/>
        <pt x="443" y="692" on="1"/>
      </contour>
    </TTGlyph>
    <TTGlyph name="Upsilon" xMin="-4" yMin="0" xMax="587" yMax="692">
      <contour>
        <pt x="365" y="261" on="1"/>
        <pt x="365" y="0" on="1"/>
        <pt x="218" y="0" on="1"/>
        <pt x="218" y="260" on="1"/>
        <pt x="-4" y="692" on="1"/>
        <pt x="157" y="692" on="1"/>
        <pt x="295" y="378" on="1"/>
        <pt x="432" y="692" on="1"/>
        <pt x="587" y="692" on="1"/>
      </contour>
    </TTGlyph>
    <TTGlyph name="Upsilondieresis" xMin="-4" yMin="0" xMax="587" yMax="918">
      <component glyphName="Y" x="0" y="0" flags="0x0"/>
      <component glyphName="uni0308.case" x="511" y="0" flags="0x0"/>
    </TTGlyph>
    <TTGlyph name="Upsilontonos" xMin="44" yMin="0" xMax="823" yMax="720">
      <component glyphName="tonos.case" x="0" y="0" flags="0x0"/>
      <component glyphName="Y" x="236" y="0" flags="0x0"/>
    </TTGlyph>
    <TTGlyph name="Uring" xMin="63" yMin="-16" xMax="590" yMax="986">
      <component glyphName="U" x="0" y="0" flags="0x0"/>
      <component glyphName="uni030A.case" x="490" y="0" flags="0x0"/>
    </TTGlyph>
    <TTGlyph name="Utilde" xMin="63" yMin="-16" xMax="590" yMax="914">
      <component glyphName="U" x="0" y="0" flags="0x0"/>
      <component glyphName="tildecomb.case" x="538" y="0" flags="0x0"/>
    </TTGlyph>
    <TTGlyph name="V" xMin="-9" yMin="0" xMax="575" yMax="692">
      <contour>
        <pt x="376" y="0" on="1"/>
        <pt x="197" y="0" on="1"/>
        <pt x="-9" y="692" on="1"/>
        <pt x="148" y="692" on="1"/>
        <pt x="289" y="122" on="1"/>
        <pt x="425" y="692" on="1"/>
        <pt x="575" y="692" on="1"/>
      </contour>
    </TTGlyph>
    <TTGlyph name="W" xMin="13" yMin="0" xMax="828" yMax="692">
      <contour>
        <pt x="707" y="0" on="1"/>
        <pt x="516" y="0" on="1"/>
        <pt x="420" y="541" on="1"/>
        <pt x="319" y="0" on="1"/>
        <pt x="133" y="0" on="1"/>
        <pt x="13" y="692" on="1"/>
        <pt x="160" y="692" on="1"/>
        <pt x="239" y="114" on="1"/>
        <pt x="344" y="692" on="1"/>
        <pt x="499" y="692" on="1"/>
        <pt x="600" y="114" on="1"/>
        <pt x="689" y="692" on="1"/>
        <pt x="828" y="692" on="1"/>
      </contour>
    </TTGlyph>
    <TTGlyph name="Wacute" xMin="13" yMin="0" xMax="828" yMax="945">
      <component glyphName="W" x="0" y="0" flags="0x0"/>
      <component glyphName="acutecomb.case" x="590" y="0" flags="0x0"/>
    </TTGlyph>
    <TTGlyph name="Wcircumflex" xMin="13" yMin="0" xMax="828" yMax="940">
      <component glyphName="W" x="0" y="0" flags="0x0"/>
      <component glyphName="uni0302.case" x="636" y="0" flags="0x0"/>
    </TTGlyph>
    <TTGlyph name="Wdieresis" xMin="13" yMin="0" xMax="828" yMax="918">
      <component glyphName="W" x="0" y="0" flags="0x0"/>
      <component glyphName="uni0308.case" x="641" y="0" flags="0x0"/>
    </TTGlyph>
    <TTGlyph name="Wgrave" xMin="13" yMin="0" xMax="828" yMax="945">
      <component glyphName="W" x="0" y="0" flags="0x0"/>
      <component glyphName="gravecomb.case" x="585" y="0" flags="0x0"/>
    </TTGlyph>
    <TTGlyph name="X" xMin="-2" yMin="0" xMax="573" yMax="692">
      <contour>
        <pt x="573" y="0" on="1"/>
        <pt x="411" y="0" on="1"/>
        <pt x="282" y="274" on="1"/>
        <pt x="155" y="0" on="1"/>
        <pt x="-2" y="0" on="1"/>
        <pt x="195" y="368" on="1"/>
        <pt x="14" y="692" on="1"/>
        <pt x="175" y="692" on="1"/>
        <pt x="284" y="461" on="1"/>
        <pt x="398" y="692" on="1"/>
        <pt x="554" y="692" on="1"/>
        <pt x="371" y="373" on="1"/>
      </contour>
    </TTGlyph>
    <TTGlyph name="Xi" xMin="33" yMin="0" xMax="488" yMax="692">
      <contour>
        <pt x="468" y="568" on="1"/>
        <pt x="33" y="568" on="1"/>
        <pt x="33" y="692" on="1"/>
        <pt x="486" y="692" on="1"/>
      </contour>
      <contour>
        <pt x="420" y="292" on="1"/>
        <pt x="97" y="292" on="1"/>
        <pt x="97" y="410" on="1"/>
        <pt x="420" y="410" on="1"/>
      </contour>
      <contour>
        <pt x="488" y="0" on="1"/>
        <pt x="33" y="0" on="1"/>
        <pt x="33" y="129" on="1"/>
        <pt x="488" y="129" on="1"/>
      </contour>
    </TTGlyph>
    <TTGlyph name="Y" xMin="-4" yMin="0" xMax="587" yMax="692">
      <contour>
        <pt x="365" y="261" on="1"/>
        <pt x="365" y="0" on="1"/>
        <pt x="218" y="0" on="1"/>
        <pt x="218" y="260" on="1"/>
        <pt x="-4" y="692" on="1"/>
        <pt x="157" y="692" on="1"/>
        <pt x="295" y="378" on="1"/>
        <pt x="432" y="692" on="1"/>
        <pt x="587" y="692" on="1"/>
      </contour>
    </TTGlyph>
    <TTGlyph name="Yacute" xMin="-4" yMin="0" xMax="587" yMax="945">
      <component glyphName="Y" x="0" y="0" flags="0x0"/>
      <component glyphName="acutecomb.case" x="459" y="0" flags="0x0"/>
    </TTGlyph>
    <TTGlyph name="Ycircumflex" xMin="-4" yMin="0" xMax="587" yMax="940">
      <component glyphName="Y" x="0" y="0" flags="0x0"/>
      <component glyphName="uni0302.case" x="505" y="0" flags="0x0"/>
    </TTGlyph>
    <TTGlyph name="Ydieresis" xMin="-4" yMin="0" xMax="587" yMax="918">
      <component glyphName="Y" x="0" y="0" flags="0x0"/>
      <component glyphName="uni0308.case" x="511" y="0" flags="0x0"/>
    </TTGlyph>
    <TTGlyph name="Ygrave" xMin="-4" yMin="0" xMax="587" yMax="945">
      <component glyphName="Y" x="0" y="0" flags="0x0"/>
      <component glyphName="gravecomb.case" x="454" y="0" flags="0x0"/>
    </TTGlyph>
    <TTGlyph name="Z" xMin="21" yMin="0" xMax="508" yMax="692">
      <contour>
        <pt x="503" y="579" on="1"/>
        <pt x="193" y="119" on="1"/>
        <pt x="508" y="119" on="1"/>
        <pt x="492" y="0" on="1"/>
        <pt x="21" y="0" on="1"/>
        <pt x="21" y="111" on="1"/>
        <pt x="337" y="576" on="1"/>
        <pt x="53" y="576" on="1"/>
        <pt x="53" y="692" on="1"/>
        <pt x="503" y="692" on="1"/>
      </contour>
    </TTGlyph>
    <TTGlyph name="Zacute" xMin="21" yMin="0" xMax="508" yMax="945">
      <component glyphName="Z" x="0" y="0" flags="0x0"/>
      <component glyphName="acutecomb.case" x="443" y="0" flags="0x0"/>
    </TTGlyph>
    <TTGlyph name="Zacute.loclPLK" xMin="21" yMin="0" xMax="508" yMax="955">
      <component glyphName="Z" x="0" y="0" flags="0x0"/>
      <component glyphName="acute.case.loclPLK" x="110" y="0" flags="0x0"/>
    </TTGlyph>
    <TTGlyph name="Zcaron" xMin="21" yMin="0" xMax="508" yMax="935">
      <component glyphName="Z" x="0" y="0" flags="0x0"/>
      <component glyphName="uni030C.case" x="489" y="0" flags="0x0"/>
    </TTGlyph>
    <TTGlyph name="Zdotaccent" xMin="21" yMin="0" xMax="508" yMax="929">
      <component glyphName="Z" x="0" y="0" flags="0x0"/>
      <component glyphName="uni0307.case" x="391" y="0" flags="0x0"/>
    </TTGlyph>
    <TTGlyph name="Zeta" xMin="21" yMin="0" xMax="508" yMax="692">
      <component glyphName="Z" x="0" y="0" flags="0x0"/>
    </TTGlyph>
    <TTGlyph name="a" xMin="31" yMin="-16" xMax="514" yMax="546">
      <contour>
        <pt x="475" y="116" on="0"/>
        <pt x="493" y="87" on="0"/>
        <pt x="514" y="80" on="1"/>
        <pt x="484" y="-14" on="1"/>
        <pt x="437" y="-9" on="0"/>
        <pt x="378" y="26" on="0"/>
        <pt x="362" y="63" on="1"/>
        <pt x="309" y="-16" on="0"/>
        <pt x="203" y="-16" on="1"/>
        <pt x="124" y="-16" on="0"/>
        <pt x="31" y="75" on="0"/>
        <pt x="31" y="148" on="1"/>
        <pt x="31" y="235" on="0"/>
        <pt x="157" y="327" on="0"/>
        <pt x="275" y="327" on="1"/>
        <pt x="336" y="327" on="1"/>
        <pt x="336" y="353" on="1"/>
        <pt x="336" y="402" on="0"/>
        <pt x="292" y="440" on="0"/>
        <pt x="241" y="440" on="1"/>
        <pt x="185" y="440" on="0"/>
        <pt x="101" y="412" on="1"/>
        <pt x="69" y="507" on="1"/>
        <pt x="168" y="546" on="0"/>
        <pt x="265" y="546" on="1"/>
        <pt x="373" y="546" on="0"/>
        <pt x="475" y="453" on="0"/>
        <pt x="475" y="361" on="1"/>
        <pt x="475" y="147" on="1"/>
      </contour>
      <contour>
        <pt x="302" y="86" on="0"/>
        <pt x="336" y="145" on="1"/>
        <pt x="336" y="246" on="1"/>
        <pt x="289" y="246" on="1"/>
        <pt x="174" y="246" on="0"/>
        <pt x="174" y="160" on="1"/>
        <pt x="174" y="125" on="0"/>
        <pt x="209" y="86" on="0"/>
        <pt x="242" y="86" on="1"/>
      </contour>
    </TTGlyph>
    <TTGlyph name="a.sc" xMin="-9" yMin="0" xMax="524" yMax="567">
      <contour>
        <pt x="345" y="120" on="1"/>
        <pt x="169" y="120" on="1"/>
        <pt x="138" y="0" on="1"/>
        <pt x="-9" y="0" on="1"/>
        <pt x="173" y="567" on="1"/>
        <pt x="343" y="567" on="1"/>
        <pt x="524" y="0" on="1"/>
        <pt x="375" y="0" on="1"/>
      </contour>
      <contour>
        <pt x="319" y="222" on="1"/>
        <pt x="256" y="466" on="1"/>
        <pt x="194" y="222" on="1"/>
      </contour>
    </TTGlyph>
    <TTGlyph name="aacute" xMin="31" yMin="-16" xMax="514" yMax="827">
      <component glyphName="a" x="0" y="0" flags="0x0"/>
      <component glyphName="acutecomb" x="429" y="0" flags="0x0"/>
    </TTGlyph>
    <TTGlyph name="aacute.sc" xMin="-9" yMin="0" xMax="524" yMax="857">
      <component glyphName="a.sc" x="0" y="0" flags="0x0"/>
      <component glyphName="acutecomb.sc" x="88" y="0" flags="0x0"/>
    </TTGlyph>
    <TTGlyph name="abreve" xMin="31" yMin="-16" xMax="514" yMax="813">
      <component glyphName="a" x="0" y="0" flags="0x0"/>
      <component glyphName="uni0306" x="466" y="0" flags="0x0"/>
    </TTGlyph>
    <TTGlyph name="abreve.sc" xMin="-9" yMin="0" xMax="524" yMax="843">
      <component glyphName="a.sc" x="0" y="0" flags="0x0"/>
      <component glyphName="uni0306.sc" x="60" y="0" flags="0x0"/>
    </TTGlyph>
    <TTGlyph name="abrevecy.sc" xMin="-9" yMin="0" xMax="524" yMax="825">
      <component glyphName="a.sc" x="0" y="0" flags="0x0"/>
      <component glyphName="brevecy.sc" x="61" y="0" flags="0x0"/>
    </TTGlyph>
    <TTGlyph name="acircumflex" xMin="31" yMin="-16" xMax="514" yMax="815">
      <component glyphName="a" x="0" y="0" flags="0x0"/>
      <component glyphName="uni0302" x="483" y="0" flags="0x0"/>
    </TTGlyph>
    <TTGlyph name="acircumflex.sc" xMin="-9" yMin="0" xMax="524" yMax="845">
      <component glyphName="a.sc" x="0" y="0" flags="0x0"/>
      <component glyphName="uni0302.sc" x="44" y="0" flags="0x0"/>
    </TTGlyph>
    <TTGlyph name="acute" xMin="30" yMin="626" xMax="300" yMax="827">
      <contour>
        <pt x="300" y="718" on="1"/>
        <pt x="70" y="626" on="1"/>
        <pt x="30" y="699" on="1"/>
        <pt x="244" y="827" on="1"/>
      </contour>
    </TTGlyph>
    <TTGlyph name="acute.case" xMin="30" yMin="752" xMax="300" yMax="945">
      <contour>
        <pt x="300" y="837" on="1"/>
        <pt x="66" y="752" on="1"/>
        <pt x="30" y="825" on="1"/>
        <pt x="245" y="945" on="1"/>
      </contour>
    </TTGlyph>
    <TTGlyph name="acute.case.loclPLK" xMin="97" yMin="740" xMax="302" yMax="955">
      <contour>
        <pt x="302" y="894" on="1"/>
        <pt x="162" y="740" on="1"/>
        <pt x="97" y="777" on="1"/>
        <pt x="196" y="955" on="1"/>
      </contour>
    </TTGlyph>
    <TTGlyph name="acute.loclPLK" xMin="97" yMin="580" xMax="301" yMax="802">
      <contour>
        <pt x="301" y="740" on="1"/>
        <pt x="162" y="580" on="1"/>
        <pt x="97" y="618" on="1"/>
        <pt x="195" y="802" on="1"/>
      </contour>
    </TTGlyph>
    <TTGlyph name="acute.sc" xMin="30" yMin="656" xMax="300" yMax="857">
      <component glyphName="acutecomb" x="330" y="30" flags="0x0"/>
    </TTGlyph>
    <TTGlyph name="acute.sc.loclPLK" xMin="97" yMin="625" xMax="301" yMax="846">
      <contour>
        <pt x="301" y="784" on="1"/>
        <pt x="162" y="625" on="1"/>
        <pt x="97" y="662" on="1"/>
        <pt x="195" y="846" on="1"/>
      </contour>
    </TTGlyph>
    <TTGlyph name="acutecomb" xMin="-300" yMin="626" xMax="-30" yMax="827">
      <contour>
        <pt x="-30" y="718" on="1"/>
        <pt x="-260" y="626" on="1"/>
        <pt x="-300" y="699" on="1"/>
        <pt x="-86" y="827" on="1"/>
      </contour>
    </TTGlyph>
    <TTGlyph name="acutecomb.case" xMin="-303" yMin="752" xMax="-33" yMax="945">
      <contour>
        <pt x="-33" y="837" on="1"/>
        <pt x="-267" y="752" on="1"/>
        <pt x="-303" y="825" on="1"/>
        <pt x="-88" y="945" on="1"/>
      </contour>
    </TTGlyph>
    <TTGlyph name="acutecomb.sc" xMin="30" yMin="656" xMax="300" yMax="857">
      <contour>
        <pt x="300" y="748" on="1"/>
        <pt x="70" y="656" on="1"/>
        <pt x="30" y="729" on="1"/>
        <pt x="244" y="857" on="1"/>
      </contour>
    </TTGlyph>
    <TTGlyph name="adieresis" xMin="31" yMin="-16" xMax="514" yMax="792">
      <component glyphName="a" x="0" y="0" flags="0x0"/>
      <component glyphName="uni0308" x="488" y="0" flags="0x0"/>
    </TTGlyph>
    <TTGlyph name="adieresis.sc" xMin="-9" yMin="0" xMax="524" yMax="822">
      <component glyphName="a.sc" x="0" y="0" flags="0x0"/>
      <component glyphName="uni0308.sc" x="39" y="0" flags="0x0"/>
    </TTGlyph>
    <TTGlyph name="ae" xMin="31" yMin="-16" xMax="821" yMax="546">
      <contour>
        <pt x="821" y="267" on="0"/>
        <pt x="818" y="222" on="1"/>
        <pt x="487" y="222" on="1"/>
        <pt x="494" y="150" on="0"/>
        <pt x="558" y="90" on="0"/>
        <pt x="613" y="90" on="1"/>
        <pt x="647" y="90" on="0"/>
        <pt x="707" y="112" on="0"/>
        <pt x="742" y="136" on="1"/>
        <pt x="801" y="56" on="1"/>
        <pt x="712" y="-16" on="0"/>
        <pt x="600" y="-16" on="1"/>
        <pt x="532" y="-16" on="0"/>
        <pt x="427" y="32" on="0"/>
        <pt x="394" y="76" on="1"/>
        <pt x="359" y="27" on="0"/>
        <pt x="266" y="-16" on="0"/>
        <pt x="206" y="-16" on="1"/>
        <pt x="125" y="-16" on="0"/>
        <pt x="31" y="75" on="0"/>
        <pt x="31" y="148" on="1"/>
        <pt x="31" y="235" on="0"/>
        <pt x="160" y="327" on="0"/>
        <pt x="280" y="327" on="1"/>
        <pt x="341" y="327" on="1"/>
        <pt x="341" y="352" on="1"/>
        <pt x="341" y="401" on="0"/>
        <pt x="298" y="439" on="0"/>
        <pt x="247" y="439" on="1"/>
        <pt x="189" y="439" on="0"/>
        <pt x="107" y="411" on="1"/>
        <pt x="74" y="507" on="1"/>
        <pt x="173" y="546" on="0"/>
        <pt x="270" y="546" on="1"/>
        <pt x="381" y="546" on="0"/>
        <pt x="431" y="475" on="1"/>
        <pt x="492" y="546" on="0"/>
        <pt x="592" y="546" on="1"/>
        <pt x="661" y="546" on="0"/>
        <pt x="765" y="482" on="0"/>
        <pt x="821" y="360" on="0"/>
        <pt x="821" y="277" on="1"/>
      </contour>
      <contour>
        <pt x="681" y="317" on="1"/>
        <pt x="679" y="449" on="0"/>
        <pt x="585" y="449" on="1"/>
        <pt x="541" y="449" on="0"/>
        <pt x="493" y="384" on="0"/>
        <pt x="487" y="311" on="1"/>
        <pt x="681" y="311" on="1"/>
      </contour>
      <contour>
        <pt x="281" y="86" on="0"/>
        <pt x="332" y="122" on="0"/>
        <pt x="355" y="158" on="1"/>
        <pt x="344" y="196" on="0"/>
        <pt x="343" y="240" on="1"/>
        <pt x="343" y="243" on="1"/>
        <pt x="296" y="243" on="1"/>
        <pt x="238" y="243" on="0"/>
        <pt x="181" y="202" on="0"/>
        <pt x="181" y="158" on="1"/>
        <pt x="181" y="124" on="0"/>
        <pt x="216" y="86" on="0"/>
        <pt x="249" y="86" on="1"/>
      </contour>
    </TTGlyph>
    <TTGlyph name="ae.sc" xMin="-20" yMin="0" xMax="702" yMax="567">
      <contour>
        <pt x="702" y="101" on="1"/>
        <pt x="702" y="0" on="1"/>
        <pt x="384" y="0" on="1"/>
        <pt x="362" y="120" on="1"/>
        <pt x="175" y="120" on="1"/>
        <pt x="132" y="0" on="1"/>
        <pt x="-20" y="0" on="1"/>
        <pt x="215" y="567" on="1"/>
        <pt x="670" y="567" on="1"/>
        <pt x="655" y="467" on="1"/>
        <pt x="424" y="467" on="1"/>
        <pt x="451" y="337" on="1"/>
        <pt x="662" y="337" on="1"/>
        <pt x="662" y="238" on="1"/>
        <pt x="472" y="238" on="1"/>
        <pt x="500" y="101" on="1"/>
      </contour>
      <contour>
        <pt x="343" y="222" on="1"/>
        <pt x="298" y="464" on="1"/>
        <pt x="211" y="222" on="1"/>
      </contour>
    </TTGlyph>
    <TTGlyph name="aeacute" xMin="31" yMin="-16" xMax="821" yMax="827">
      <component glyphName="ae" x="0" y="0" flags="0x0"/>
      <component glyphName="acutecomb" x="589" y="0" flags="0x0"/>
    </TTGlyph>
    <TTGlyph name="aeacute.sc" xMin="-20" yMin="0" xMax="702" yMax="857">
      <component glyphName="ae.sc" x="0" y="0" flags="0x0"/>
      <component glyphName="acutecomb.sc" x="243" y="0" flags="0x0"/>
    </TTGlyph>
    <TTGlyph name="agrave" xMin="31" yMin="-16" xMax="514" yMax="827">
      <component glyphName="a" x="0" y="0" flags="0x0"/>
      <component glyphName="gravecomb" x="443" y="0" flags="0x0"/>
    </TTGlyph>
    <TTGlyph name="agrave.sc" xMin="-9" yMin="0" xMax="524" yMax="857">
      <component glyphName="a.sc" x="0" y="0" flags="0x0"/>
      <component glyphName="gravecomb.sc" x="98" y="0" flags="0x0"/>
    </TTGlyph>
    <TTGlyph name="alpha" xMin="38" yMin="-16" xMax="567" yMax="546">
      <contour>
        <pt x="318" y="546" on="0"/>
        <pt x="397" y="474" on="0"/>
        <pt x="412" y="401" on="1"/>
        <pt x="430" y="530" on="1"/>
        <pt x="553" y="530" on="1"/>
        <pt x="487" y="258" on="1"/>
        <pt x="514" y="145" on="1"/>
        <pt x="520" y="122" on="0"/>
        <pt x="545" y="97" on="0"/>
        <pt x="567" y="92" on="1"/>
        <pt x="521" y="-16" on="1"/>
        <pt x="476" y="-10" on="0"/>
        <pt x="419" y="37" on="0"/>
        <pt x="410" y="78" on="1"/>
        <pt x="403" y="119" on="1"/>
        <pt x="378" y="53" on="0"/>
        <pt x="298" y="-16" on="0"/>
        <pt x="238" y="-16" on="1"/>
        <pt x="145" y="-16" on="0"/>
        <pt x="38" y="126" on="0"/>
        <pt x="38" y="261" on="1"/>
        <pt x="38" y="345" on="0"/>
        <pt x="88" y="474" on="0"/>
        <pt x="185" y="546" on="0"/>
        <pt x="253" y="546" on="1"/>
      </contour>
      <contour>
        <pt x="229" y="441" on="0"/>
        <pt x="183" y="350" on="0"/>
        <pt x="183" y="261" on="1"/>
        <pt x="183" y="89" on="0"/>
        <pt x="266" y="89" on="1"/>
        <pt x="303" y="89" on="0"/>
        <pt x="358" y="168" on="0"/>
        <pt x="376" y="271" on="1"/>
        <pt x="358" y="367" on="0"/>
        <pt x="310" y="441" on="0"/>
        <pt x="270" y="441" on="1"/>
      </contour>
    </TTGlyph>
    <TTGlyph name="alpha.sc" xMin="-9" yMin="0" xMax="524" yMax="567">
      <component glyphName="a.sc" x="0" y="0" flags="0x0"/>
    </TTGlyph>
    <TTGlyph name="alphadasiaoxiaprosgegrammeni.sc" xMin="-9" yMin="0" xMax="524" yMax="567">
      <component glyphName="a.sc" x="0" y="0" flags="0x0"/>
    </TTGlyph>
    <TTGlyph name="alphadasiaperispomeniprosgegram" xMin="-9" yMin="0" xMax="524" yMax="567">
      <component glyphName="a.sc" x="0" y="0" flags="0x0"/>
    </TTGlyph>
    <TTGlyph name="alphadasiaprosgegrammeni.sc" xMin="-9" yMin="0" xMax="524" yMax="567">
      <component glyphName="a.sc" x="0" y="0" flags="0x0"/>
    </TTGlyph>
    <TTGlyph name="alphadasiavariaprosgegrammeni.s" xMin="-9" yMin="0" xMax="524" yMax="567">
      <component glyphName="a.sc" x="0" y="0" flags="0x0"/>
    </TTGlyph>
    <TTGlyph name="alphaprosgegrammeni.sc" xMin="-9" yMin="0" xMax="524" yMax="567">
      <component glyphName="a.sc" x="0" y="0" flags="0x0"/>
    </TTGlyph>
    <TTGlyph name="alphapsilioxiaprosgegrammeni.sc" xMin="-9" yMin="0" xMax="524" yMax="567">
      <component glyphName="a.sc" x="0" y="0" flags="0x0"/>
    </TTGlyph>
    <TTGlyph name="alphapsiliperispomeniprosgegram" xMin="-9" yMin="0" xMax="524" yMax="567">
      <component glyphName="a.sc" x="0" y="0" flags="0x0"/>
    </TTGlyph>
    <TTGlyph name="alphapsiliprosgegrammeni.sc" xMin="-9" yMin="0" xMax="524" yMax="567">
      <component glyphName="a.sc" x="0" y="0" flags="0x0"/>
    </TTGlyph>
    <TTGlyph name="alphapsilivariaprosgegrammeni.s" xMin="-9" yMin="0" xMax="524" yMax="567">
      <component glyphName="a.sc" x="0" y="0" flags="0x0"/>
    </TTGlyph>
    <TTGlyph name="alphatonos" xMin="38" yMin="-16" xMax="567" yMax="838">
      <component glyphName="alpha" x="0" y="0" flags="0x0"/>
      <component glyphName="tonos" x="199" y="0" flags="0x0"/>
    </TTGlyph>
    <TTGlyph name="alphatonos.sc" xMin="-9" yMin="0" xMax="524" yMax="567">
      <component glyphName="a.sc" x="0" y="0" flags="0x0"/>
    </TTGlyph>
    <TTGlyph name="amacron" xMin="31" yMin="-16" xMax="514" yMax="758">
      <component glyphName="a" x="0" y="0" flags="0x0"/>
      <component glyphName="uni0304" x="447" y="0" flags="0x0"/>
    </TTGlyph>
    <TTGlyph name="amacron.sc" xMin="-9" yMin="0" xMax="524" yMax="788">
      <component glyphName="a.sc" x="0" y="0" flags="0x0"/>
      <component glyphName="uni0304.sc" x="79" y="0" flags="0x0"/>
    </TTGlyph>
    <TTGlyph name="ampersand" xMin="65" yMin="-16" xMax="727" yMax="708">
      <contour>
        <pt x="373" y="708" on="0"/>
        <pt x="467" y="667" on="0"/>
        <pt x="517" y="595" on="0"/>
        <pt x="517" y="550" on="1"/>
        <pt x="517" y="492" on="0"/>
        <pt x="447" y="403" on="0"/>
        <pt x="382" y="362" on="1"/>
        <pt x="528" y="226" on="1"/>
        <pt x="560" y="294" on="0"/>
        <pt x="578" y="376" on="1"/>
        <pt x="699" y="340" on="1"/>
        <pt x="662" y="230" on="0"/>
        <pt x="608" y="151" on="1"/>
        <pt x="727" y="45" on="1"/>
        <pt x="609" y="-16" on="1"/>
        <pt x="526" y="64" on="1"/>
        <pt x="436" y="-16" on="0"/>
        <pt x="307" y="-16" on="1"/>
        <pt x="236" y="-16" on="0"/>
        <pt x="126" y="32" on="0"/>
        <pt x="65" y="119" on="0"/>
        <pt x="65" y="177" on="1"/>
        <pt x="65" y="238" on="0"/>
        <pt x="131" y="328" on="0"/>
        <pt x="201" y="373" on="1"/>
        <pt x="148" y="424" on="0"/>
        <pt x="105" y="497" on="0"/>
        <pt x="105" y="544" on="1"/>
        <pt x="105" y="589" on="0"/>
        <pt x="151" y="663" on="0"/>
        <pt x="244" y="708" on="0"/>
        <pt x="310" y="708" on="1"/>
      </contour>
      <contour>
        <pt x="279" y="614" on="0"/>
        <pt x="242" y="576" on="0"/>
        <pt x="242" y="545" on="1"/>
        <pt x="242" y="517" on="0"/>
        <pt x="270" y="470" on="0"/>
        <pt x="304" y="437" on="1"/>
        <pt x="343" y="462" on="0"/>
        <pt x="381" y="513" on="0"/>
        <pt x="381" y="545" on="1"/>
        <pt x="381" y="577" on="0"/>
        <pt x="344" y="614" on="0"/>
        <pt x="312" y="614" on="1"/>
      </contour>
      <contour>
        <pt x="246" y="271" on="0"/>
        <pt x="213" y="217" on="0"/>
        <pt x="213" y="184" on="1"/>
        <pt x="213" y="139" on="0"/>
        <pt x="277" y="87" on="0"/>
        <pt x="330" y="87" on="1"/>
        <pt x="399" y="87" on="0"/>
        <pt x="453" y="133" on="1"/>
        <pt x="282" y="296" on="1"/>
      </contour>
    </TTGlyph>
    <TTGlyph name="ampersand.ss03" xMin="31" yMin="-14" xMax="912" yMax="631">
      <contour>
        <pt x="912" y="483" on="1"/>
        <pt x="912" y="390" on="1"/>
        <pt x="812" y="390" on="1"/>
        <pt x="799" y="276" on="0"/>
        <pt x="691" y="93" on="0"/>
        <pt x="503" y="-14" on="0"/>
        <pt x="373" y="-14" on="1"/>
        <pt x="208" y="-14" on="0"/>
        <pt x="31" y="156" on="0"/>
        <pt x="31" y="314" on="1"/>
        <pt x="31" y="409" on="0"/>
        <pt x="105" y="553" on="0"/>
        <pt x="234" y="631" on="0"/>
        <pt x="316" y="631" on="1"/>
        <pt x="379" y="631" on="0"/>
        <pt x="477" y="584" on="0"/>
        <pt x="531" y="501" on="0"/>
        <pt x="531" y="449" on="1"/>
        <pt x="531" y="347" on="0"/>
        <pt x="359" y="236" on="0"/>
        <pt x="187" y="223" on="1"/>
        <pt x="203" y="156" on="0"/>
        <pt x="294" y="95" on="0"/>
        <pt x="376" y="95" on="1"/>
        <pt x="507" y="95" on="0"/>
        <pt x="673" y="248" on="0"/>
        <pt x="690" y="390" on="1"/>
        <pt x="604" y="390" on="1"/>
        <pt x="604" y="483" on="1"/>
      </contour>
      <contour>
        <pt x="250" y="526" on="0"/>
        <pt x="179" y="414" on="0"/>
        <pt x="178" y="317" on="1"/>
        <pt x="291" y="327" on="0"/>
        <pt x="387" y="395" on="0"/>
        <pt x="387" y="451" on="1"/>
        <pt x="387" y="487" on="0"/>
        <pt x="347" y="526" on="0"/>
        <pt x="310" y="526" on="1"/>
      </contour>
    </TTGlyph>
    <TTGlyph name="anoteleia" xMin="34" yMin="223" xMax="205" yMax="394">
      <component glyphName="periodcentered" x="0" y="0" flags="0x0"/>
    </TTGlyph>
    <TTGlyph name="aogonek" xMin="31" yMin="-256" xMax="514" yMax="546">
      <contour>
        <pt x="416" y="-40" on="0"/>
        <pt x="365" y="-92" on="0"/>
        <pt x="365" y="-119" on="1"/>
        <pt x="365" y="-165" on="0"/>
        <pt x="418" y="-165" on="1"/>
        <pt x="447" y="-165" on="0"/>
        <pt x="479" y="-158" on="1"/>
        <pt x="469" y="-249" on="1"/>
        <pt x="432" y="-256" on="0"/>
        <pt x="401" y="-256" on="1"/>
        <pt x="338" y="-256" on="0"/>
        <pt x="259" y="-195" on="0"/>
        <pt x="259" y="-144" on="1"/>
        <pt x="259" y="-90" on="0"/>
        <pt x="331" y="-15" on="0"/>
        <pt x="401" y="12" on="1"/>
        <pt x="374" y="32" on="0"/>
        <pt x="362" y="63" on="1"/>
        <pt x="309" y="-16" on="0"/>
        <pt x="203" y="-16" on="1"/>
        <pt x="124" y="-16" on="0"/>
        <pt x="31" y="75" on="0"/>
        <pt x="31" y="148" on="1"/>
        <pt x="31" y="235" on="0"/>
        <pt x="157" y="327" on="0"/>
        <pt x="275" y="327" on="1"/>
        <pt x="336" y="327" on="1"/>
        <pt x="336" y="353" on="1"/>
        <pt x="336" y="402" on="0"/>
        <pt x="292" y="440" on="0"/>
        <pt x="241" y="440" on="1"/>
        <pt x="185" y="440" on="0"/>
        <pt x="101" y="412" on="1"/>
        <pt x="69" y="507" on="1"/>
        <pt x="168" y="546" on="0"/>
        <pt x="265" y="546" on="1"/>
        <pt x="373" y="546" on="0"/>
        <pt x="475" y="453" on="0"/>
        <pt x="475" y="361" on="1"/>
        <pt x="475" y="147" on="1"/>
        <pt x="475" y="116" on="0"/>
        <pt x="493" y="87" on="0"/>
        <pt x="514" y="80" on="1"/>
        <pt x="484" y="-14" on="1"/>
      </contour>
      <contour>
        <pt x="302" y="86" on="0"/>
        <pt x="336" y="145" on="1"/>
        <pt x="336" y="246" on="1"/>
        <pt x="289" y="246" on="1"/>
        <pt x="174" y="246" on="0"/>
        <pt x="174" y="160" on="1"/>
        <pt x="174" y="125" on="0"/>
        <pt x="209" y="86" on="0"/>
        <pt x="242" y="86" on="1"/>
      </contour>
    </TTGlyph>
    <TTGlyph name="aogonek.sc" xMin="-9" yMin="-242" xMax="524" yMax="567">
      <contour>
        <pt x="342" y="-46" on="0"/>
        <pt x="342" y="-105" on="1"/>
        <pt x="342" y="-151" on="0"/>
        <pt x="396" y="-151" on="1"/>
        <pt x="425" y="-151" on="0"/>
        <pt x="457" y="-144" on="1"/>
        <pt x="447" y="-235" on="1"/>
        <pt x="410" y="-242" on="0"/>
        <pt x="379" y="-242" on="1"/>
        <pt x="316" y="-242" on="0"/>
        <pt x="237" y="-181" on="0"/>
        <pt x="237" y="-130" on="1"/>
        <pt x="237" y="-78" on="0"/>
        <pt x="304" y="-5" on="0"/>
        <pt x="369" y="22" on="1"/>
        <pt x="345" y="120" on="1"/>
        <pt x="169" y="120" on="1"/>
        <pt x="138" y="0" on="1"/>
        <pt x="-9" y="0" on="1"/>
        <pt x="173" y="567" on="1"/>
        <pt x="343" y="567" on="1"/>
        <pt x="524" y="0" on="1"/>
        <pt x="462" y="0" on="1"/>
      </contour>
      <contour>
        <pt x="319" y="222" on="1"/>
        <pt x="256" y="466" on="1"/>
        <pt x="194" y="222" on="1"/>
      </contour>
    </TTGlyph>
    <TTGlyph name="approxequal" xMin="45" yMin="137" xMax="511" yMax="509">
      <contour>
        <pt x="324" y="341" on="0"/>
        <pt x="277" y="361" on="0"/>
        <pt x="248" y="379" on="1"/>
        <pt x="229" y="391" on="0"/>
        <pt x="206" y="402" on="0"/>
        <pt x="193" y="402" on="1"/>
        <pt x="169" y="402" on="0"/>
        <pt x="139" y="375" on="0"/>
        <pt x="122" y="350" on="1"/>
        <pt x="45" y="389" on="1"/>
        <pt x="71" y="442" on="0"/>
        <pt x="144" y="509" on="0"/>
        <pt x="200" y="509" on="1"/>
        <pt x="233" y="509" on="0"/>
        <pt x="280" y="489" on="0"/>
        <pt x="307" y="472" on="1"/>
        <pt x="326" y="460" on="0"/>
        <pt x="351" y="448" on="0"/>
        <pt x="364" y="448" on="1"/>
        <pt x="388" y="448" on="0"/>
        <pt x="418" y="472" on="0"/>
        <pt x="435" y="496" on="1"/>
        <pt x="511" y="458" on="1"/>
        <pt x="486" y="406" on="0"/>
        <pt x="413" y="341" on="0"/>
        <pt x="358" y="341" on="1"/>
      </contour>
      <contour>
        <pt x="324" y="137" on="0"/>
        <pt x="277" y="157" on="0"/>
        <pt x="248" y="175" on="1"/>
        <pt x="229" y="187" on="0"/>
        <pt x="206" y="198" on="0"/>
        <pt x="193" y="198" on="1"/>
        <pt x="169" y="198" on="0"/>
        <pt x="139" y="171" on="0"/>
        <pt x="122" y="146" on="1"/>
        <pt x="45" y="185" on="1"/>
        <pt x="71" y="238" on="0"/>
        <pt x="144" y="305" on="0"/>
        <pt x="200" y="305" on="1"/>
        <pt x="233" y="305" on="0"/>
        <pt x="280" y="285" on="0"/>
        <pt x="307" y="268" on="1"/>
        <pt x="326" y="256" on="0"/>
        <pt x="351" y="244" on="0"/>
        <pt x="364" y="244" on="1"/>
        <pt x="388" y="244" on="0"/>
        <pt x="418" y="268" on="0"/>
        <pt x="435" y="292" on="1"/>
        <pt x="511" y="254" on="1"/>
        <pt x="486" y="202" on="0"/>
        <pt x="413" y="137" on="0"/>
        <pt x="358" y="137" on="1"/>
      </contour>
    </TTGlyph>
    <TTGlyph name="approxequal.lf" xMin="21" yMin="137" xMax="487" yMax="305">
      <component glyphName="asciitilde.lf" x="0" y="-99" flags="0x0"/>
      <component glyphName="asciitilde.lf" x="0" y="105" flags="0x0"/>
    </TTGlyph>
    <TTGlyph name="approxequal.osf" xMin="21" yMin="137" xMax="487" yMax="509">
      <contour>
        <pt x="300" y="341" on="0"/>
        <pt x="253" y="361" on="0"/>
        <pt x="224" y="379" on="1"/>
        <pt x="205" y="391" on="0"/>
        <pt x="182" y="402" on="0"/>
        <pt x="169" y="402" on="1"/>
        <pt x="145" y="402" on="0"/>
        <pt x="115" y="375" on="0"/>
        <pt x="98" y="350" on="1"/>
        <pt x="21" y="389" on="1"/>
        <pt x="47" y="442" on="0"/>
        <pt x="120" y="509" on="0"/>
        <pt x="176" y="509" on="1"/>
        <pt x="209" y="509" on="0"/>
        <pt x="256" y="489" on="0"/>
        <pt x="283" y="472" on="1"/>
        <pt x="302" y="460" on="0"/>
        <pt x="327" y="448" on="0"/>
        <pt x="340" y="448" on="1"/>
        <pt x="364" y="448" on="0"/>
        <pt x="394" y="472" on="0"/>
        <pt x="411" y="496" on="1"/>
        <pt x="487" y="458" on="1"/>
        <pt x="462" y="406" on="0"/>
        <pt x="389" y="341" on="0"/>
        <pt x="334" y="341" on="1"/>
      </contour>
      <contour>
        <pt x="300" y="137" on="0"/>
        <pt x="253" y="157" on="0"/>
        <pt x="224" y="175" on="1"/>
        <pt x="205" y="187" on="0"/>
        <pt x="182" y="198" on="0"/>
        <pt x="169" y="198" on="1"/>
        <pt x="145" y="198" on="0"/>
        <pt x="115" y="171" on="0"/>
        <pt x="98" y="146" on="1"/>
        <pt x="21" y="185" on="1"/>
        <pt x="47" y="238" on="0"/>
        <pt x="120" y="305" on="0"/>
        <pt x="176" y="305" on="1"/>
        <pt x="209" y="305" on="0"/>
        <pt x="256" y="285" on="0"/>
        <pt x="283" y="268" on="1"/>
        <pt x="302" y="256" on="0"/>
        <pt x="327" y="244" on="0"/>
        <pt x="340" y="244" on="1"/>
        <pt x="364" y="244" on="0"/>
        <pt x="394" y="268" on="0"/>
        <pt x="411" y="292" on="1"/>
        <pt x="487" y="254" on="1"/>
        <pt x="462" y="202" on="0"/>
        <pt x="389" y="137" on="0"/>
        <pt x="334" y="137" on="1"/>
      </contour>
    </TTGlyph>
    <TTGlyph name="approxequal.tosf" xMin="47" yMin="137" xMax="513" yMax="509">
      <contour>
        <pt x="326" y="341" on="0"/>
        <pt x="279" y="361" on="0"/>
        <pt x="250" y="379" on="1"/>
        <pt x="231" y="391" on="0"/>
        <pt x="208" y="402" on="0"/>
        <pt x="195" y="402" on="1"/>
        <pt x="171" y="402" on="0"/>
        <pt x="141" y="375" on="0"/>
        <pt x="124" y="350" on="1"/>
        <pt x="47" y="389" on="1"/>
        <pt x="73" y="442" on="0"/>
        <pt x="146" y="509" on="0"/>
        <pt x="202" y="509" on="1"/>
        <pt x="235" y="509" on="0"/>
        <pt x="282" y="489" on="0"/>
        <pt x="309" y="472" on="1"/>
        <pt x="328" y="460" on="0"/>
        <pt x="353" y="448" on="0"/>
        <pt x="366" y="448" on="1"/>
        <pt x="390" y="448" on="0"/>
        <pt x="420" y="472" on="0"/>
        <pt x="437" y="496" on="1"/>
        <pt x="513" y="458" on="1"/>
        <pt x="488" y="406" on="0"/>
        <pt x="415" y="341" on="0"/>
        <pt x="360" y="341" on="1"/>
      </contour>
      <contour>
        <pt x="326" y="137" on="0"/>
        <pt x="279" y="157" on="0"/>
        <pt x="250" y="175" on="1"/>
        <pt x="231" y="187" on="0"/>
        <pt x="208" y="198" on="0"/>
        <pt x="195" y="198" on="1"/>
        <pt x="171" y="198" on="0"/>
        <pt x="141" y="171" on="0"/>
        <pt x="124" y="146" on="1"/>
        <pt x="47" y="185" on="1"/>
        <pt x="73" y="238" on="0"/>
        <pt x="146" y="305" on="0"/>
        <pt x="202" y="305" on="1"/>
        <pt x="235" y="305" on="0"/>
        <pt x="282" y="285" on="0"/>
        <pt x="309" y="268" on="1"/>
        <pt x="328" y="256" on="0"/>
        <pt x="353" y="244" on="0"/>
        <pt x="366" y="244" on="1"/>
        <pt x="390" y="244" on="0"/>
        <pt x="420" y="268" on="0"/>
        <pt x="437" y="292" on="1"/>
        <pt x="513" y="254" on="1"/>
        <pt x="488" y="202" on="0"/>
        <pt x="415" y="137" on="0"/>
        <pt x="360" y="137" on="1"/>
      </contour>
    </TTGlyph>
    <TTGlyph name="aring" xMin="31" yMin="-16" xMax="514" yMax="860">
      <component glyphName="a" x="0" y="0" flags="0x0"/>
      <component glyphName="uni030A" x="432" y="0" flags="0x0"/>
    </TTGlyph>
    <TTGlyph name="aring.sc" xMin="-9" yMin="0" xMax="524" yMax="890">
      <component glyphName="a.sc" x="0" y="0" flags="0x0"/>
      <component glyphName="uni030A.sc" x="95" y="0" flags="0x0"/>
    </TTGlyph>
    <TTGlyph name="aringacute" xMin="31" yMin="-16" xMax="514" yMax="1026">
      <contour>
        <pt x="171" y="833" on="1"/>
        <pt x="135" y="906" on="1"/>
        <pt x="350" y="1026" on="1"/>
        <pt x="405" y="918" on="1"/>
      </contour>
      <contour>
        <pt x="209" y="578" on="0"/>
        <pt x="135" y="651" on="0"/>
        <pt x="135" y="704" on="1"/>
        <pt x="135" y="756" on="0"/>
        <pt x="209" y="829" on="0"/>
        <pt x="268" y="829" on="1"/>
        <pt x="327" y="829" on="0"/>
        <pt x="401" y="756" on="0"/>
        <pt x="401" y="704" on="1"/>
        <pt x="401" y="651" on="0"/>
        <pt x="327" y="578" on="0"/>
        <pt x="268" y="578" on="1"/>
      </contour>
      <contour>
        <pt x="247" y="755" on="0"/>
        <pt x="221" y="728" on="0"/>
        <pt x="221" y="704" on="1"/>
        <pt x="221" y="679" on="0"/>
        <pt x="246" y="652" on="0"/>
        <pt x="268" y="652" on="1"/>
        <pt x="290" y="652" on="0"/>
        <pt x="315" y="679" on="0"/>
        <pt x="315" y="704" on="1"/>
        <pt x="315" y="728" on="0"/>
        <pt x="289" y="755" on="0"/>
        <pt x="268" y="755" on="1"/>
      </contour>
      <contour>
        <pt x="475" y="116" on="0"/>
        <pt x="493" y="87" on="0"/>
        <pt x="514" y="80" on="1"/>
        <pt x="484" y="-14" on="1"/>
        <pt x="437" y="-9" on="0"/>
        <pt x="378" y="26" on="0"/>
        <pt x="362" y="63" on="1"/>
        <pt x="309" y="-16" on="0"/>
        <pt x="203" y="-16" on="1"/>
        <pt x="124" y="-16" on="0"/>
        <pt x="31" y="75" on="0"/>
        <pt x="31" y="148" on="1"/>
        <pt x="31" y="235" on="0"/>
        <pt x="157" y="327" on="0"/>
        <pt x="275" y="327" on="1"/>
        <pt x="336" y="327" on="1"/>
        <pt x="336" y="353" on="1"/>
        <pt x="336" y="402" on="0"/>
        <pt x="292" y="440" on="0"/>
        <pt x="241" y="440" on="1"/>
        <pt x="185" y="440" on="0"/>
        <pt x="101" y="412" on="1"/>
        <pt x="69" y="507" on="1"/>
        <pt x="168" y="546" on="0"/>
        <pt x="265" y="546" on="1"/>
        <pt x="373" y="546" on="0"/>
        <pt x="475" y="453" on="0"/>
        <pt x="475" y="361" on="1"/>
        <pt x="475" y="147" on="1"/>
      </contour>
      <contour>
        <pt x="302" y="86" on="0"/>
        <pt x="336" y="145" on="1"/>
        <pt x="336" y="246" on="1"/>
        <pt x="289" y="246" on="1"/>
        <pt x="174" y="246" on="0"/>
        <pt x="174" y="160" on="1"/>
        <pt x="174" y="125" on="0"/>
        <pt x="209" y="86" on="0"/>
        <pt x="242" y="86" on="1"/>
      </contour>
    </TTGlyph>
    <TTGlyph name="aringacute.sc" xMin="-9" yMin="0" xMax="524" yMax="1045">
      <contour>
        <pt x="161" y="852" on="1"/>
        <pt x="125" y="925" on="1"/>
        <pt x="340" y="1045" on="1"/>
        <pt x="395" y="937" on="1"/>
      </contour>
      <contour>
        <pt x="199" y="597" on="0"/>
        <pt x="125" y="670" on="0"/>
        <pt x="125" y="723" on="1"/>
        <pt x="125" y="775" on="0"/>
        <pt x="199" y="848" on="0"/>
        <pt x="258" y="848" on="1"/>
        <pt x="317" y="848" on="0"/>
        <pt x="391" y="775" on="0"/>
        <pt x="391" y="723" on="1"/>
        <pt x="391" y="670" on="0"/>
        <pt x="317" y="597" on="0"/>
        <pt x="258" y="597" on="1"/>
      </contour>
      <contour>
        <pt x="237" y="774" on="0"/>
        <pt x="211" y="747" on="0"/>
        <pt x="211" y="723" on="1"/>
        <pt x="211" y="698" on="0"/>
        <pt x="236" y="671" on="0"/>
        <pt x="258" y="671" on="1"/>
        <pt x="280" y="671" on="0"/>
        <pt x="305" y="698" on="0"/>
        <pt x="305" y="723" on="1"/>
        <pt x="305" y="747" on="0"/>
        <pt x="279" y="774" on="0"/>
        <pt x="258" y="774" on="1"/>
      </contour>
      <contour>
        <pt x="345" y="120" on="1"/>
        <pt x="169" y="120" on="1"/>
        <pt x="138" y="0" on="1"/>
        <pt x="-9" y="0" on="1"/>
        <pt x="173" y="567" on="1"/>
        <pt x="343" y="567" on="1"/>
        <pt x="524" y="0" on="1"/>
        <pt x="375" y="0" on="1"/>
      </contour>
      <contour>
        <pt x="319" y="222" on="1"/>
        <pt x="256" y="466" on="1"/>
        <pt x="194" y="222" on="1"/>
      </contour>
    </TTGlyph>
    <TTGlyph name="arrowboth" xMin="86" yMin="1" xMax="1194" yMax="657">
      <contour>
        <pt x="1194" y="329" on="1"/>
        <pt x="899" y="1" on="1"/>
        <pt x="804" y="82" on="1"/>
        <pt x="907" y="194" on="1"/>
        <pt x="933" y="221" on="0"/>
        <pt x="974" y="257" on="0"/>
        <pt x="998" y="271" on="1"/>
        <pt x="282" y="271" on="1"/>
        <pt x="306" y="257" on="0"/>
        <pt x="347" y="221" on="0"/>
        <pt x="373" y="194" on="1"/>
        <pt x="476" y="82" on="1"/>
        <pt x="381" y="1" on="1"/>
        <pt x="86" y="329" on="1"/>
        <pt x="381" y="657" on="1"/>
        <pt x="476" y="576" on="1"/>
        <pt x="373" y="464" on="1"/>
        <pt x="347" y="435" on="0"/>
        <pt x="309" y="403" on="0"/>
        <pt x="282" y="387" on="1"/>
        <pt x="998" y="387" on="1"/>
        <pt x="971" y="403" on="0"/>
        <pt x="933" y="435" on="0"/>
        <pt x="907" y="464" on="1"/>
        <pt x="804" y="576" on="1"/>
        <pt x="899" y="657" on="1"/>
      </contour>
    </TTGlyph>
    <TTGlyph name="arrowdown" xMin="117" yMin="-47" xMax="783" yMax="650">
      <contour>
        <pt x="516" y="141" on="1"/>
        <pt x="529" y="169" on="0"/>
        <pt x="560" y="207" on="0"/>
        <pt x="588" y="232" on="1"/>
        <pt x="703" y="339" on="1"/>
        <pt x="783" y="254" on="1"/>
        <pt x="450" y="-47" on="1"/>
        <pt x="117" y="254" on="1"/>
        <pt x="197" y="339" on="1"/>
        <pt x="312" y="232" on="1"/>
        <pt x="340" y="207" on="0"/>
        <pt x="371" y="169" on="0"/>
        <pt x="384" y="141" on="1"/>
        <pt x="384" y="650" on="1"/>
        <pt x="516" y="650" on="1"/>
      </contour>
    </TTGlyph>
    <TTGlyph name="arrowleft" xMin="86" yMin="1" xMax="799" yMax="657">
      <contour>
        <pt x="476" y="576" on="1"/>
        <pt x="373" y="464" on="1"/>
        <pt x="347" y="435" on="0"/>
        <pt x="309" y="403" on="0"/>
        <pt x="282" y="387" on="1"/>
        <pt x="799" y="387" on="1"/>
        <pt x="799" y="271" on="1"/>
        <pt x="282" y="271" on="1"/>
        <pt x="306" y="257" on="0"/>
        <pt x="347" y="221" on="0"/>
        <pt x="373" y="194" on="1"/>
        <pt x="476" y="82" on="1"/>
        <pt x="381" y="1" on="1"/>
        <pt x="86" y="329" on="1"/>
        <pt x="381" y="657" on="1"/>
      </contour>
    </TTGlyph>
    <TTGlyph name="arrowright" xMin="101" yMin="1" xMax="814" yMax="657">
      <component glyphName="arrowleft" x="900" y="0" scalex="-1.0" scaley="1.0" flags="0x0"/>
    </TTGlyph>
    <TTGlyph name="arrowup" xMin="117" yMin="0" xMax="783" yMax="697">
      <component glyphName="arrowdown" x="900" y="650" scale="-1.0" flags="0x0"/>
    </TTGlyph>
    <TTGlyph name="arrowupdn" xMin="117" yMin="-214" xMax="783" yMax="885">
      <contour>
        <pt x="783" y="584" on="1"/>
        <pt x="703" y="499" on="1"/>
        <pt x="588" y="606" on="1"/>
        <pt x="560" y="631" on="0"/>
        <pt x="529" y="669" on="0"/>
        <pt x="516" y="697" on="1"/>
        <pt x="516" y="-26" on="1"/>
        <pt x="529" y="2" on="0"/>
        <pt x="560" y="40" on="0"/>
        <pt x="588" y="65" on="1"/>
        <pt x="703" y="171" on="1"/>
        <pt x="783" y="87" on="1"/>
        <pt x="450" y="-214" on="1"/>
        <pt x="117" y="87" on="1"/>
        <pt x="197" y="171" on="1"/>
        <pt x="312" y="65" on="1"/>
        <pt x="340" y="40" on="0"/>
        <pt x="371" y="2" on="0"/>
        <pt x="384" y="-26" on="1"/>
        <pt x="384" y="697" on="1"/>
        <pt x="371" y="669" on="0"/>
        <pt x="340" y="631" on="0"/>
        <pt x="312" y="606" on="1"/>
        <pt x="197" y="499" on="1"/>
        <pt x="117" y="584" on="1"/>
        <pt x="450" y="885" on="1"/>
      </contour>
    </TTGlyph>
    <TTGlyph name="asciicircum" xMin="23" yMin="527" xMax="531" yMax="843">
      <contour>
        <pt x="531" y="527" on="1"/>
        <pt x="390" y="527" on="1"/>
        <pt x="276" y="734" on="1"/>
        <pt x="166" y="527" on="1"/>
        <pt x="23" y="527" on="1"/>
        <pt x="212" y="843" on="1"/>
        <pt x="342" y="843" on="1"/>
      </contour>
    </TTGlyph>
    <TTGlyph name="asciitilde" xMin="45" yMin="236" xMax="511" yMax="404">
      <component glyphName="asciitilde.lf" x="24" y="0" flags="0x0"/>
    </TTGlyph>
    <TTGlyph name="asciitilde.lf" xMin="21" yMin="236" xMax="487" yMax="404">
      <contour>
        <pt x="300" y="236" on="0"/>
        <pt x="253" y="256" on="0"/>
        <pt x="224" y="274" on="1"/>
        <pt x="205" y="286" on="0"/>
        <pt x="182" y="297" on="0"/>
        <pt x="169" y="297" on="1"/>
        <pt x="145" y="297" on="0"/>
        <pt x="115" y="270" on="0"/>
        <pt x="98" y="245" on="1"/>
        <pt x="21" y="284" on="1"/>
        <pt x="47" y="337" on="0"/>
        <pt x="120" y="404" on="0"/>
        <pt x="176" y="404" on="1"/>
        <pt x="209" y="404" on="0"/>
        <pt x="256" y="384" on="0"/>
        <pt x="283" y="367" on="1"/>
        <pt x="302" y="355" on="0"/>
        <pt x="327" y="343" on="0"/>
        <pt x="340" y="343" on="1"/>
        <pt x="364" y="343" on="0"/>
        <pt x="394" y="367" on="0"/>
        <pt x="411" y="391" on="1"/>
        <pt x="487" y="353" on="1"/>
        <pt x="462" y="301" on="0"/>
        <pt x="389" y="236" on="0"/>
        <pt x="334" y="236" on="1"/>
      </contour>
    </TTGlyph>
    <TTGlyph name="asciitilde.osf" xMin="21" yMin="236" xMax="487" yMax="404">
      <component glyphName="asciitilde.lf" x="0" y="0" flags="0x0"/>
    </TTGlyph>
    <TTGlyph name="asciitilde.tosf" xMin="47" yMin="236" xMax="513" yMax="404">
      <component glyphName="asciitilde.lf" x="26" y="0" flags="0x0"/>
    </TTGlyph>
    <TTGlyph name="asterisk" xMin="11" yMin="336" xMax="436" yMax="741">
      <contour>
        <pt x="292" y="516" on="1"/>
        <pt x="394" y="411" on="1"/>
        <pt x="293" y="337" on="1"/>
        <pt x="223" y="466" on="1"/>
        <pt x="155" y="336" on="1"/>
        <pt x="54" y="410" on="1"/>
        <pt x="155" y="516" on="1"/>
        <pt x="11" y="541" on="1"/>
        <pt x="49" y="657" on="1"/>
        <pt x="180" y="594" on="1"/>
        <pt x="161" y="741" on="1"/>
        <pt x="286" y="741" on="1"/>
        <pt x="266" y="593" on="1"/>
        <pt x="397" y="658" on="1"/>
        <pt x="436" y="542" on="1"/>
      </contour>
    </TTGlyph>
    <TTGlyph name="at" xMin="53" yMin="-220" xMax="967" yMax="708">
      <contour>
        <pt x="615" y="500" on="0"/>
        <pt x="696" y="456" on="1"/>
        <pt x="696" y="207" on="1"/>
        <pt x="696" y="146" on="0"/>
        <pt x="720" y="97" on="0"/>
        <pt x="748" y="97" on="1"/>
        <pt x="790" y="97" on="0"/>
        <pt x="837" y="197" on="0"/>
        <pt x="837" y="312" on="1"/>
        <pt x="837" y="449" on="0"/>
        <pt x="680" y="602" on="0"/>
        <pt x="526" y="602" on="1"/>
        <pt x="420" y="602" on="0"/>
        <pt x="265" y="511" on="0"/>
        <pt x="184" y="348" on="0"/>
        <pt x="184" y="242" on="1"/>
        <pt x="184" y="134" on="0"/>
        <pt x="263" y="-26" on="0"/>
        <pt x="417" y="-113" on="0"/>
        <pt x="527" y="-113" on="1"/>
        <pt x="577" y="-113" on="0"/>
        <pt x="680" y="-93" on="0"/>
        <pt x="722" y="-78" on="1"/>
        <pt x="757" y="-178" on="1"/>
        <pt x="645" y="-220" on="0"/>
        <pt x="526" y="-220" on="1"/>
        <pt x="385" y="-220" on="0"/>
        <pt x="170" y="-107" on="0"/>
        <pt x="53" y="102" on="0"/>
        <pt x="53" y="241" on="1"/>
        <pt x="53" y="374" on="0"/>
        <pt x="174" y="587" on="0"/>
        <pt x="390" y="708" on="0"/>
        <pt x="526" y="708" on="1"/>
        <pt x="662" y="708" on="0"/>
        <pt x="862" y="599" on="0"/>
        <pt x="967" y="419" on="0"/>
        <pt x="967" y="314" on="1"/>
        <pt x="967" y="225" on="0"/>
        <pt x="915" y="85" on="0"/>
        <pt x="819" y="5" on="0"/>
        <pt x="753" y="5" on="1"/>
        <pt x="698" y="5" on="0"/>
        <pt x="631" y="66" on="0"/>
        <pt x="621" y="107" on="1"/>
        <pt x="602" y="63" on="0"/>
        <pt x="530" y="9" on="0"/>
        <pt x="478" y="9" on="1"/>
        <pt x="390" y="9" on="0"/>
        <pt x="298" y="131" on="0"/>
        <pt x="298" y="232" on="1"/>
        <pt x="298" y="357" on="0"/>
        <pt x="420" y="500" on="0"/>
        <pt x="527" y="500" on="1"/>
      </contour>
      <contour>
        <pt x="548" y="100" on="0"/>
        <pt x="575" y="158" on="1"/>
        <pt x="575" y="398" on="1"/>
        <pt x="548" y="409" on="0"/>
        <pt x="523" y="409" on="1"/>
        <pt x="476" y="409" on="0"/>
        <pt x="427" y="325" on="0"/>
        <pt x="427" y="232" on="1"/>
        <pt x="427" y="162" on="0"/>
        <pt x="460" y="100" on="0"/>
        <pt x="496" y="100" on="1"/>
      </contour>
    </TTGlyph>
    <TTGlyph name="atilde" xMin="31" yMin="-16" xMax="514" yMax="788">
      <component glyphName="a" x="0" y="0" flags="0x0"/>
      <component glyphName="tildecomb" x="482" y="0" flags="0x0"/>
    </TTGlyph>
    <TTGlyph name="atilde.sc" xMin="-9" yMin="0" xMax="524" yMax="818">
      <component glyphName="a.sc" x="0" y="0" flags="0x0"/>
      <component glyphName="tildecomb.sc" x="45" y="0" flags="0x0"/>
    </TTGlyph>
    <TTGlyph name="b" xMin="70" yMin="-16" xMax="553" yMax="757">
      <contour>
        <pt x="450" y="546" on="0"/>
        <pt x="553" y="398" on="0"/>
        <pt x="553" y="265" on="1"/>
        <pt x="553" y="183" on="0"/>
        <pt x="502" y="56" on="0"/>
        <pt x="407" y="-16" on="0"/>
        <pt x="343" y="-16" on="1"/>
        <pt x="257" y="-16" on="0"/>
        <pt x="204" y="52" on="1"/>
        <pt x="196" y="0" on="1"/>
        <pt x="70" y="0" on="1"/>
        <pt x="70" y="741" on="1"/>
        <pt x="212" y="757" on="1"/>
        <pt x="212" y="473" on="1"/>
        <pt x="237" y="507" on="0"/>
        <pt x="312" y="546" on="0"/>
        <pt x="354" y="546" on="1"/>
      </contour>
      <contour>
        <pt x="351" y="89" on="0"/>
        <pt x="405" y="173" on="0"/>
        <pt x="405" y="265" on="1"/>
        <pt x="405" y="362" on="0"/>
        <pt x="356" y="441" on="0"/>
        <pt x="310" y="441" on="1"/>
        <pt x="253" y="441" on="0"/>
        <pt x="212" y="373" on="1"/>
        <pt x="212" y="145" on="1"/>
        <pt x="229" y="118" on="0"/>
        <pt x="276" y="89" on="0"/>
        <pt x="304" y="89" on="1"/>
      </contour>
    </TTGlyph>
    <TTGlyph name="b.sc" xMin="73" yMin="0" xMax="528" yMax="567">
      <contour>
        <pt x="452" y="289" on="0"/>
        <pt x="528" y="228" on="0"/>
        <pt x="528" y="166" on="1"/>
        <pt x="528" y="75" on="0"/>
        <pt x="391" y="0" on="0"/>
        <pt x="267" y="0" on="1"/>
        <pt x="73" y="0" on="1"/>
        <pt x="73" y="567" on="1"/>
        <pt x="243" y="567" on="1"/>
        <pt x="369" y="567" on="0"/>
        <pt x="502" y="498" on="0"/>
        <pt x="502" y="420" on="1"/>
        <pt x="502" y="329" on="0"/>
        <pt x="393" y="301" on="1"/>
      </contour>
      <contour>
        <pt x="215" y="468" on="1"/>
        <pt x="215" y="343" on="1"/>
        <pt x="268" y="343" on="1"/>
        <pt x="312" y="343" on="0"/>
        <pt x="359" y="375" on="0"/>
        <pt x="359" y="406" on="1"/>
        <pt x="359" y="440" on="0"/>
        <pt x="309" y="468" on="0"/>
        <pt x="256" y="468" on="1"/>
      </contour>
      <contour>
        <pt x="324" y="102" on="0"/>
        <pt x="381" y="132" on="0"/>
        <pt x="381" y="174" on="1"/>
        <pt x="381" y="250" on="0"/>
        <pt x="277" y="250" on="1"/>
        <pt x="215" y="250" on="1"/>
        <pt x="215" y="102" on="1"/>
        <pt x="268" y="102" on="1"/>
      </contour>
    </TTGlyph>
    <TTGlyph name="backslash" xMin="81" yMin="-110" xMax="439" yMax="814">
      <contour>
        <pt x="439" y="-81" on="1"/>
        <pt x="315" y="-110" on="1"/>
        <pt x="81" y="786" on="1"/>
        <pt x="204" y="814" on="1"/>
      </contour>
    </TTGlyph>
    <TTGlyph name="bar" xMin="126" yMin="-104" xMax="257" yMax="809">
      <contour>
        <pt x="257" y="-104" on="1"/>
        <pt x="126" y="-104" on="1"/>
        <pt x="126" y="809" on="1"/>
        <pt x="257" y="809" on="1"/>
      </contour>
    </TTGlyph>
    <TTGlyph name="beta" xMin="70" yMin="-220" xMax="575" yMax="757">
      <contour>
        <pt x="461" y="396" on="0"/>
        <pt x="575" y="308" on="0"/>
        <pt x="575" y="206" on="1"/>
        <pt x="575" y="141" on="0"/>
        <pt x="516" y="40" on="0"/>
        <pt x="412" y="-16" on="0"/>
        <pt x="346" y="-16" on="1"/>
        <pt x="273" y="-16" on="0"/>
        <pt x="208" y="31" on="1"/>
        <pt x="208" y="-201" on="1"/>
        <pt x="70" y="-220" on="1"/>
        <pt x="70" y="545" on="1"/>
        <pt x="70" y="644" on="0"/>
        <pt x="195" y="757" on="0"/>
        <pt x="298" y="757" on="1"/>
        <pt x="364" y="757" on="0"/>
        <pt x="465" y="710" on="0"/>
        <pt x="520" y="626" on="0"/>
        <pt x="520" y="572" on="1"/>
        <pt x="520" y="504" on="0"/>
        <pt x="446" y="419" on="0"/>
        <pt x="379" y="405" on="1"/>
      </contour>
      <contour>
        <pt x="365" y="94" on="0"/>
        <pt x="432" y="156" on="0"/>
        <pt x="432" y="216" on="1"/>
        <pt x="432" y="285" on="0"/>
        <pt x="359" y="349" on="0"/>
        <pt x="293" y="349" on="1"/>
        <pt x="251" y="349" on="1"/>
        <pt x="261" y="447" on="1"/>
        <pt x="291" y="447" on="1"/>
        <pt x="333" y="447" on="0"/>
        <pt x="383" y="503" on="0"/>
        <pt x="383" y="557" on="1"/>
        <pt x="383" y="606" on="0"/>
        <pt x="337" y="655" on="0"/>
        <pt x="296" y="655" on="1"/>
        <pt x="208" y="655" on="0"/>
        <pt x="208" y="546" on="1"/>
        <pt x="208" y="122" on="1"/>
        <pt x="252" y="94" on="0"/>
        <pt x="315" y="94" on="1"/>
      </contour>
    </TTGlyph>
    <TTGlyph name="beta.sc" xMin="73" yMin="0" xMax="528" yMax="567">
      <component glyphName="b.sc" x="0" y="0" flags="0x0"/>
    </TTGlyph>
    <TTGlyph name="braceleft" xMin="13" yMin="-139" xMax="293" yMax="839">
      <contour>
        <pt x="293" y="738" on="1"/>
        <pt x="247" y="738" on="0"/>
        <pt x="212" y="711" on="0"/>
        <pt x="212" y="677" on="1"/>
        <pt x="212" y="478" on="1"/>
        <pt x="212" y="418" on="0"/>
        <pt x="165" y="362" on="0"/>
        <pt x="115" y="349" on="1"/>
        <pt x="165" y="337" on="0"/>
        <pt x="213" y="282" on="0"/>
        <pt x="213" y="222" on="1"/>
        <pt x="213" y="23" on="1"/>
        <pt x="213" y="-11" on="0"/>
        <pt x="248" y="-38" on="0"/>
        <pt x="293" y="-38" on="1"/>
        <pt x="293" y="-139" on="1"/>
        <pt x="210" y="-139" on="0"/>
        <pt x="117" y="-104" on="0"/>
        <pt x="79" y="-34" on="0"/>
        <pt x="79" y="22" on="1"/>
        <pt x="79" y="211" on="1"/>
        <pt x="79" y="256" on="0"/>
        <pt x="51" y="291" on="0"/>
        <pt x="13" y="291" on="1"/>
        <pt x="13" y="408" on="1"/>
        <pt x="51" y="408" on="0"/>
        <pt x="79" y="444" on="0"/>
        <pt x="79" y="489" on="1"/>
        <pt x="79" y="678" on="1"/>
        <pt x="79" y="735" on="0"/>
        <pt x="117" y="804" on="0"/>
        <pt x="210" y="839" on="0"/>
        <pt x="293" y="839" on="1"/>
      </contour>
    </TTGlyph>
    <TTGlyph name="braceleft.case" xMin="13" yMin="-149" xMax="293" yMax="829">
      <component glyphName="braceleft" x="0" y="-10" flags="0x0"/>
    </TTGlyph>
    <TTGlyph name="braceright" xMin="31" yMin="-139" xMax="310" yMax="839">
      <contour>
        <pt x="114" y="839" on="0"/>
        <pt x="207" y="804" on="0"/>
        <pt x="244" y="735" on="0"/>
        <pt x="244" y="678" on="1"/>
        <pt x="244" y="489" on="1"/>
        <pt x="244" y="444" on="0"/>
        <pt x="272" y="408" on="0"/>
        <pt x="310" y="408" on="1"/>
        <pt x="310" y="291" on="1"/>
        <pt x="272" y="291" on="0"/>
        <pt x="244" y="256" on="0"/>
        <pt x="244" y="211" on="1"/>
        <pt x="244" y="22" on="1"/>
        <pt x="244" y="-34" on="0"/>
        <pt x="207" y="-104" on="0"/>
        <pt x="114" y="-139" on="0"/>
        <pt x="31" y="-139" on="1"/>
        <pt x="31" y="-38" on="1"/>
        <pt x="76" y="-38" on="0"/>
        <pt x="111" y="-11" on="0"/>
        <pt x="111" y="23" on="1"/>
        <pt x="111" y="222" on="1"/>
        <pt x="111" y="282" on="0"/>
        <pt x="159" y="337" on="0"/>
        <pt x="208" y="349" on="1"/>
        <pt x="158" y="362" on="0"/>
        <pt x="111" y="418" on="0"/>
        <pt x="111" y="478" on="1"/>
        <pt x="111" y="677" on="1"/>
        <pt x="111" y="711" on="0"/>
        <pt x="76" y="738" on="0"/>
        <pt x="31" y="738" on="1"/>
        <pt x="31" y="839" on="1"/>
      </contour>
    </TTGlyph>
    <TTGlyph name="braceright.case" xMin="31" yMin="-149" xMax="310" yMax="829">
      <component glyphName="braceright" x="0" y="-10" flags="0x0"/>
    </TTGlyph>
    <TTGlyph name="bracketleft" xMin="41" yMin="-121" xMax="292" yMax="821">
      <contour>
        <pt x="292" y="713" on="1"/>
        <pt x="176" y="713" on="1"/>
        <pt x="176" y="-14" on="1"/>
        <pt x="292" y="-14" on="1"/>
        <pt x="292" y="-121" on="1"/>
        <pt x="41" y="-121" on="1"/>
        <pt x="41" y="821" on="1"/>
        <pt x="292" y="821" on="1"/>
      </contour>
    </TTGlyph>
    <TTGlyph name="bracketleft.case" xMin="41" yMin="-131" xMax="292" yMax="811">
      <component glyphName="bracketleft" x="0" y="-10" flags="0x0"/>
    </TTGlyph>
    <TTGlyph name="bracketright" xMin="31" yMin="-121" xMax="282" yMax="821">
      <contour>
        <pt x="282" y="-121" on="1"/>
        <pt x="31" y="-121" on="1"/>
        <pt x="31" y="-14" on="1"/>
        <pt x="147" y="-14" on="1"/>
        <pt x="147" y="714" on="1"/>
        <pt x="31" y="714" on="1"/>
        <pt x="31" y="821" on="1"/>
        <pt x="282" y="821" on="1"/>
      </contour>
    </TTGlyph>
    <TTGlyph name="bracketright.case" xMin="31" yMin="-131" xMax="282" yMax="811">
      <component glyphName="bracketright" x="0" y="-10" flags="0x0"/>
    </TTGlyph>
    <TTGlyph name="breve" xMin="30" yMin="635" xMax="365" yMax="813">
      <contour>
        <pt x="125" y="635" on="0"/>
        <pt x="36" y="726" on="0"/>
        <pt x="30" y="798" on="1"/>
        <pt x="111" y="813" on="1"/>
        <pt x="130" y="735" on="0"/>
        <pt x="197" y="735" on="1"/>
        <pt x="263" y="735" on="0"/>
        <pt x="284" y="813" on="1"/>
        <pt x="365" y="798" on="1"/>
        <pt x="359" y="726" on="0"/>
        <pt x="269" y="635" on="0"/>
        <pt x="197" y="635" on="1"/>
      </contour>
    </TTGlyph>
    <TTGlyph name="breve.case" xMin="30" yMin="752" xMax="365" yMax="920">
      <contour>
        <pt x="126" y="752" on="0"/>
        <pt x="36" y="840" on="0"/>
        <pt x="30" y="905" on="1"/>
        <pt x="111" y="920" on="1"/>
        <pt x="121" y="889" on="0"/>
        <pt x="163" y="853" on="0"/>
        <pt x="197" y="853" on="1"/>
        <pt x="230" y="853" on="0"/>
        <pt x="274" y="889" on="0"/>
        <pt x="284" y="920" on="1"/>
        <pt x="365" y="905" on="1"/>
        <pt x="359" y="840" on="0"/>
        <pt x="268" y="752" on="0"/>
        <pt x="197" y="752" on="1"/>
      </contour>
    </TTGlyph>
    <TTGlyph name="breve.sc" xMin="30" yMin="665" xMax="365" yMax="843">
      <component glyphName="uni0306" x="395" y="30" flags="0x0"/>
    </TTGlyph>
    <TTGlyph name="brevecy" xMin="30" yMin="635" xMax="365" yMax="795">
      <contour>
        <pt x="124" y="635" on="0"/>
        <pt x="36" y="714" on="0"/>
        <pt x="30" y="780" on="1"/>
        <pt x="111" y="795" on="1"/>
        <pt x="120" y="763" on="0"/>
        <pt x="161" y="735" on="0"/>
        <pt x="197" y="735" on="1"/>
        <pt x="232" y="735" on="0"/>
        <pt x="274" y="763" on="0"/>
        <pt x="284" y="795" on="1"/>
        <pt x="365" y="780" on="1"/>
        <pt x="359" y="714" on="0"/>
        <pt x="270" y="635" on="0"/>
        <pt x="197" y="635" on="1"/>
      </contour>
    </TTGlyph>
    <TTGlyph name="brevecy.case" xMin="30" yMin="761" xMax="365" yMax="921">
      <contour>
        <pt x="124" y="761" on="0"/>
        <pt x="36" y="840" on="0"/>
        <pt x="30" y="906" on="1"/>
        <pt x="111" y="921" on="1"/>
        <pt x="120" y="889" on="0"/>
        <pt x="161" y="861" on="0"/>
        <pt x="197" y="861" on="1"/>
        <pt x="232" y="861" on="0"/>
        <pt x="274" y="889" on="0"/>
        <pt x="284" y="921" on="1"/>
        <pt x="365" y="906" on="1"/>
        <pt x="359" y="840" on="0"/>
        <pt x="270" y="761" on="0"/>
        <pt x="197" y="761" on="1"/>
      </contour>
    </TTGlyph>
    <TTGlyph name="brevecy.sc" xMin="30" yMin="665" xMax="365" yMax="825">
      <contour>
        <pt x="124" y="665" on="0"/>
        <pt x="36" y="744" on="0"/>
        <pt x="30" y="810" on="1"/>
        <pt x="111" y="825" on="1"/>
        <pt x="120" y="793" on="0"/>
        <pt x="161" y="765" on="0"/>
        <pt x="197" y="765" on="1"/>
        <pt x="232" y="765" on="0"/>
        <pt x="274" y="793" on="0"/>
        <pt x="284" y="825" on="1"/>
        <pt x="365" y="810" on="1"/>
        <pt x="359" y="744" on="0"/>
        <pt x="270" y="665" on="0"/>
        <pt x="197" y="665" on="1"/>
      </contour>
    </TTGlyph>
    <TTGlyph name="brokenbar" xMin="126" yMin="-104" xMax="257" yMax="809">
      <contour>
        <pt x="257" y="443" on="1"/>
        <pt x="126" y="443" on="1"/>
        <pt x="126" y="809" on="1"/>
        <pt x="257" y="809" on="1"/>
      </contour>
      <contour>
        <pt x="257" y="-104" on="1"/>
        <pt x="126" y="-104" on="1"/>
        <pt x="126" y="262" on="1"/>
        <pt x="257" y="262" on="1"/>
      </contour>
    </TTGlyph>
    <TTGlyph name="bullet" xMin="39" yMin="210" xMax="302" yMax="473">
      <contour>
        <pt x="227" y="473" on="0"/>
        <pt x="302" y="397" on="0"/>
        <pt x="302" y="341" on="1"/>
        <pt x="302" y="285" on="0"/>
        <pt x="227" y="210" on="0"/>
        <pt x="170" y="210" on="1"/>
        <pt x="114" y="210" on="0"/>
        <pt x="39" y="286" on="0"/>
        <pt x="39" y="342" on="1"/>
        <pt x="39" y="398" on="0"/>
        <pt x="114" y="473" on="0"/>
        <pt x="170" y="473" on="1"/>
      </contour>
    </TTGlyph>
    <TTGlyph name="c" xMin="38" yMin="-16" xMax="467" yMax="546">
      <contour>
        <pt x="344" y="546" on="0"/>
        <pt x="429" y="515" on="0"/>
        <pt x="467" y="482" on="1"/>
        <pt x="405" y="398" on="1"/>
        <pt x="379" y="418" on="0"/>
        <pt x="330" y="436" on="0"/>
        <pt x="301" y="436" on="1"/>
        <pt x="188" y="436" on="0"/>
        <pt x="188" y="262" on="1"/>
        <pt x="188" y="174" on="0"/>
        <pt x="246" y="98" on="0"/>
        <pt x="300" y="98" on="1"/>
        <pt x="328" y="98" on="0"/>
        <pt x="374" y="115" on="0"/>
        <pt x="405" y="135" on="1"/>
        <pt x="467" y="46" on="1"/>
        <pt x="391" y="-16" on="0"/>
        <pt x="293" y="-16" on="1"/>
        <pt x="215" y="-16" on="0"/>
        <pt x="100" y="52" on="0"/>
        <pt x="38" y="177" on="0"/>
        <pt x="38" y="261" on="1"/>
        <pt x="38" y="345" on="0"/>
        <pt x="100" y="474" on="0"/>
        <pt x="215" y="546" on="0"/>
        <pt x="291" y="546" on="1"/>
      </contour>
    </TTGlyph>
    <TTGlyph name="c.sc" xMin="38" yMin="-14" xMax="501" yMax="580">
      <contour>
        <pt x="366" y="580" on="0"/>
        <pt x="454" y="548" on="0"/>
        <pt x="493" y="516" on="1"/>
        <pt x="424" y="435" on="1"/>
        <pt x="374" y="476" on="0"/>
        <pt x="317" y="476" on="1"/>
        <pt x="257" y="476" on="0"/>
        <pt x="186" y="381" on="0"/>
        <pt x="186" y="286" on="1"/>
        <pt x="186" y="189" on="0"/>
        <pt x="257" y="94" on="0"/>
        <pt x="320" y="94" on="1"/>
        <pt x="352" y="94" on="0"/>
        <pt x="404" y="118" on="0"/>
        <pt x="436" y="142" on="1"/>
        <pt x="501" y="60" on="1"/>
        <pt x="468" y="28" on="0"/>
        <pt x="371" y="-14" on="0"/>
        <pt x="311" y="-14" on="1"/>
        <pt x="229" y="-14" on="0"/>
        <pt x="106" y="55" on="0"/>
        <pt x="38" y="190" on="0"/>
        <pt x="38" y="286" on="1"/>
        <pt x="38" y="377" on="0"/>
        <pt x="108" y="510" on="0"/>
        <pt x="231" y="580" on="0"/>
        <pt x="308" y="580" on="1"/>
      </contour>
    </TTGlyph>
    <TTGlyph name="cacute" xMin="38" yMin="-16" xMax="467" yMax="827">
      <component glyphName="c" x="0" y="0" flags="0x0"/>
      <component glyphName="acutecomb" x="451" y="0" flags="0x0"/>
    </TTGlyph>
    <TTGlyph name="cacute.loclPLK" xMin="38" yMin="-16" xMax="467" yMax="802">
      <component glyphName="c" x="0" y="0" flags="0x0"/>
      <component glyphName="acute.loclPLK" x="125" y="0" flags="0x0"/>
    </TTGlyph>
    <TTGlyph name="cacute.sc" xMin="38" yMin="-14" xMax="501" yMax="857">
      <component glyphName="c.sc" x="0" y="0" flags="0x0"/>
      <component glyphName="acutecomb.sc" x="145" y="0" flags="0x0"/>
    </TTGlyph>
    <TTGlyph name="cacute.sc.loclPLK" xMin="38" yMin="-14" xMax="501" yMax="846">
      <component glyphName="c.sc" x="0" y="0" flags="0x0"/>
      <component glyphName="acute.sc.loclPLK" x="153" y="0" flags="0x0"/>
    </TTGlyph>
    <TTGlyph name="caron" xMin="30" yMin="615" xMax="398" yMax="806">
      <contour>
        <pt x="398" y="746" on="1"/>
        <pt x="258" y="615" on="1"/>
        <pt x="170" y="615" on="1"/>
        <pt x="30" y="746" on="1"/>
        <pt x="83" y="806" on="1"/>
        <pt x="214" y="717" on="1"/>
        <pt x="346" y="806" on="1"/>
      </contour>
    </TTGlyph>
    <TTGlyph name="caron.alt" xMin="65" yMin="484" xMax="197" yMax="707">
      <contour>
        <pt x="197" y="692" on="1"/>
        <pt x="143" y="484" on="1"/>
        <pt x="65" y="496" on="1"/>
        <pt x="87" y="707" on="1"/>
      </contour>
    </TTGlyph>
    <TTGlyph name="caron.case" xMin="30" yMin="751" xMax="398" yMax="935">
      <contour>
        <pt x="398" y="875" on="1"/>
        <pt x="258" y="751" on="1"/>
        <pt x="170" y="751" on="1"/>
        <pt x="30" y="875" on="1"/>
        <pt x="83" y="935" on="1"/>
        <pt x="214" y="852" on="1"/>
        <pt x="346" y="935" on="1"/>
      </contour>
    </TTGlyph>
    <TTGlyph name="caron.sc" xMin="30" yMin="645" xMax="398" yMax="836">
      <component glyphName="uni030C" x="428" y="30" flags="0x0"/>
    </TTGlyph>
    <TTGlyph name="ccaron" xMin="38" yMin="-16" xMax="474" yMax="806">
      <component glyphName="c" x="0" y="0" flags="0x0"/>
      <component glyphName="uni030C" x="504" y="0" flags="0x0"/>
    </TTGlyph>
    <TTGlyph name="ccaron.sc" xMin="38" yMin="-14" xMax="501" yMax="836">
      <component glyphName="c.sc" x="0" y="0" flags="0x0"/>
      <component glyphName="uni030C.sc" x="101" y="0" flags="0x0"/>
    </TTGlyph>
    <TTGlyph name="ccedilla" xMin="38" yMin="-257" xMax="467" yMax="546">
      <contour>
        <pt x="404" y="-6" on="0"/>
        <pt x="320" y="-15" on="1"/>
        <pt x="320" y="-50" on="1"/>
        <pt x="371" y="-55" on="0"/>
        <pt x="421" y="-106" on="0"/>
        <pt x="421" y="-146" on="1"/>
        <pt x="421" y="-196" on="0"/>
        <pt x="342" y="-257" on="0"/>
        <pt x="278" y="-257" on="1"/>
        <pt x="245" y="-257" on="0"/>
        <pt x="190" y="-241" on="0"/>
        <pt x="171" y="-228" on="1"/>
        <pt x="204" y="-160" on="1"/>
        <pt x="235" y="-177" on="0"/>
        <pt x="268" y="-177" on="1"/>
        <pt x="316" y="-177" on="0"/>
        <pt x="316" y="-145" on="1"/>
        <pt x="316" y="-126" on="0"/>
        <pt x="273" y="-109" on="0"/>
        <pt x="224" y="-109" on="1"/>
        <pt x="237" y="-11" on="1"/>
        <pt x="143" y="6" on="0"/>
        <pt x="38" y="150" on="0"/>
        <pt x="38" y="261" on="1"/>
        <pt x="38" y="345" on="0"/>
        <pt x="100" y="474" on="0"/>
        <pt x="215" y="546" on="0"/>
        <pt x="291" y="546" on="1"/>
        <pt x="344" y="546" on="0"/>
        <pt x="429" y="515" on="0"/>
        <pt x="467" y="482" on="1"/>
        <pt x="405" y="398" on="1"/>
        <pt x="379" y="418" on="0"/>
        <pt x="330" y="436" on="0"/>
        <pt x="301" y="436" on="1"/>
        <pt x="188" y="436" on="0"/>
        <pt x="188" y="262" on="1"/>
        <pt x="188" y="174" on="0"/>
        <pt x="246" y="98" on="0"/>
        <pt x="300" y="98" on="1"/>
        <pt x="328" y="98" on="0"/>
        <pt x="374" y="115" on="0"/>
        <pt x="405" y="135" on="1"/>
        <pt x="467" y="46" on="1"/>
      </contour>
    </TTGlyph>
    <TTGlyph name="ccedilla.sc" xMin="38" yMin="-257" xMax="501" yMax="580">
      <contour>
        <pt x="395" y="-55" on="0"/>
        <pt x="445" y="-106" on="0"/>
        <pt x="445" y="-146" on="1"/>
        <pt x="445" y="-196" on="0"/>
        <pt x="366" y="-257" on="0"/>
        <pt x="302" y="-257" on="1"/>
        <pt x="269" y="-257" on="0"/>
        <pt x="214" y="-241" on="0"/>
        <pt x="195" y="-228" on="1"/>
        <pt x="228" y="-160" on="1"/>
        <pt x="259" y="-177" on="0"/>
        <pt x="292" y="-177" on="1"/>
        <pt x="340" y="-177" on="0"/>
        <pt x="340" y="-145" on="1"/>
        <pt x="340" y="-126" on="0"/>
        <pt x="297" y="-109" on="0"/>
        <pt x="248" y="-109" on="1"/>
        <pt x="261" y="-11" on="1"/>
        <pt x="157" y="4" on="0"/>
        <pt x="38" y="157" on="0"/>
        <pt x="38" y="286" on="1"/>
        <pt x="38" y="377" on="0"/>
        <pt x="108" y="510" on="0"/>
        <pt x="231" y="580" on="0"/>
        <pt x="308" y="580" on="1"/>
        <pt x="366" y="580" on="0"/>
        <pt x="454" y="548" on="0"/>
        <pt x="493" y="516" on="1"/>
        <pt x="424" y="435" on="1"/>
        <pt x="374" y="476" on="0"/>
        <pt x="317" y="476" on="1"/>
        <pt x="257" y="476" on="0"/>
        <pt x="186" y="381" on="0"/>
        <pt x="186" y="286" on="1"/>
        <pt x="186" y="189" on="0"/>
        <pt x="257" y="94" on="0"/>
        <pt x="320" y="94" on="1"/>
        <pt x="352" y="94" on="0"/>
        <pt x="404" y="118" on="0"/>
        <pt x="436" y="142" on="1"/>
        <pt x="501" y="60" on="1"/>
        <pt x="472" y="32" on="0"/>
        <pt x="393" y="-7" on="0"/>
        <pt x="344" y="-12" on="1"/>
        <pt x="344" y="-50" on="1"/>
      </contour>
    </TTGlyph>
    <TTGlyph name="ccircumflex" xMin="38" yMin="-16" xMax="474" yMax="815">
      <component glyphName="c" x="0" y="0" flags="0x0"/>
      <component glyphName="uni0302" x="504" y="0" flags="0x0"/>
    </TTGlyph>
    <TTGlyph name="ccircumflex.sc" xMin="38" yMin="-14" xMax="501" yMax="845">
      <component glyphName="c.sc" x="0" y="0" flags="0x0"/>
      <component glyphName="uni0302.sc" x="101" y="0" flags="0x0"/>
    </TTGlyph>
    <TTGlyph name="cdotaccent" xMin="38" yMin="-16" xMax="467" yMax="803">
      <component glyphName="c" x="0" y="0" flags="0x0"/>
      <component glyphName="uni0307" x="407" y="0" flags="0x0"/>
    </TTGlyph>
    <TTGlyph name="cdotaccent.sc" xMin="38" yMin="-14" xMax="501" yMax="833">
      <component glyphName="c.sc" x="0" y="0" flags="0x0"/>
      <component glyphName="uni0307.sc" x="199" y="0" flags="0x0"/>
    </TTGlyph>
    <TTGlyph name="cedilla" xMin="30" yMin="-257" xMax="280" yMax="16">
      <contour>
        <pt x="179" y="-50" on="1"/>
        <pt x="230" y="-55" on="0"/>
        <pt x="280" y="-106" on="0"/>
        <pt x="280" y="-146" on="1"/>
        <pt x="280" y="-196" on="0"/>
        <pt x="201" y="-257" on="0"/>
        <pt x="137" y="-257" on="1"/>
        <pt x="104" y="-257" on="0"/>
        <pt x="49" y="-241" on="0"/>
        <pt x="30" y="-228" on="1"/>
        <pt x="63" y="-160" on="1"/>
        <pt x="94" y="-177" on="0"/>
        <pt x="127" y="-177" on="1"/>
        <pt x="175" y="-177" on="0"/>
        <pt x="175" y="-145" on="1"/>
        <pt x="175" y="-126" on="0"/>
        <pt x="132" y="-109" on="0"/>
        <pt x="83" y="-109" on="1"/>
        <pt x="99" y="16" on="1"/>
        <pt x="179" y="16" on="1"/>
      </contour>
    </TTGlyph>
    <TTGlyph name="cedilla.case" xMin="30" yMin="-257" xMax="280" yMax="16">
      <component glyphName="uni0327" x="310" y="0" flags="0x0"/>
    </TTGlyph>
    <TTGlyph name="cedilla.sc" xMin="30" yMin="-257" xMax="280" yMax="16">
      <component glyphName="uni0327" x="310" y="0" flags="0x0"/>
    </TTGlyph>
    <TTGlyph name="cent" xMin="64" yMin="-159" xMax="493" yMax="690">
      <contour>
        <pt x="493" y="46" on="1"/>
        <pt x="438" y="0" on="0"/>
        <pt x="367" y="-12" on="1"/>
        <pt x="367" y="-159" on="1"/>
        <pt x="261" y="-159" on="1"/>
        <pt x="261" y="-11" on="1"/>
        <pt x="169" y="7" on="0"/>
        <pt x="64" y="151" on="0"/>
        <pt x="64" y="261" on="1"/>
        <pt x="64" y="372" on="0"/>
        <pt x="170" y="523" on="0"/>
        <pt x="262" y="541" on="1"/>
        <pt x="262" y="690" on="1"/>
        <pt x="367" y="690" on="1"/>
        <pt x="367" y="542" on="1"/>
        <pt x="437" y="530" on="0"/>
        <pt x="493" y="482" on="1"/>
        <pt x="431" y="398" on="1"/>
        <pt x="381" y="436" on="0"/>
        <pt x="327" y="436" on="1"/>
        <pt x="213" y="436" on="0"/>
        <pt x="213" y="262" on="1"/>
        <pt x="213" y="174" on="0"/>
        <pt x="272" y="98" on="0"/>
        <pt x="326" y="98" on="1"/>
        <pt x="354" y="98" on="0"/>
        <pt x="400" y="115" on="0"/>
        <pt x="431" y="135" on="1"/>
      </contour>
    </TTGlyph>
    <TTGlyph name="cent.lf" xMin="38" yMin="-159" xMax="467" yMax="690">
      <contour>
        <pt x="467" y="46" on="1"/>
        <pt x="409" y="-1" on="0"/>
        <pt x="342" y="-12" on="1"/>
        <pt x="342" y="-159" on="1"/>
        <pt x="236" y="-159" on="1"/>
        <pt x="236" y="-11" on="1"/>
        <pt x="143" y="7" on="0"/>
        <pt x="38" y="151" on="0"/>
        <pt x="38" y="261" on="1"/>
        <pt x="38" y="372" on="0"/>
        <pt x="144" y="523" on="0"/>
        <pt x="237" y="541" on="1"/>
        <pt x="237" y="690" on="1"/>
        <pt x="342" y="690" on="1"/>
        <pt x="342" y="542" on="1"/>
        <pt x="413" y="530" on="0"/>
        <pt x="467" y="482" on="1"/>
        <pt x="405" y="398" on="1"/>
        <pt x="379" y="418" on="0"/>
        <pt x="330" y="436" on="0"/>
        <pt x="301" y="436" on="1"/>
        <pt x="188" y="436" on="0"/>
        <pt x="188" y="262" on="1"/>
        <pt x="188" y="174" on="0"/>
        <pt x="246" y="98" on="0"/>
        <pt x="300" y="98" on="1"/>
        <pt x="328" y="98" on="0"/>
        <pt x="374" y="115" on="0"/>
        <pt x="405" y="135" on="1"/>
      </contour>
    </TTGlyph>
    <TTGlyph name="cent.osf" xMin="38" yMin="-159" xMax="467" yMax="690">
      <component glyphName="cent.lf" x="0" y="0" flags="0x0"/>
    </TTGlyph>
    <TTGlyph name="cent.tosf" xMin="64" yMin="-159" xMax="493" yMax="690">
      <component glyphName="cent" x="0" y="0" flags="0x0"/>
    </TTGlyph>
    <TTGlyph name="chi" xMin="-18" yMin="-219" xMax="495" yMax="543">
      <contour>
        <pt x="495" y="-197" on="1"/>
        <pt x="353" y="-219" on="1"/>
        <pt x="241" y="71" on="1"/>
        <pt x="131" y="-218" on="1"/>
        <pt x="-13" y="-203" on="1"/>
        <pt x="170" y="184" on="1"/>
        <pt x="110" y="314" on="0"/>
        <pt x="30" y="449" on="0"/>
        <pt x="-18" y="499" on="1"/>
        <pt x="121" y="543" on="1"/>
        <pt x="159" y="491" on="0"/>
        <pt x="210" y="385" on="0"/>
        <pt x="245" y="281" on="1"/>
        <pt x="329" y="543" on="1"/>
        <pt x="475" y="527" on="1"/>
        <pt x="317" y="186" on="1"/>
      </contour>
    </TTGlyph>
    <TTGlyph name="chi.sc" xMin="-2" yMin="0" xMax="507" yMax="567">
      <component glyphName="x.sc" x="0" y="0" flags="0x0"/>
    </TTGlyph>
    <TTGlyph name="circumflex" xMin="30" yMin="624" xMax="398" yMax="815">
      <contour>
        <pt x="30" y="684" on="1"/>
        <pt x="170" y="815" on="1"/>
        <pt x="258" y="815" on="1"/>
        <pt x="398" y="684" on="1"/>
        <pt x="345" y="624" on="1"/>
        <pt x="214" y="713" on="1"/>
        <pt x="82" y="624" on="1"/>
      </contour>
    </TTGlyph>
    <TTGlyph name="circumflex.case" xMin="30" yMin="756" xMax="398" yMax="940">
      <contour>
        <pt x="214" y="839" on="1"/>
        <pt x="83" y="756" on="1"/>
        <pt x="30" y="816" on="1"/>
        <pt x="170" y="940" on="1"/>
        <pt x="258" y="940" on="1"/>
        <pt x="398" y="816" on="1"/>
        <pt x="346" y="756" on="1"/>
      </contour>
    </TTGlyph>
    <TTGlyph name="circumflex.sc" xMin="30" yMin="654" xMax="398" yMax="845">
      <component glyphName="uni0302" x="428" y="30" flags="0x0"/>
    </TTGlyph>
    <TTGlyph name="colon" xMin="34" yMin="-16" xMax="205" yMax="155">
      <component glyphName="period" x="0" y="0" flags="0x0"/>
      <component glyphName="period" x="0" y="351" flags="0x0"/>
    </TTGlyph>
    <TTGlyph name="comma" xMin="29" yMin="-174" xMax="205" yMax="155">
      <contour>
        <pt x="156" y="155" on="0"/>
        <pt x="205" y="106" on="0"/>
        <pt x="205" y="70" on="1"/>
        <pt x="205" y="50" on="0"/>
        <pt x="192" y="7" on="0"/>
        <pt x="177" y="-28" on="1"/>
        <pt x="112" y="-174" on="1"/>
        <pt x="29" y="-174" on="1"/>
        <pt x="71" y="0" on="1"/>
        <pt x="54" y="11" on="0"/>
        <pt x="34" y="48" on="0"/>
        <pt x="34" y="70" on="1"/>
        <pt x="34" y="106" on="0"/>
        <pt x="83" y="155" on="0"/>
        <pt x="119" y="155" on="1"/>
      </contour>
    </TTGlyph>
    <TTGlyph name="copyright" xMin="73" yMin="104" xMax="737" yMax="762">
      <contour>
        <pt x="497" y="762" on="0"/>
        <pt x="648" y="674" on="0"/>
        <pt x="737" y="523" on="0"/>
        <pt x="737" y="433" on="1"/>
        <pt x="737" y="343" on="0"/>
        <pt x="648" y="192" on="0"/>
        <pt x="497" y="104" on="0"/>
        <pt x="406" y="104" on="1"/>
        <pt x="315" y="104" on="0"/>
        <pt x="163" y="192" on="0"/>
        <pt x="73" y="343" on="0"/>
        <pt x="73" y="433" on="1"/>
        <pt x="73" y="523" on="0"/>
        <pt x="163" y="674" on="0"/>
        <pt x="315" y="762" on="0"/>
        <pt x="406" y="762" on="1"/>
      </contour>
      <contour>
        <pt x="336" y="689" on="0"/>
        <pt x="222" y="621" on="0"/>
        <pt x="158" y="503" on="0"/>
        <pt x="158" y="433" on="1"/>
        <pt x="158" y="362" on="0"/>
        <pt x="222" y="246" on="0"/>
        <pt x="336" y="178" on="0"/>
        <pt x="406" y="178" on="1"/>
        <pt x="476" y="178" on="0"/>
        <pt x="589" y="246" on="0"/>
        <pt x="653" y="362" on="0"/>
        <pt x="653" y="433" on="1"/>
        <pt x="653" y="503" on="0"/>
        <pt x="589" y="621" on="0"/>
        <pt x="476" y="689" on="0"/>
        <pt x="406" y="689" on="1"/>
      </contour>
      <contour>
        <pt x="481" y="629" on="0"/>
        <pt x="535" y="581" on="1"/>
        <pt x="489" y="522" on="1"/>
        <pt x="472" y="536" on="0"/>
        <pt x="438" y="548" on="0"/>
        <pt x="418" y="548" on="1"/>
        <pt x="382" y="548" on="0"/>
        <pt x="339" y="493" on="0"/>
        <pt x="339" y="434" on="1"/>
        <pt x="339" y="376" on="0"/>
        <pt x="380" y="320" on="0"/>
        <pt x="416" y="320" on="1"/>
        <pt x="440" y="320" on="0"/>
        <pt x="479" y="335" on="0"/>
        <pt x="498" y="350" on="1"/>
        <pt x="539" y="289" on="1"/>
        <pt x="483" y="238" on="0"/>
        <pt x="409" y="238" on="1"/>
        <pt x="329" y="238" on="0"/>
        <pt x="235" y="340" on="0"/>
        <pt x="235" y="434" on="1"/>
        <pt x="235" y="494" on="0"/>
        <pt x="280" y="582" on="0"/>
        <pt x="359" y="629" on="0"/>
        <pt x="408" y="629" on="1"/>
      </contour>
    </TTGlyph>
    <TTGlyph name="currency" xMin="18" yMin="80" xMax="538" yMax="603">
      <component glyphName="currency.lf" x="-2" y="0" flags="0x0"/>
    </TTGlyph>
    <TTGlyph name="currency.lf" xMin="20" yMin="80" xMax="540" yMax="603">
      <contour>
        <pt x="499" y="275" on="0"/>
        <pt x="465" y="222" on="1"/>
        <pt x="540" y="147" on="1"/>
        <pt x="474" y="80" on="1"/>
        <pt x="396" y="156" on="1"/>
        <pt x="344" y="126" on="0"/>
        <pt x="279" y="126" on="1"/>
        <pt x="218" y="126" on="0"/>
        <pt x="164" y="157" on="1"/>
        <pt x="86" y="80" on="1"/>
        <pt x="20" y="147" on="1"/>
        <pt x="97" y="223" on="1"/>
        <pt x="63" y="278" on="0"/>
        <pt x="63" y="341" on="1"/>
        <pt x="63" y="406" on="0"/>
        <pt x="96" y="458" on="1"/>
        <pt x="20" y="537" on="1"/>
        <pt x="86" y="603" on="1"/>
        <pt x="164" y="525" on="1"/>
        <pt x="215" y="556" on="0"/>
        <pt x="279" y="556" on="1"/>
        <pt x="345" y="556" on="0"/>
        <pt x="397" y="526" on="1"/>
        <pt x="474" y="603" on="1"/>
        <pt x="540" y="537" on="1"/>
        <pt x="465" y="461" on="1"/>
        <pt x="499" y="408" on="0"/>
        <pt x="499" y="341" on="1"/>
      </contour>
      <contour>
        <pt x="331" y="225" on="0"/>
        <pt x="384" y="286" on="0"/>
        <pt x="384" y="342" on="1"/>
        <pt x="384" y="397" on="0"/>
        <pt x="331" y="458" on="0"/>
        <pt x="281" y="458" on="1"/>
        <pt x="230" y="458" on="0"/>
        <pt x="177" y="397" on="0"/>
        <pt x="177" y="342" on="1"/>
        <pt x="177" y="286" on="0"/>
        <pt x="230" y="225" on="0"/>
        <pt x="281" y="225" on="1"/>
      </contour>
    </TTGlyph>
    <TTGlyph name="currency.osf" xMin="20" yMin="80" xMax="540" yMax="603">
      <component glyphName="currency.lf" x="0" y="0" flags="0x0"/>
    </TTGlyph>
    <TTGlyph name="currency.tosf" xMin="20" yMin="80" xMax="540" yMax="603">
      <component glyphName="currency.lf" x="0" y="0" flags="0x0"/>
    </TTGlyph>
    <TTGlyph name="d" xMin="43" yMin="-16" xMax="529" yMax="757">
      <contour>
        <pt x="529" y="741" on="1"/>
        <pt x="529" y="0" on="1"/>
        <pt x="404" y="0" on="1"/>
        <pt x="395" y="65" on="1"/>
        <pt x="370" y="28" on="0"/>
        <pt x="294" y="-16" on="0"/>
        <pt x="244" y="-16" on="1"/>
        <pt x="146" y="-16" on="0"/>
        <pt x="43" y="135" on="0"/>
        <pt x="43" y="265" on="1"/>
        <pt x="43" y="347" on="0"/>
        <pt x="96" y="474" on="0"/>
        <pt x="194" y="546" on="0"/>
        <pt x="260" y="546" on="1"/>
        <pt x="297" y="546" on="0"/>
        <pt x="362" y="517" on="0"/>
        <pt x="387" y="492" on="1"/>
        <pt x="387" y="757" on="1"/>
      </contour>
      <contour>
        <pt x="318" y="90" on="0"/>
        <pt x="366" y="122" on="0"/>
        <pt x="387" y="154" on="1"/>
        <pt x="387" y="391" on="1"/>
        <pt x="366" y="416" on="0"/>
        <pt x="323" y="441" on="0"/>
        <pt x="296" y="441" on="1"/>
        <pt x="247" y="441" on="0"/>
        <pt x="191" y="355" on="0"/>
        <pt x="191" y="265" on="1"/>
        <pt x="191" y="170" on="0"/>
        <pt x="240" y="90" on="0"/>
        <pt x="287" y="90" on="1"/>
      </contour>
    </TTGlyph>
    <TTGlyph name="d.sc" xMin="73" yMin="0" xMax="551" yMax="567">
      <contour>
        <pt x="381" y="567" on="0"/>
        <pt x="551" y="447" on="0"/>
        <pt x="551" y="287" on="1"/>
        <pt x="551" y="129" on="0"/>
        <pt x="385" y="0" on="0"/>
        <pt x="253" y="0" on="1"/>
        <pt x="73" y="0" on="1"/>
        <pt x="73" y="567" on="1"/>
        <pt x="240" y="567" on="1"/>
      </contour>
      <contour>
        <pt x="215" y="466" on="1"/>
        <pt x="215" y="102" on="1"/>
        <pt x="263" y="102" on="1"/>
        <pt x="333" y="102" on="0"/>
        <pt x="405" y="183" on="0"/>
        <pt x="405" y="287" on="1"/>
        <pt x="405" y="389" on="0"/>
        <pt x="330" y="466" on="0"/>
        <pt x="260" y="466" on="1"/>
      </contour>
    </TTGlyph>
    <TTGlyph name="dagger" xMin="37" yMin="0" xMax="518" yMax="692">
      <contour>
        <pt x="345" y="550" on="1"/>
        <pt x="518" y="550" on="1"/>
        <pt x="518" y="435" on="1"/>
        <pt x="345" y="435" on="1"/>
        <pt x="345" y="0" on="1"/>
        <pt x="211" y="0" on="1"/>
        <pt x="211" y="435" on="1"/>
        <pt x="37" y="435" on="1"/>
        <pt x="37" y="550" on="1"/>
        <pt x="211" y="550" on="1"/>
        <pt x="211" y="692" on="1"/>
        <pt x="345" y="692" on="1"/>
      </contour>
    </TTGlyph>
    <TTGlyph name="dagger.lf" xMin="29" yMin="0" xMax="495" yMax="674">
      <contour>
        <pt x="329" y="532" on="1"/>
        <pt x="495" y="532" on="1"/>
        <pt x="495" y="417" on="1"/>
        <pt x="329" y="417" on="1"/>
        <pt x="329" y="0" on="1"/>
        <pt x="195" y="0" on="1"/>
        <pt x="195" y="417" on="1"/>
        <pt x="29" y="417" on="1"/>
        <pt x="29" y="532" on="1"/>
        <pt x="195" y="532" on="1"/>
        <pt x="195" y="674" on="1"/>
        <pt x="329" y="674" on="1"/>
      </contour>
    </TTGlyph>
    <TTGlyph name="dagger.osf" xMin="29" yMin="0" xMax="495" yMax="674">
      <component glyphName="dagger.lf" x="0" y="0" flags="0x0"/>
    </TTGlyph>
    <TTGlyph name="dagger.tosf" xMin="47" yMin="0" xMax="513" yMax="674">
      <component glyphName="dagger.lf" x="18" y="0" flags="0x0"/>
    </TTGlyph>
    <TTGlyph name="daggerdbl" xMin="35" yMin="0" xMax="516" yMax="692">
      <contour>
        <pt x="516" y="166" on="1"/>
        <pt x="343" y="166" on="1"/>
        <pt x="343" y="0" on="1"/>
        <pt x="209" y="0" on="1"/>
        <pt x="209" y="166" on="1"/>
        <pt x="40" y="166" on="1"/>
        <pt x="40" y="281" on="1"/>
        <pt x="209" y="281" on="1"/>
        <pt x="209" y="435" on="1"/>
        <pt x="35" y="435" on="1"/>
        <pt x="35" y="550" on="1"/>
        <pt x="209" y="550" on="1"/>
        <pt x="209" y="692" on="1"/>
        <pt x="343" y="692" on="1"/>
        <pt x="343" y="550" on="1"/>
        <pt x="516" y="550" on="1"/>
        <pt x="516" y="435" on="1"/>
        <pt x="343" y="435" on="1"/>
        <pt x="343" y="281" on="1"/>
        <pt x="516" y="281" on="1"/>
      </contour>
    </TTGlyph>
    <TTGlyph name="daggerdbl.lf" xMin="29" yMin="0" xMax="495" yMax="674">
      <contour>
        <pt x="329" y="417" on="1"/>
        <pt x="329" y="264" on="1"/>
        <pt x="495" y="264" on="1"/>
        <pt x="495" y="148" on="1"/>
        <pt x="329" y="148" on="1"/>
        <pt x="329" y="0" on="1"/>
        <pt x="195" y="0" on="1"/>
        <pt x="195" y="148" on="1"/>
        <pt x="29" y="148" on="1"/>
        <pt x="29" y="264" on="1"/>
        <pt x="195" y="264" on="1"/>
        <pt x="195" y="417" on="1"/>
        <pt x="29" y="417" on="1"/>
        <pt x="29" y="532" on="1"/>
        <pt x="195" y="532" on="1"/>
        <pt x="195" y="674" on="1"/>
        <pt x="329" y="674" on="1"/>
        <pt x="329" y="532" on="1"/>
        <pt x="495" y="532" on="1"/>
        <pt x="495" y="417" on="1"/>
      </contour>
    </TTGlyph>
    <TTGlyph name="daggerdbl.osf" xMin="29" yMin="0" xMax="495" yMax="674">
      <component glyphName="daggerdbl.lf" x="0" y="0" flags="0x0"/>
    </TTGlyph>
    <TTGlyph name="daggerdbl.tosf" xMin="47" yMin="0" xMax="513" yMax="674">
      <component glyphName="daggerdbl.lf" x="18" y="0" flags="0x0"/>
    </TTGlyph>
    <TTGlyph name="dcaron" xMin="43" yMin="-16" xMax="702" yMax="757">
      <component glyphName="d" x="0" y="0" flags="0x0"/>
      <component glyphName="caron.alt" x="505" y="49" flags="0x0"/>
    </TTGlyph>
    <TTGlyph name="dcaron.sc" xMin="73" yMin="0" xMax="551" yMax="836">
      <component glyphName="d.sc" x="0" y="0" flags="0x0"/>
      <component glyphName="uni030C.sc" x="58" y="0" flags="0x0"/>
    </TTGlyph>
    <TTGlyph name="dcroat" xMin="43" yMin="-16" xMax="596" yMax="757">
      <contour>
        <pt x="596" y="685" on="1"/>
        <pt x="596" y="598" on="1"/>
        <pt x="529" y="598" on="1"/>
        <pt x="529" y="0" on="1"/>
        <pt x="404" y="0" on="1"/>
        <pt x="395" y="65" on="1"/>
        <pt x="370" y="28" on="0"/>
        <pt x="294" y="-16" on="0"/>
        <pt x="244" y="-16" on="1"/>
        <pt x="146" y="-16" on="0"/>
        <pt x="43" y="135" on="0"/>
        <pt x="43" y="265" on="1"/>
        <pt x="43" y="347" on="0"/>
        <pt x="96" y="474" on="0"/>
        <pt x="194" y="546" on="0"/>
        <pt x="260" y="546" on="1"/>
        <pt x="297" y="546" on="0"/>
        <pt x="362" y="517" on="0"/>
        <pt x="387" y="492" on="1"/>
        <pt x="387" y="598" on="1"/>
        <pt x="245" y="598" on="1"/>
        <pt x="245" y="685" on="1"/>
        <pt x="387" y="685" on="1"/>
        <pt x="387" y="757" on="1"/>
        <pt x="529" y="741" on="1"/>
        <pt x="529" y="685" on="1"/>
      </contour>
      <contour>
        <pt x="318" y="90" on="0"/>
        <pt x="366" y="122" on="0"/>
        <pt x="387" y="154" on="1"/>
        <pt x="387" y="391" on="1"/>
        <pt x="366" y="416" on="0"/>
        <pt x="323" y="441" on="0"/>
        <pt x="296" y="441" on="1"/>
        <pt x="247" y="441" on="0"/>
        <pt x="191" y="355" on="0"/>
        <pt x="191" y="265" on="1"/>
        <pt x="191" y="170" on="0"/>
        <pt x="240" y="90" on="0"/>
        <pt x="287" y="90" on="1"/>
      </contour>
    </TTGlyph>
    <TTGlyph name="dcroat.sc" xMin="26" yMin="0" xMax="560" yMax="567">
      <component glyphName="eth.sc" x="0" y="0" flags="0x0"/>
    </TTGlyph>
    <TTGlyph name="degree" xMin="61" yMin="392" xMax="411" yMax="728">
      <component glyphName="degree.lf" x="18" y="20" flags="0x0"/>
    </TTGlyph>
    <TTGlyph name="degree.lf" xMin="43" yMin="372" xMax="393" yMax="708">
      <contour>
        <pt x="174" y="372" on="0"/>
        <pt x="93" y="413" on="0"/>
        <pt x="43" y="490" on="0"/>
        <pt x="43" y="541" on="1"/>
        <pt x="43" y="592" on="0"/>
        <pt x="93" y="668" on="0"/>
        <pt x="173" y="708" on="0"/>
        <pt x="218" y="708" on="1"/>
        <pt x="263" y="708" on="0"/>
        <pt x="343" y="668" on="0"/>
        <pt x="393" y="591" on="0"/>
        <pt x="393" y="540" on="1"/>
        <pt x="393" y="489" on="0"/>
        <pt x="343" y="413" on="0"/>
        <pt x="262" y="372" on="0"/>
        <pt x="218" y="372" on="1"/>
      </contour>
      <contour>
        <pt x="251" y="457" on="0"/>
        <pt x="292" y="502" on="0"/>
        <pt x="292" y="540" on="1"/>
        <pt x="292" y="579" on="0"/>
        <pt x="251" y="624" on="0"/>
        <pt x="218" y="624" on="1"/>
        <pt x="185" y="624" on="0"/>
        <pt x="144" y="580" on="0"/>
        <pt x="144" y="541" on="1"/>
        <pt x="144" y="502" on="0"/>
        <pt x="185" y="457" on="0"/>
        <pt x="218" y="457" on="1"/>
      </contour>
    </TTGlyph>
    <TTGlyph name="degree.osf" xMin="43" yMin="372" xMax="393" yMax="708">
      <component glyphName="degree.lf" x="0" y="0" flags="0x0"/>
    </TTGlyph>
    <TTGlyph name="degree.tosf" xMin="63" yMin="372" xMax="413" yMax="708">
      <component glyphName="degree.lf" x="20" y="0" flags="0x0"/>
    </TTGlyph>
    <TTGlyph name="delta" xMin="38" yMin="-16" xMax="539" yMax="757">
      <contour>
        <pt x="443" y="470" on="0"/>
        <pt x="539" y="350" on="0"/>
        <pt x="539" y="247" on="1"/>
        <pt x="539" y="170" on="0"/>
        <pt x="478" y="51" on="0"/>
        <pt x="365" y="-16" on="0"/>
        <pt x="289" y="-16" on="1"/>
        <pt x="173" y="-16" on="0"/>
        <pt x="38" y="121" on="0"/>
        <pt x="38" y="241" on="1"/>
        <pt x="38" y="318" on="0"/>
        <pt x="117" y="429" on="0"/>
        <pt x="190" y="464" on="1"/>
        <pt x="134" y="495" on="0"/>
        <pt x="92" y="561" on="0"/>
        <pt x="92" y="605" on="1"/>
        <pt x="92" y="670" on="0"/>
        <pt x="197" y="757" on="0"/>
        <pt x="297" y="757" on="1"/>
        <pt x="406" y="757" on="0"/>
        <pt x="485" y="697" on="1"/>
        <pt x="419" y="620" on="1"/>
        <pt x="392" y="638" on="0"/>
        <pt x="339" y="656" on="0"/>
        <pt x="308" y="656" on="1"/>
        <pt x="268" y="656" on="0"/>
        <pt x="230" y="626" on="0"/>
        <pt x="230" y="602" on="1"/>
        <pt x="230" y="583" on="0"/>
        <pt x="246" y="559" on="0"/>
        <pt x="290" y="533" on="0"/>
        <pt x="336" y="514" on="1"/>
      </contour>
      <contour>
        <pt x="391" y="90" on="0"/>
        <pt x="391" y="247" on="1"/>
        <pt x="391" y="298" on="0"/>
        <pt x="371" y="360" on="0"/>
        <pt x="318" y="406" on="0"/>
        <pt x="266" y="429" on="1"/>
        <pt x="223" y="396" on="0"/>
        <pt x="185" y="310" on="0"/>
        <pt x="185" y="246" on="1"/>
        <pt x="185" y="168" on="0"/>
        <pt x="236" y="90" on="0"/>
        <pt x="288" y="90" on="1"/>
      </contour>
    </TTGlyph>
    <TTGlyph name="delta.sc" xMin="-9" yMin="0" xMax="533" yMax="567">
      <contour>
        <pt x="533" y="0" on="1"/>
        <pt x="-9" y="0" on="1"/>
        <pt x="177" y="567" on="1"/>
        <pt x="347" y="567" on="1"/>
      </contour>
      <contour>
        <pt x="162" y="103" on="1"/>
        <pt x="358" y="103" on="1"/>
        <pt x="260" y="464" on="1"/>
      </contour>
    </TTGlyph>
    <TTGlyph name="dieresis" xMin="30" yMin="644" xMax="407" yMax="792">
      <contour>
        <pt x="137" y="792" on="0"/>
        <pt x="180" y="749" on="0"/>
        <pt x="180" y="718" on="1"/>
        <pt x="180" y="687" on="0"/>
        <pt x="137" y="644" on="0"/>
        <pt x="105" y="644" on="1"/>
        <pt x="74" y="644" on="0"/>
        <pt x="30" y="687" on="0"/>
        <pt x="30" y="718" on="1"/>
        <pt x="30" y="749" on="0"/>
        <pt x="74" y="792" on="0"/>
        <pt x="105" y="792" on="1"/>
      </contour>
      <contour>
        <pt x="363" y="792" on="0"/>
        <pt x="407" y="749" on="0"/>
        <pt x="407" y="718" on="1"/>
        <pt x="407" y="687" on="0"/>
        <pt x="363" y="644" on="0"/>
        <pt x="331" y="644" on="1"/>
        <pt x="300" y="644" on="0"/>
        <pt x="257" y="687" on="0"/>
        <pt x="257" y="718" on="1"/>
        <pt x="257" y="749" on="0"/>
        <pt x="300" y="792" on="0"/>
        <pt x="331" y="792" on="1"/>
      </contour>
    </TTGlyph>
    <TTGlyph name="dieresis.case" xMin="30" yMin="770" xMax="407" yMax="918">
      <component glyphName="uni0308" x="438" y="126" flags="0x0"/>
    </TTGlyph>
    <TTGlyph name="dieresis.sc" xMin="30" yMin="674" xMax="407" yMax="822">
      <component glyphName="uni0308" x="438" y="30" flags="0x0"/>
    </TTGlyph>
    <TTGlyph name="dieresistonos" xMin="30" yMin="607" xMax="430" yMax="945">
      <contour>
        <pt x="337" y="923" on="1"/>
        <pt x="267" y="737" on="1"/>
        <pt x="186" y="750" on="1"/>
        <pt x="215" y="945" on="1"/>
      </contour>
      <contour>
        <pt x="136" y="754" on="0"/>
        <pt x="180" y="711" on="0"/>
        <pt x="180" y="681" on="1"/>
        <pt x="180" y="650" on="0"/>
        <pt x="137" y="607" on="0"/>
        <pt x="105" y="607" on="1"/>
        <pt x="73" y="607" on="0"/>
        <pt x="30" y="650" on="0"/>
        <pt x="30" y="681" on="1"/>
        <pt x="30" y="711" on="0"/>
        <pt x="74" y="754" on="0"/>
        <pt x="105" y="754" on="1"/>
      </contour>
      <contour>
        <pt x="386" y="754" on="0"/>
        <pt x="430" y="711" on="0"/>
        <pt x="430" y="681" on="1"/>
        <pt x="430" y="650" on="0"/>
        <pt x="387" y="607" on="0"/>
        <pt x="355" y="607" on="1"/>
        <pt x="323" y="607" on="0"/>
        <pt x="280" y="650" on="0"/>
        <pt x="280" y="681" on="1"/>
        <pt x="280" y="711" on="0"/>
        <pt x="324" y="754" on="0"/>
        <pt x="355" y="754" on="1"/>
      </contour>
    </TTGlyph>
    <TTGlyph name="divide" xMin="73" yMin="9" xMax="484" yMax="656">
      <contour>
        <pt x="314" y="656" on="0"/>
        <pt x="364" y="606" on="0"/>
        <pt x="364" y="571" on="1"/>
        <pt x="364" y="536" on="0"/>
        <pt x="314" y="485" on="0"/>
        <pt x="278" y="485" on="1"/>
        <pt x="243" y="485" on="0"/>
        <pt x="193" y="536" on="0"/>
        <pt x="193" y="571" on="1"/>
        <pt x="193" y="606" on="0"/>
        <pt x="243" y="656" on="0"/>
        <pt x="278" y="656" on="1"/>
      </contour>
      <contour>
        <pt x="73" y="388" on="1"/>
        <pt x="484" y="388" on="1"/>
        <pt x="484" y="277" on="1"/>
        <pt x="73" y="277" on="1"/>
      </contour>
      <contour>
        <pt x="314" y="180" on="0"/>
        <pt x="364" y="130" on="0"/>
        <pt x="364" y="95" on="1"/>
        <pt x="364" y="60" on="0"/>
        <pt x="314" y="9" on="0"/>
        <pt x="278" y="9" on="1"/>
        <pt x="243" y="9" on="0"/>
        <pt x="193" y="60" on="0"/>
        <pt x="193" y="95" on="1"/>
        <pt x="193" y="130" on="0"/>
        <pt x="243" y="180" on="0"/>
        <pt x="278" y="180" on="1"/>
      </contour>
    </TTGlyph>
    <TTGlyph name="divide.lf" xMin="52" yMin="9" xMax="463" yMax="388">
      <component glyphName="period" x="138" y="25" flags="0x0"/>
      <component glyphName="period" x="138" y="501" flags="0x0"/>
      <component glyphName="minus.lf" x="0" y="0" flags="0x0"/>
    </TTGlyph>
    <TTGlyph name="divide.osf" xMin="52" yMin="9" xMax="463" yMax="656">
      <contour>
        <pt x="293" y="656" on="0"/>
        <pt x="343" y="606" on="0"/>
        <pt x="343" y="571" on="1"/>
        <pt x="343" y="536" on="0"/>
        <pt x="293" y="485" on="0"/>
        <pt x="257" y="485" on="1"/>
        <pt x="222" y="485" on="0"/>
        <pt x="172" y="536" on="0"/>
        <pt x="172" y="571" on="1"/>
        <pt x="172" y="606" on="0"/>
        <pt x="222" y="656" on="0"/>
        <pt x="257" y="656" on="1"/>
      </contour>
      <contour>
        <pt x="52" y="388" on="1"/>
        <pt x="463" y="388" on="1"/>
        <pt x="463" y="277" on="1"/>
        <pt x="52" y="277" on="1"/>
      </contour>
      <contour>
        <pt x="293" y="180" on="0"/>
        <pt x="343" y="130" on="0"/>
        <pt x="343" y="95" on="1"/>
        <pt x="343" y="60" on="0"/>
        <pt x="293" y="9" on="0"/>
        <pt x="257" y="9" on="1"/>
        <pt x="222" y="9" on="0"/>
        <pt x="172" y="60" on="0"/>
        <pt x="172" y="95" on="1"/>
        <pt x="172" y="130" on="0"/>
        <pt x="222" y="180" on="0"/>
        <pt x="257" y="180" on="1"/>
      </contour>
    </TTGlyph>
    <TTGlyph name="divide.tosf" xMin="75" yMin="9" xMax="486" yMax="656">
      <contour>
        <pt x="316" y="656" on="0"/>
        <pt x="366" y="606" on="0"/>
        <pt x="366" y="571" on="1"/>
        <pt x="366" y="536" on="0"/>
        <pt x="316" y="485" on="0"/>
        <pt x="280" y="485" on="1"/>
        <pt x="245" y="485" on="0"/>
        <pt x="195" y="536" on="0"/>
        <pt x="195" y="571" on="1"/>
        <pt x="195" y="606" on="0"/>
        <pt x="245" y="656" on="0"/>
        <pt x="280" y="656" on="1"/>
      </contour>
      <contour>
        <pt x="75" y="388" on="1"/>
        <pt x="486" y="388" on="1"/>
        <pt x="486" y="277" on="1"/>
        <pt x="75" y="277" on="1"/>
      </contour>
      <contour>
        <pt x="316" y="180" on="0"/>
        <pt x="366" y="130" on="0"/>
        <pt x="366" y="95" on="1"/>
        <pt x="366" y="60" on="0"/>
        <pt x="316" y="9" on="0"/>
        <pt x="280" y="9" on="1"/>
        <pt x="245" y="9" on="0"/>
        <pt x="195" y="60" on="0"/>
        <pt x="195" y="95" on="1"/>
        <pt x="195" y="130" on="0"/>
        <pt x="245" y="180" on="0"/>
        <pt x="280" y="180" on="1"/>
      </contour>
    </TTGlyph>
    <TTGlyph name="dollar" xMin="16" yMin="-159" xMax="519" yMax="850">
      <contour>
        <pt x="519" y="125" on="0"/>
        <pt x="421" y="16" on="0"/>
        <pt x="333" y="0" on="1"/>
        <pt x="333" y="-159" on="1"/>
        <pt x="227" y="-159" on="1"/>
        <pt x="227" y="-5" on="1"/>
        <pt x="100" y="5" on="0"/>
        <pt x="16" y="87" on="1"/>
        <pt x="89" y="170" on="1"/>
        <pt x="162" y="102" on="0"/>
        <pt x="257" y="102" on="1"/>
        <pt x="309" y="102" on="0"/>
        <pt x="373" y="151" on="0"/>
        <pt x="373" y="194" on="1"/>
        <pt x="373" y="222" on="0"/>
        <pt x="351" y="258" on="0"/>
        <pt x="297" y="287" on="0"/>
        <pt x="245" y="303" on="1"/>
        <pt x="137" y="337" on="0"/>
        <pt x="43" y="433" on="0"/>
        <pt x="43" y="509" on="1"/>
        <pt x="43" y="583" on="0"/>
        <pt x="144" y="684" on="0"/>
        <pt x="227" y="696" on="1"/>
        <pt x="227" y="850" on="1"/>
        <pt x="333" y="850" on="1"/>
        <pt x="333" y="696" on="1"/>
        <pt x="431" y="682" on="0"/>
        <pt x="499" y="615" on="1"/>
        <pt x="431" y="535" on="1"/>
        <pt x="364" y="593" on="0"/>
        <pt x="285" y="593" on="1"/>
        <pt x="241" y="593" on="0"/>
        <pt x="188" y="554" on="0"/>
        <pt x="188" y="519" on="1"/>
        <pt x="188" y="495" on="0"/>
        <pt x="210" y="464" on="0"/>
        <pt x="265" y="436" on="0"/>
        <pt x="321" y="418" on="1"/>
        <pt x="421" y="387" on="0"/>
        <pt x="519" y="292" on="0"/>
        <pt x="519" y="204" on="1"/>
      </contour>
    </TTGlyph>
    <TTGlyph name="dollar.lf" xMin="13" yMin="-160" xMax="516" yMax="829">
      <contour>
        <pt x="516" y="120" on="0"/>
        <pt x="419" y="12" on="0"/>
        <pt x="333" y="-4" on="1"/>
        <pt x="333" y="-160" on="1"/>
        <pt x="227" y="-160" on="1"/>
        <pt x="227" y="-9" on="1"/>
        <pt x="99" y="-1" on="0"/>
        <pt x="13" y="83" on="1"/>
        <pt x="87" y="163" on="1"/>
        <pt x="160" y="96" on="0"/>
        <pt x="255" y="96" on="1"/>
        <pt x="307" y="96" on="0"/>
        <pt x="370" y="144" on="0"/>
        <pt x="370" y="187" on="1"/>
        <pt x="370" y="214" on="0"/>
        <pt x="348" y="250" on="0"/>
        <pt x="294" y="278" on="0"/>
        <pt x="242" y="294" on="1"/>
        <pt x="134" y="328" on="0"/>
        <pt x="41" y="422" on="0"/>
        <pt x="41" y="497" on="1"/>
        <pt x="41" y="571" on="0"/>
        <pt x="143" y="670" on="0"/>
        <pt x="227" y="682" on="1"/>
        <pt x="227" y="829" on="1"/>
        <pt x="333" y="829" on="1"/>
        <pt x="333" y="681" on="1"/>
        <pt x="430" y="667" on="0"/>
        <pt x="497" y="601" on="1"/>
        <pt x="429" y="522" on="1"/>
        <pt x="365" y="579" on="0"/>
        <pt x="283" y="579" on="1"/>
        <pt x="239" y="579" on="0"/>
        <pt x="186" y="542" on="0"/>
        <pt x="186" y="507" on="1"/>
        <pt x="186" y="483" on="0"/>
        <pt x="208" y="453" on="0"/>
        <pt x="263" y="425" on="0"/>
        <pt x="319" y="408" on="1"/>
        <pt x="419" y="377" on="0"/>
        <pt x="516" y="283" on="0"/>
        <pt x="516" y="196" on="1"/>
      </contour>
    </TTGlyph>
    <TTGlyph name="dollar.osf" xMin="13" yMin="-160" xMax="516" yMax="829">
      <component glyphName="dollar.lf" x="0" y="0" flags="0x0"/>
    </TTGlyph>
    <TTGlyph name="dollar.tosf" xMin="20" yMin="-159" xMax="511" yMax="829">
      <contour>
        <pt x="511" y="121" on="0"/>
        <pt x="416" y="13" on="0"/>
        <pt x="333" y="-3" on="1"/>
        <pt x="333" y="-159" on="1"/>
        <pt x="227" y="-159" on="1"/>
        <pt x="227" y="-9" on="1"/>
        <pt x="164" y="-3" on="0"/>
        <pt x="57" y="46" on="0"/>
        <pt x="20" y="84" on="1"/>
        <pt x="93" y="165" on="1"/>
        <pt x="167" y="97" on="0"/>
        <pt x="257" y="97" on="1"/>
        <pt x="307" y="97" on="0"/>
        <pt x="368" y="144" on="0"/>
        <pt x="368" y="187" on="1"/>
        <pt x="368" y="214" on="0"/>
        <pt x="347" y="250" on="0"/>
        <pt x="295" y="280" on="0"/>
        <pt x="247" y="296" on="1"/>
        <pt x="142" y="332" on="0"/>
        <pt x="52" y="424" on="0"/>
        <pt x="52" y="498" on="1"/>
        <pt x="52" y="570" on="0"/>
        <pt x="150" y="667" on="0"/>
        <pt x="227" y="681" on="1"/>
        <pt x="227" y="829" on="1"/>
        <pt x="333" y="829" on="1"/>
        <pt x="333" y="682" on="1"/>
        <pt x="427" y="668" on="0"/>
        <pt x="497" y="602" on="1"/>
        <pt x="433" y="523" on="1"/>
        <pt x="361" y="580" on="0"/>
        <pt x="291" y="580" on="1"/>
        <pt x="248" y="580" on="0"/>
        <pt x="195" y="542" on="0"/>
        <pt x="195" y="507" on="1"/>
        <pt x="195" y="484" on="0"/>
        <pt x="216" y="452" on="0"/>
        <pt x="270" y="424" on="0"/>
        <pt x="322" y="406" on="1"/>
        <pt x="385" y="384" on="0"/>
        <pt x="465" y="334" on="0"/>
        <pt x="511" y="256" on="0"/>
        <pt x="511" y="197" on="1"/>
      </contour>
    </TTGlyph>
    <TTGlyph name="dotaccent" xMin="30" yMin="637" xMax="203" yMax="803">
      <contour>
        <pt x="154" y="803" on="0"/>
        <pt x="203" y="756" on="0"/>
        <pt x="203" y="720" on="1"/>
        <pt x="203" y="684" on="0"/>
        <pt x="154" y="637" on="0"/>
        <pt x="116" y="637" on="1"/>
        <pt x="78" y="637" on="0"/>
        <pt x="30" y="684" on="0"/>
        <pt x="30" y="720" on="1"/>
        <pt x="30" y="756" on="0"/>
        <pt x="78" y="803" on="0"/>
        <pt x="116" y="803" on="1"/>
      </contour>
    </TTGlyph>
    <TTGlyph name="dotaccent.case" xMin="30" yMin="763" xMax="203" yMax="929">
      <component glyphName="uni0307" x="233" y="126" flags="0x0"/>
    </TTGlyph>
    <TTGlyph name="dotaccent.sc" xMin="30" yMin="667" xMax="203" yMax="833">
      <component glyphName="uni0307" x="233" y="30" flags="0x0"/>
    </TTGlyph>
    <TTGlyph name="dotbelowcomb" xMin="-203" yMin="-230" xMax="-30" yMax="-64">
      <contour>
        <pt x="-155" y="-230" on="0"/>
        <pt x="-203" y="-182" on="0"/>
        <pt x="-203" y="-146" on="1"/>
        <pt x="-203" y="-111" on="0"/>
        <pt x="-154" y="-64" on="0"/>
        <pt x="-116" y="-64" on="1"/>
        <pt x="-79" y="-64" on="0"/>
        <pt x="-30" y="-111" on="0"/>
        <pt x="-30" y="-146" on="1"/>
        <pt x="-30" y="-182" on="0"/>
        <pt x="-79" y="-230" on="0"/>
        <pt x="-116" y="-230" on="1"/>
      </contour>
    </TTGlyph>
    <TTGlyph name="dotlessi" xMin="70" yMin="0" xMax="212" yMax="530">
      <contour>
        <pt x="212" y="0" on="1"/>
        <pt x="70" y="0" on="1"/>
        <pt x="70" y="530" on="1"/>
        <pt x="212" y="530" on="1"/>
      </contour>
    </TTGlyph>
    <TTGlyph name="dotlessi.sc" xMin="73" yMin="0" xMax="215" yMax="567">
      <component glyphName="i.sc" x="0" y="0" flags="0x0"/>
    </TTGlyph>
    <TTGlyph name="dotmath" xMin="34" yMin="223" xMax="205" yMax="394">
      <component glyphName="periodcentered" x="0" y="0" flags="0x0"/>
    </TTGlyph>
    <TTGlyph name="e" xMin="38" yMin="-16" xMax="518" yMax="546">
      <contour>
        <pt x="518" y="267" on="0"/>
        <pt x="515" y="222" on="1"/>
        <pt x="184" y="222" on="1"/>
        <pt x="191" y="150" on="0"/>
        <pt x="255" y="90" on="0"/>
        <pt x="310" y="90" on="1"/>
        <pt x="344" y="90" on="0"/>
        <pt x="404" y="112" on="0"/>
        <pt x="439" y="136" on="1"/>
        <pt x="498" y="56" on="1"/>
        <pt x="409" y="-16" on="0"/>
        <pt x="297" y="-16" on="1"/>
        <pt x="172" y="-16" on="0"/>
        <pt x="38" y="134" on="0"/>
        <pt x="38" y="262" on="1"/>
        <pt x="38" y="343" on="0"/>
        <pt x="95" y="472" on="0"/>
        <pt x="204" y="546" on="0"/>
        <pt x="279" y="546" on="1"/>
        <pt x="392" y="546" on="0"/>
        <pt x="518" y="404" on="0"/>
        <pt x="518" y="277" on="1"/>
      </contour>
      <contour>
        <pt x="377" y="317" on="1"/>
        <pt x="377" y="449" on="0"/>
        <pt x="282" y="449" on="1"/>
        <pt x="238" y="449" on="0"/>
        <pt x="190" y="384" on="0"/>
        <pt x="184" y="311" on="1"/>
        <pt x="377" y="311" on="1"/>
      </contour>
    </TTGlyph>
    <TTGlyph name="e.sc" xMin="73" yMin="0" xMax="441" yMax="567">
      <contour>
        <pt x="427" y="467" on="1"/>
        <pt x="215" y="467" on="1"/>
        <pt x="215" y="339" on="1"/>
        <pt x="400" y="339" on="1"/>
        <pt x="400" y="240" on="1"/>
        <pt x="215" y="240" on="1"/>
        <pt x="215" y="101" on="1"/>
        <pt x="441" y="101" on="1"/>
        <pt x="441" y="0" on="1"/>
        <pt x="73" y="0" on="1"/>
        <pt x="73" y="567" on="1"/>
        <pt x="441" y="567" on="1"/>
      </contour>
    </TTGlyph>
    <TTGlyph name="eacute" xMin="38" yMin="-16" xMax="518" yMax="827">
      <component glyphName="e" x="0" y="0" flags="0x0"/>
      <component glyphName="acutecomb" x="442" y="0" flags="0x0"/>
    </TTGlyph>
    <TTGlyph name="eacute.sc" xMin="73" yMin="0" xMax="441" yMax="857">
      <component glyphName="e.sc" x="0" y="0" flags="0x0"/>
      <component glyphName="acutecomb.sc" x="89" y="0" flags="0x0"/>
    </TTGlyph>
    <TTGlyph name="ebreve" xMin="38" yMin="-16" xMax="518" yMax="813">
      <component glyphName="e" x="0" y="0" flags="0x0"/>
      <component glyphName="uni0306" x="479" y="0" flags="0x0"/>
    </TTGlyph>
    <TTGlyph name="ebreve.sc" xMin="73" yMin="0" xMax="441" yMax="843">
      <component glyphName="e.sc" x="0" y="0" flags="0x0"/>
      <component glyphName="uni0306.sc" x="61" y="0" flags="0x0"/>
    </TTGlyph>
    <TTGlyph name="ecaron" xMin="38" yMin="-16" xMax="518" yMax="806">
      <component glyphName="e" x="0" y="0" flags="0x0"/>
      <component glyphName="uni030C" x="496" y="0" flags="0x0"/>
    </TTGlyph>
    <TTGlyph name="ecaron.sc" xMin="73" yMin="0" xMax="443" yMax="836">
      <component glyphName="e.sc" x="0" y="0" flags="0x0"/>
      <component glyphName="uni030C.sc" x="45" y="0" flags="0x0"/>
    </TTGlyph>
    <TTGlyph name="ecircumflex" xMin="38" yMin="-16" xMax="518" yMax="815">
      <component glyphName="e" x="0" y="0" flags="0x0"/>
      <component glyphName="uni0302" x="496" y="0" flags="0x0"/>
    </TTGlyph>
    <TTGlyph name="ecircumflex.sc" xMin="73" yMin="0" xMax="443" yMax="845">
      <component glyphName="e.sc" x="0" y="0" flags="0x0"/>
      <component glyphName="uni0302.sc" x="45" y="0" flags="0x0"/>
    </TTGlyph>
    <TTGlyph name="edieresis" xMin="38" yMin="-16" xMax="518" yMax="792">
      <component glyphName="e" x="0" y="0" flags="0x0"/>
      <component glyphName="uni0308" x="501" y="0" flags="0x0"/>
    </TTGlyph>
    <TTGlyph name="edieresis.sc" xMin="70" yMin="0" xMax="447" yMax="822">
      <component glyphName="e.sc" x="0" y="0" flags="0x0"/>
      <component glyphName="uni0308.sc" x="40" y="0" flags="0x0"/>
    </TTGlyph>
    <TTGlyph name="edotaccent" xMin="38" yMin="-16" xMax="518" yMax="803">
      <component glyphName="e" x="0" y="0" flags="0x0"/>
      <component glyphName="uni0307" x="398" y="0" flags="0x0"/>
    </TTGlyph>
    <TTGlyph name="edotaccent.sc" xMin="73" yMin="0" xMax="441" yMax="833">
      <component glyphName="e.sc" x="0" y="0" flags="0x0"/>
      <component glyphName="uni0307.sc" x="142" y="0" flags="0x0"/>
    </TTGlyph>
    <TTGlyph name="egrave" xMin="38" yMin="-16" xMax="518" yMax="827">
      <component glyphName="e" x="0" y="0" flags="0x0"/>
      <component glyphName="gravecomb" x="457" y="0" flags="0x0"/>
    </TTGlyph>
    <TTGlyph name="egrave.sc" xMin="73" yMin="0" xMax="441" yMax="857">
      <component glyphName="e.sc" x="0" y="0" flags="0x0"/>
      <component glyphName="gravecomb.sc" x="98" y="0" flags="0x0"/>
    </TTGlyph>
    <TTGlyph name="eight" xMin="28" yMin="-16" xMax="527" yMax="708">
      <contour>
        <pt x="461" y="339" on="0"/>
        <pt x="527" y="249" on="0"/>
        <pt x="527" y="187" on="1"/>
        <pt x="527" y="130" on="0"/>
        <pt x="466" y="37" on="0"/>
        <pt x="352" y="-16" on="0"/>
        <pt x="275" y="-16" on="1"/>
        <pt x="200" y="-16" on="0"/>
        <pt x="88" y="36" on="0"/>
        <pt x="28" y="127" on="0"/>
        <pt x="28" y="184" on="1"/>
        <pt x="28" y="304" on="0"/>
        <pt x="155" y="359" on="1"/>
        <pt x="103" y="389" on="0"/>
        <pt x="55" y="470" on="0"/>
        <pt x="55" y="522" on="1"/>
        <pt x="55" y="579" on="0"/>
        <pt x="114" y="663" on="0"/>
        <pt x="215" y="708" on="0"/>
        <pt x="278" y="708" on="1"/>
        <pt x="375" y="708" on="0"/>
        <pt x="501" y="613" on="0"/>
        <pt x="501" y="527" on="1"/>
        <pt x="501" y="430" on="0"/>
        <pt x="393" y="372" on="1"/>
      </contour>
      <contour>
        <pt x="237" y="611" on="0"/>
        <pt x="190" y="565" on="0"/>
        <pt x="190" y="520" on="1"/>
        <pt x="190" y="478" on="0"/>
        <pt x="236" y="432" on="0"/>
        <pt x="290" y="412" on="1"/>
        <pt x="302" y="408" on="1"/>
        <pt x="337" y="431" on="0"/>
        <pt x="366" y="484" on="0"/>
        <pt x="366" y="521" on="1"/>
        <pt x="366" y="563" on="0"/>
        <pt x="319" y="611" on="0"/>
        <pt x="278" y="611" on="1"/>
      </contour>
      <contour>
        <pt x="329" y="88" on="0"/>
        <pt x="386" y="143" on="0"/>
        <pt x="386" y="187" on="1"/>
        <pt x="386" y="235" on="0"/>
        <pt x="336" y="288" on="0"/>
        <pt x="272" y="309" on="1"/>
        <pt x="242" y="320" on="1"/>
        <pt x="170" y="280" on="0"/>
        <pt x="170" y="190" on="1"/>
        <pt x="170" y="142" on="0"/>
        <pt x="229" y="88" on="0"/>
        <pt x="279" y="88" on="1"/>
      </contour>
    </TTGlyph>
    <TTGlyph name="eight.dnom" xMin="27" yMin="-11" xMax="373" yMax="429">
      <contour>
        <pt x="373" y="184" on="0"/>
        <pt x="373" y="114" on="1"/>
        <pt x="373" y="80" on="0"/>
        <pt x="331" y="23" on="0"/>
        <pt x="252" y="-11" on="0"/>
        <pt x="198" y="-11" on="1"/>
        <pt x="145" y="-11" on="0"/>
        <pt x="68" y="22" on="0"/>
        <pt x="27" y="78" on="0"/>
        <pt x="27" y="112" on="1"/>
        <pt x="27" y="181" on="0"/>
        <pt x="110" y="215" on="1"/>
        <pt x="45" y="253" on="0"/>
        <pt x="45" y="315" on="1"/>
        <pt x="45" y="365" on="0"/>
        <pt x="132" y="429" on="0"/>
        <pt x="201" y="429" on="1"/>
        <pt x="270" y="429" on="0"/>
        <pt x="356" y="371" on="0"/>
        <pt x="356" y="321" on="1"/>
        <pt x="356" y="293" on="0"/>
        <pt x="321" y="244" on="0"/>
        <pt x="285" y="226" on="1"/>
      </contour>
      <contour>
        <pt x="177" y="359" on="0"/>
        <pt x="150" y="336" on="0"/>
        <pt x="150" y="314" on="1"/>
        <pt x="150" y="276" on="0"/>
        <pt x="199" y="259" on="1"/>
        <pt x="214" y="253" on="1"/>
        <pt x="235" y="267" on="0"/>
        <pt x="251" y="296" on="0"/>
        <pt x="251" y="315" on="1"/>
        <pt x="251" y="335" on="0"/>
        <pt x="225" y="359" on="0"/>
        <pt x="201" y="359" on="1"/>
      </contour>
      <contour>
        <pt x="232" y="65" on="0"/>
        <pt x="265" y="93" on="0"/>
        <pt x="265" y="115" on="1"/>
        <pt x="265" y="138" on="0"/>
        <pt x="237" y="165" on="0"/>
        <pt x="201" y="177" on="1"/>
        <pt x="176" y="185" on="1"/>
        <pt x="136" y="163" on="0"/>
        <pt x="136" y="118" on="1"/>
        <pt x="136" y="93" on="0"/>
        <pt x="171" y="65" on="0"/>
        <pt x="201" y="65" on="1"/>
      </contour>
    </TTGlyph>
    <TTGlyph name="eight.lf" xMin="33" yMin="-16" xMax="540" yMax="687">
      <contour>
        <pt x="540" y="298" on="0"/>
        <pt x="540" y="182" on="1"/>
        <pt x="540" y="127" on="0"/>
        <pt x="478" y="36" on="0"/>
        <pt x="362" y="-16" on="0"/>
        <pt x="284" y="-16" on="1"/>
        <pt x="208" y="-16" on="0"/>
        <pt x="94" y="36" on="0"/>
        <pt x="33" y="125" on="0"/>
        <pt x="33" y="179" on="1"/>
        <pt x="33" y="293" on="0"/>
        <pt x="160" y="349" on="1"/>
        <pt x="60" y="407" on="0"/>
        <pt x="60" y="508" on="1"/>
        <pt x="60" y="562" on="0"/>
        <pt x="120" y="643" on="0"/>
        <pt x="223" y="687" on="0"/>
        <pt x="287" y="687" on="1"/>
        <pt x="385" y="687" on="0"/>
        <pt x="514" y="595" on="0"/>
        <pt x="514" y="514" on="1"/>
        <pt x="514" y="420" on="0"/>
        <pt x="404" y="362" on="1"/>
      </contour>
      <contour>
        <pt x="246" y="590" on="0"/>
        <pt x="198" y="547" on="0"/>
        <pt x="198" y="506" on="1"/>
        <pt x="198" y="469" on="0"/>
        <pt x="242" y="424" on="0"/>
        <pt x="290" y="405" on="1"/>
        <pt x="310" y="398" on="1"/>
        <pt x="346" y="421" on="0"/>
        <pt x="376" y="473" on="0"/>
        <pt x="376" y="507" on="1"/>
        <pt x="376" y="545" on="0"/>
        <pt x="330" y="590" on="0"/>
        <pt x="288" y="590" on="1"/>
      </contour>
      <contour>
        <pt x="340" y="88" on="0"/>
        <pt x="397" y="140" on="0"/>
        <pt x="397" y="183" on="1"/>
        <pt x="397" y="226" on="0"/>
        <pt x="347" y="276" on="0"/>
        <pt x="283" y="299" on="1"/>
        <pt x="251" y="311" on="1"/>
        <pt x="176" y="269" on="0"/>
        <pt x="176" y="185" on="1"/>
        <pt x="176" y="140" on="0"/>
        <pt x="236" y="88" on="0"/>
        <pt x="288" y="88" on="1"/>
      </contour>
    </TTGlyph>
    <TTGlyph name="eight.numr" xMin="27" yMin="261" xMax="373" yMax="701">
      <component glyphName="eight.dnom" x="0" y="272" flags="0x0"/>
    </TTGlyph>
    <TTGlyph name="eight.osf" xMin="33" yMin="-16" xMax="540" yMax="687">
      <contour>
        <pt x="540" y="298" on="0"/>
        <pt x="540" y="182" on="1"/>
        <pt x="540" y="127" on="0"/>
        <pt x="478" y="36" on="0"/>
        <pt x="362" y="-16" on="0"/>
        <pt x="284" y="-16" on="1"/>
        <pt x="208" y="-16" on="0"/>
        <pt x="94" y="36" on="0"/>
        <pt x="33" y="125" on="0"/>
        <pt x="33" y="179" on="1"/>
        <pt x="33" y="293" on="0"/>
        <pt x="160" y="349" on="1"/>
        <pt x="60" y="407" on="0"/>
        <pt x="60" y="508" on="1"/>
        <pt x="60" y="562" on="0"/>
        <pt x="120" y="643" on="0"/>
        <pt x="223" y="687" on="0"/>
        <pt x="287" y="687" on="1"/>
        <pt x="385" y="687" on="0"/>
        <pt x="514" y="595" on="0"/>
        <pt x="514" y="514" on="1"/>
        <pt x="514" y="420" on="0"/>
        <pt x="404" y="362" on="1"/>
      </contour>
      <contour>
        <pt x="246" y="590" on="0"/>
        <pt x="198" y="547" on="0"/>
        <pt x="198" y="506" on="1"/>
        <pt x="198" y="469" on="0"/>
        <pt x="242" y="424" on="0"/>
        <pt x="290" y="405" on="1"/>
        <pt x="310" y="398" on="1"/>
        <pt x="346" y="421" on="0"/>
        <pt x="376" y="473" on="0"/>
        <pt x="376" y="507" on="1"/>
        <pt x="376" y="545" on="0"/>
        <pt x="330" y="590" on="0"/>
        <pt x="288" y="590" on="1"/>
      </contour>
      <contour>
        <pt x="340" y="88" on="0"/>
        <pt x="397" y="140" on="0"/>
        <pt x="397" y="183" on="1"/>
        <pt x="397" y="226" on="0"/>
        <pt x="347" y="276" on="0"/>
        <pt x="283" y="299" on="1"/>
        <pt x="251" y="311" on="1"/>
        <pt x="176" y="269" on="0"/>
        <pt x="176" y="185" on="1"/>
        <pt x="176" y="140" on="0"/>
        <pt x="236" y="88" on="0"/>
        <pt x="288" y="88" on="1"/>
      </contour>
    </TTGlyph>
    <TTGlyph name="eight.tosf" xMin="33" yMin="-16" xMax="532" yMax="687">
      <contour>
        <pt x="532" y="298" on="0"/>
        <pt x="532" y="182" on="1"/>
        <pt x="532" y="127" on="0"/>
        <pt x="471" y="36" on="0"/>
        <pt x="356" y="-16" on="0"/>
        <pt x="279" y="-16" on="1"/>
        <pt x="204" y="-16" on="0"/>
        <pt x="92" y="36" on="0"/>
        <pt x="33" y="125" on="0"/>
        <pt x="33" y="179" on="1"/>
        <pt x="33" y="294" on="0"/>
        <pt x="158" y="349" on="1"/>
        <pt x="59" y="407" on="0"/>
        <pt x="59" y="507" on="1"/>
        <pt x="59" y="561" on="0"/>
        <pt x="118" y="643" on="0"/>
        <pt x="220" y="687" on="0"/>
        <pt x="283" y="687" on="1"/>
        <pt x="346" y="687" on="0"/>
        <pt x="447" y="646" on="0"/>
        <pt x="506" y="566" on="0"/>
        <pt x="506" y="512" on="1"/>
        <pt x="506" y="419" on="0"/>
        <pt x="398" y="362" on="1"/>
      </contour>
      <contour>
        <pt x="241" y="590" on="0"/>
        <pt x="194" y="546" on="0"/>
        <pt x="194" y="506" on="1"/>
        <pt x="194" y="467" on="0"/>
        <pt x="239" y="422" on="0"/>
        <pt x="290" y="403" on="1"/>
        <pt x="306" y="398" on="1"/>
        <pt x="341" y="421" on="0"/>
        <pt x="370" y="472" on="0"/>
        <pt x="370" y="507" on="1"/>
        <pt x="370" y="545" on="0"/>
        <pt x="324" y="590" on="0"/>
        <pt x="282" y="590" on="1"/>
      </contour>
      <contour>
        <pt x="334" y="88" on="0"/>
        <pt x="390" y="140" on="0"/>
        <pt x="390" y="183" on="1"/>
        <pt x="390" y="226" on="0"/>
        <pt x="340" y="276" on="0"/>
        <pt x="278" y="298" on="1"/>
        <pt x="246" y="310" on="1"/>
        <pt x="174" y="270" on="0"/>
        <pt x="174" y="185" on="1"/>
        <pt x="174" y="140" on="0"/>
        <pt x="233" y="88" on="0"/>
        <pt x="284" y="88" on="1"/>
      </contour>
    </TTGlyph>
    <TTGlyph name="ellipsis" xMin="279" yMin="-16" xMax="450" yMax="155">
      <component glyphName="period" x="245" y="0" flags="0x0"/>
      <component glyphName="period" x="490" y="0" flags="0x0"/>
      <component glyphName="period" x="0" y="0" flags="0x0"/>
    </TTGlyph>
    <TTGlyph name="emacron" xMin="38" yMin="-16" xMax="518" yMax="758">
      <component glyphName="e" x="0" y="0" flags="0x0"/>
      <component glyphName="uni0304" x="461" y="0" flags="0x0"/>
    </TTGlyph>
    <TTGlyph name="emacron.sc" xMin="73" yMin="0" xMax="441" yMax="788">
      <component glyphName="e.sc" x="0" y="0" flags="0x0"/>
      <component glyphName="uni0304.sc" x="79" y="0" flags="0x0"/>
    </TTGlyph>
    <TTGlyph name="emdash" xMin="24" yMin="257" xMax="771" yMax="369">
      <contour>
        <pt x="24" y="369" on="1"/>
        <pt x="771" y="369" on="1"/>
        <pt x="771" y="257" on="1"/>
        <pt x="24" y="257" on="1"/>
      </contour>
    </TTGlyph>
    <TTGlyph name="emdash.case" xMin="24" yMin="302" xMax="771" yMax="414">
      <component glyphName="emdash" x="0" y="45" flags="0x0"/>
    </TTGlyph>
</ttFont>
